{
.appVersion = "1075";
classes = (
{
code = "B C D F G H J K L M N P Q R S T V W X Y Z";
name = capsCon0;
},
{
code = "B.ss01 C.ss01 D.ss01 F.ss01 G.ss01 H.ss01 J.ss01 K.ss01 L.ss01 M.ss01 N.ss01 P.ss01 Q.ss01 R.ss01 S.ss01 T.ss01 V.ss01 W.ss01 X.ss01 Y.ss01 Z.ss01";
name = capsCon1;
},
{
code = "B.ss02 C.ss02 D.ss02 F.ss02 G.ss02 H.ss02 J.ss02 K.ss02 L.ss02 M.ss02 N.ss02 P.ss02 Q.ss02 R.ss02 S.ss02 T.ss02 V.ss02 W.ss02 X.ss02 Y.ss02 Z.ss02";
name = capsCon2;
},
{
code = "a b c d e f g h i j k l m n o p q r s t u v w x y z a.ss01 b.ss01 c.ss01 d.ss01 e.ss01 f.ss01 g.ss01 h.ss01 i.ss01 j.ss01 k.ss01 l.ss01 m.ss01 n.ss01 o.ss01 p.ss01 q.ss01 r.ss01 s.ss01 t.ss01 u.ss01 v.ss01 w.ss01 x.ss01 y.ss01 z.ss01 a.ss02 b.ss02 c.ss02 d.ss02 e.ss02 f.ss02 g.ss02 h.ss02 i.ss02 j.ss02 k.ss02 l.ss02 m.ss02 n.ss02 o.ss02 p.ss02 q.ss02 r.ss02 s.ss02 t.ss02 u.ss02 v.ss02 w.ss02 x.ss02 y.ss02 z.ss02 f_f_i f_f_l f_i f_l f_f f_t space";
name = capsEtc;
},
{
code = "A E I O U";
name = capsVoc0;
},
{
code = "A.ss01 E.ss01 I.ss01 O.ss01 U.ss01";
name = capsVoc1;
},
{
code = "A.ss02 E.ss02 I.ss02 O.ss02 U.ss02";
name = capsVoc2;
},
{
code = "b c d f g h j k l m n p q r s t v w x y z";
name = lowerCon0;
},
{
code = "b.ss01 c.ss01 d.ss01 f.ss01 g.ss01 h.ss01 j.ss01 k.ss01 l.ss01 m.ss01 n.ss01 p.ss01 q.ss01 r.ss01 s.ss01 t.ss01 v.ss01 w.ss01 x.ss01 y.ss01 z.ss01";
name = lowerCon1;
},
{
code = "b.ss02 c.ss02 d.ss02 f.ss02 g.ss02 h.ss02 j.ss02 k.ss02 l.ss02 m.ss02 n.ss02 p.ss02 q.ss02 r.ss02 s.ss02 t.ss02 v.ss02 w.ss02 x.ss02 y.ss02 z.ss02";
name = lowerCon2;
},
{

glyphs = (
{
glyphname = A;
layers = (
{
anchors = (
{
name = ogonek;
position = "{483, 40}";
},
{
name = topUC;
position = "{538, 785}";
}
);
background = {
paths = (
{
closed = 1;
nodes = (
"385 600 OFFCURVE",
"352 551 OFFCURVE",
"326 504 CURVE",
"262 395 OFFCURVE",
"239 359 OFFCURVE",
"221 318 CURVE",
"207 294 OFFCURVE",
"189 275 OFFCURVE",
"183 269 CURVE",
"171 263 OFFCURVE",
"165 257 OFFCURVE",
"168 245 CURVE",
"168 239 OFFCURVE",
"157 214 OFFCURVE",
"110 124 CURVE SMOOTH",
"46 -3 OFFCURVE",
"33 -14 OFFCURVE",
"69 -33 CURVE",
"85 -45 LINE",
"106 -13 LINE SMOOTH",
"134 29 OFFCURVE",
"167 105 OFFCURVE",
"167 118 CURVE SMOOTH",
"167 118 OFFCURVE",
"174 130 OFFCURVE",
"183 137 CURVE",
"183 143 OFFCURVE",
"202 168 OFFCURVE",
"208 187 CURVE",
"222 212 OFFCURVE",
"241 230 OFFCURVE",
"253 230 CURVE",
"277 237 OFFCURVE",
"403 251 OFFCURVE",
"428 251 CURVE SMOOTH",
"441 252 LINE",
"436 90 LINE SMOOTH",
"431 -5 OFFCURVE",
"430 6 OFFCURVE",
"437 1 CURVE",
"441 -18 OFFCURVE",
"485 -28 OFFCURVE",
"497 -15 CURVE",
"497 -9 OFFCURVE",
"499 3 OFFCURVE",
"498 15 CURVE",
"491 127 OFFCURVE",
"518 336 OFFCURVE",
"527 445 CURVE",
"534 528 OFFCURVE",
"543 604 OFFCURVE",
"534 621 CURVE",
"522 651 OFFCURVE",
"483 678 OFFCURVE",
"459 678 CURVE SMOOTH",
"447 679 OFFCURVE",
"435 667 OFFCURVE",
"421 648 CURVE"
);
},
{
closed = 1;
nodes = (
"472 500 OFFCURVE",
"452 312 OFFCURVE",
"450 305 CURVE SMOOTH",
"450 305 OFFCURVE",
"444 305 OFFCURVE",
"439 312 CURVE",
"427 317 OFFCURVE",
"421 317 OFFCURVE",
"338 298 CURVE",
"313 297 OFFCURVE",
"276 289 OFFCURVE",
"276 289 CURVE",
"269 295 OFFCURVE",
"324 388 OFFCURVE",
"330 394 CURVE",
"336 394 OFFCURVE",
"349 418 OFFCURVE",
"363 443 CURVE SMOOTH",
"404 525 OFFCURVE",
"465 600 OFFCURVE",
"477 600 CURVE SMOOTH",
"477 600 OFFCURVE",
"475 575 OFFCURVE",
"474 550 CURVE SMOOTH"
);
}
);
};
layerId = "5B238DC5-4F6F-4A74-B879-7A3E5189648B";
paths = (
{
closed = 1;
nodes = (
"106 -13 LINE SMOOTH",
"134 29 OFFCURVE",
"167 105 OFFCURVE",
"167 118 CURVE SMOOTH",
"167 118 OFFCURVE",
"174 130 OFFCURVE",
"183 137 CURVE",
"183 143 OFFCURVE",
"202 168 OFFCURVE",
"208 187 CURVE",
"222 212 OFFCURVE",
"241 230 OFFCURVE",
"253 230 CURVE",
"277 237 OFFCURVE",
"403 251 OFFCURVE",
"428 251 CURVE SMOOTH",
"441 252 LINE",
"436 90 LINE SMOOTH",
"431 -5 OFFCURVE",
"430 6 OFFCURVE",
"437 1 CURVE",
"441 -18 OFFCURVE",
"485 -28 OFFCURVE",
"497 -15 CURVE",
"497 -9 OFFCURVE",
"499 3 OFFCURVE",
"498 15 CURVE",
"491 127 OFFCURVE",
"518 336 OFFCURVE",
"527 445 CURVE",
"534 528 OFFCURVE",
"543 604 OFFCURVE",
"534 621 CURVE",
"522 651 OFFCURVE",
"483 678 OFFCURVE",
"459 678 CURVE SMOOTH",
"447 679 OFFCURVE",
"435 667 OFFCURVE",
"421 648 CURVE",
"385 600 OFFCURVE",
"352 551 OFFCURVE",
"326 504 CURVE",
"262 395 OFFCURVE",
"239 359 OFFCURVE",
"221 318 CURVE",
"207 294 OFFCURVE",
"189 275 OFFCURVE",
"183 269 CURVE",
"171 263 OFFCURVE",
"165 257 OFFCURVE",
"168 245 CURVE",
"168 239 OFFCURVE",
"157 214 OFFCURVE",
"110 124 CURVE SMOOTH",
"46 -3 OFFCURVE",
"33 -14 OFFCURVE",
"69 -33 CURVE",
"85 -45 LINE"
);
},
{
closed = 1;
nodes = (
"269 295 OFFCURVE",
"324 388 OFFCURVE",
"330 394 CURVE",
"336 394 OFFCURVE",
"349 418 OFFCURVE",
"363 443 CURVE SMOOTH",
"404 525 OFFCURVE",
"465 600 OFFCURVE",
"477 600 CURVE SMOOTH",
"477 600 OFFCURVE",
"475 575 OFFCURVE",
"474 550 CURVE SMOOTH",
"472 500 OFFCURVE",
"452 312 OFFCURVE",
"450 305 CURVE SMOOTH",
"450 305 OFFCURVE",
"444 305 OFFCURVE",
"439 312 CURVE",
"427 317 OFFCURVE",
"421 317 OFFCURVE",
"338 298 CURVE",
"313 297 OFFCURVE",
"276 289 OFFCURVE",
"276 289 CURVE"
);
}
);
width = 502;
},
{
anchors = (
{
name = ogonek;
position = "{483, 40}";
},
{
name = topUC;
position = "{538, 785}";
}
);
background = {
paths = (
{
closed = 1;
nodes = (
"381 610 OFFCURVE",
"343 551 OFFCURVE",
"317 504 CURVE",
"253 395 OFFCURVE",
"232 359 OFFCURVE",
"214 318 CURVE",
"200 294 OFFCURVE",
"174 275 OFFCURVE",
"168 269 CURVE",
"156 263 OFFCURVE",
"150 257 OFFCURVE",
"153 245 CURVE",
"153 239 OFFCURVE",
"152 214 OFFCURVE",
"105 124 CURVE",
"41 -3 OFFCURVE",
"28 -14 OFFCURVE",
"64 -33 CURVE",
"92 -55 LINE",
"117 -19 LINE SMOOTH",
"145 23 OFFCURVE",
"176 99 OFFCURVE",
"176 112 CURVE",
"176 112 OFFCURVE",
"183 124 OFFCURVE",
"192 131 CURVE",
"192 137 OFFCURVE",
"211 162 OFFCURVE",
"217 181 CURVE",
"231 206 OFFCURVE",
"250 224 OFFCURVE",
"262 224 CURVE",
"286 231 OFFCURVE",
"406 245 OFFCURVE",
"431 245 CURVE",
"444 246 LINE",
"439 90 LINE SMOOTH",
"434 -5 OFFCURVE",
"433 6 OFFCURVE",
"440 1 CURVE",
"444 -18 OFFCURVE",
"506 -28 OFFCURVE",
"518 -15 CURVE",
"518 -9 OFFCURVE",
"520 3 OFFCURVE",
"519 15 CURVE",
"512 127 OFFCURVE",
"539 336 OFFCURVE",
"548 445 CURVE",
"555 528 OFFCURVE",
"564 604 OFFCURVE",
"555 621 CURVE",
"543 651 OFFCURVE",
"496 688 OFFCURVE",
"459 688 CURVE",
"447 688 OFFCURVE",
"431 677 OFFCURVE",
"417 658 CURVE"
);
},
{
closed = 1;
nodes = (
"480 499 OFFCURVE",
"456 324 OFFCURVE",
"454 317 CURVE",
"454 317 OFFCURVE",
"448 317 OFFCURVE",
"443 324 CURVE",
"431 329 OFFCURVE",
"414 327 OFFCURVE",
"356 313 CURVE",
"331 312 OFFCURVE",
"292 304 OFFCURVE",
"292 304 CURVE",
"285 310 OFFCURVE",
"336 393 OFFCURVE",
"342 399 CURVE",
"348 399 OFFCURVE",
"360 418 OFFCURVE",
"374 443 CURVE",
"415 525 OFFCURVE",
"469 599 OFFCURVE",
"481 599 CURVE",
"481 599 OFFCURVE",
"483 574 OFFCURVE",
"482 549 CURVE"
);
},
{
closed = 1;
nodes = (
"378 620 OFFCURVE",
"335 551 OFFCURVE",
"309 504 CURVE",
"245 395 OFFCURVE",
"226 359 OFFCURVE",
"208 318 CURVE",
"194 294 OFFCURVE",
"159 275 OFFCURVE",
"153 269 CURVE",
"141 263 OFFCURVE",
"135 257 OFFCURVE",
"138 245 CURVE",
"138 239 OFFCURVE",
"147 214 OFFCURVE",
"100 124 CURVE",
"36 -3 OFFCURVE",
"23 -14 OFFCURVE",
"59 -33 CURVE",
"100 -65 LINE",
"129 -25 LINE",
"157 17 OFFCURVE",
"186 93 OFFCURVE",
"186 106 CURVE SMOOTH",
"186 106 OFFCURVE",
"193 118 OFFCURVE",
"202 125 CURVE",
"202 131 OFFCURVE",
"221 156 OFFCURVE",
"227 175 CURVE",
"241 200 OFFCURVE",
"260 219 OFFCURVE",
"272 219 CURVE",
"296 226 OFFCURVE",
"410 240 OFFCURVE",
"435 240 CURVE",
"448 241 LINE",
"443 90 LINE",
"438 -5 OFFCURVE",
"437 6 OFFCURVE",
"444 1 CURVE",
"448 -18 OFFCURVE",
"527 -28 OFFCURVE",
"539 -15 CURVE",
"539 -9 OFFCURVE",
"541 3 OFFCURVE",
"540 15 CURVE SMOOTH",
"533 127 OFFCURVE",
"560 336 OFFCURVE",
"569 445 CURVE SMOOTH",
"576 528 OFFCURVE",
"585 604 OFFCURVE",
"576 621 CURVE",
"564 651 OFFCURVE",
"509 698 OFFCURVE",
"459 698 CURVE SMOOTH",
"447 698 OFFCURVE",
"428 687 OFFCURVE",
"414 668 CURVE SMOOTH"
);
},
{
closed = 1;
nodes = (
"488 498 OFFCURVE",
"460 337 OFFCURVE",
"458 330 CURVE",
"458 330 OFFCURVE",
"452 330 OFFCURVE",
"447 337 CURVE",
"435 342 OFFCURVE",
"408 338 OFFCURVE",
"375 328 CURVE",
"350 327 OFFCURVE",
"309 319 OFFCURVE",
"309 319 CURVE",
"302 325 OFFCURVE",
"349 399 OFFCURVE",
"355 405 CURVE",
"361 405 OFFCURVE",
"372 418 OFFCURVE",
"386 443 CURVE",
"427 525 OFFCURVE",
"473 598 OFFCURVE",
"485 598 CURVE SMOOTH",
"485 598 OFFCURVE",
"491 573 OFFCURVE",
"490 548 CURVE SMOOTH"
);
}
);
};
layerId = "C211B134-F0DF-4134-92B2-996AB8C0D30E";
paths = (
{
closed = 1;
nodes = (
"123 -22 LINE SMOOTH",
"151 20 OFFCURVE",
"181 96 OFFCURVE",
"181 109 CURVE",
"181 109 OFFCURVE",
"188 121 OFFCURVE",
"197 128 CURVE",
"197 134 OFFCURVE",
"216 159 OFFCURVE",
"222 178 CURVE",
"236 203 OFFCURVE",
"255 221 OFFCURVE",
"267 221 CURVE",
"291 228 OFFCURVE",
"408 242 OFFCURVE",
"433 242 CURVE",
"446 243 LINE",
"441 90 LINE SMOOTH",
"436 -5 OFFCURVE",
"435 6 OFFCURVE",
"442 1 CURVE",
"446 -18 OFFCURVE",
"516 -28 OFFCURVE",
"528 -15 CURVE",
"528 -9 OFFCURVE",
"530 3 OFFCURVE",
"529 15 CURVE",
"522 127 OFFCURVE",
"549 336 OFFCURVE",
"558 445 CURVE",
"565 528 OFFCURVE",
"574 604 OFFCURVE",
"565 621 CURVE",
"553 651 OFFCURVE",
"502 693 OFFCURVE",
"459 693 CURVE",
"447 693 OFFCURVE",
"429 682 OFFCURVE",
"415 663 CURVE",
"379 615 OFFCURVE",
"339 551 OFFCURVE",
"313 504 CURVE",
"249 395 OFFCURVE",
"229 359 OFFCURVE",
"211 318 CURVE",
"197 294 OFFCURVE",
"166 275 OFFCURVE",
"160 269 CURVE",
"148 263 OFFCURVE",
"142 257 OFFCURVE",
"145 245 CURVE",
"145 239 OFFCURVE",
"149 214 OFFCURVE",
"102 124 CURVE",
"38 -3 OFFCURVE",
"25 -14 OFFCURVE",
"61 -33 CURVE",
"96 -60 LINE"
);
},
{
closed = 1;
nodes = (
"293 317 OFFCURVE",
"342 396 OFFCURVE",
"348 402 CURVE",
"354 402 OFFCURVE",
"366 418 OFFCURVE",
"380 443 CURVE",
"421 525 OFFCURVE",
"471 598 OFFCURVE",
"483 598 CURVE",
"483 598 OFFCURVE",
"487 573 OFFCURVE",
"486 548 CURVE",
"484 498 OFFCURVE",
"458 330 OFFCURVE",
"456 323 CURVE",
"456 323 OFFCURVE",
"450 323 OFFCURVE",
"445 330 CURVE",
"433 335 OFFCURVE",
"411 332 OFFCURVE",
"365 320 CURVE",
"340 319 OFFCURVE",
"300 311 OFFCURVE",
"300 311 CURVE"
);
}
);
width = 511;
}
);
unicode = 0041;
},
{
glyphname = AE;
layers = (
{
anchors = (
{
name = topUC;
position = "{717, 785}";
}
);
background = {
paths = (
{
closed = 1;
nodes = (
"852 647 OFFCURVE",
"839 647 OFFCURVE",
"818 642 CURVE",
"748 640 OFFCURVE",
"709 635 OFFCURVE",
"667 619 CURVE",
"614 607 OFFCURVE",
"610 600 OFFCURVE",
"608 571 CURVE",
"611 560 OFFCURVE",
"607 542 OFFCURVE",
"579 519 CURVE",
"566 497 OFFCURVE",
"547 468 OFFCURVE",
"536 457 CURVE",
"530 438 OFFCURVE",
"518 428 OFFCURVE",
"518 422 CURVE",
"494 392 OFFCURVE",
"454 302 OFFCURVE",
"446 279 CURVE",
"446 272 OFFCURVE",
"439 259 OFFCURVE",
"439 247 CURVE",
"418 189 OFFCURVE",
"401 94 OFFCURVE",
"416 65 CURVE",
"422 61 OFFCURVE",
"420 54 OFFCURVE",
"420 49 CURVE SMOOTH",
"420 41 OFFCURVE",
"420 41 OFFCURVE",
"420 41 CURVE",
"426 41 OFFCURVE",
"433 36 OFFCURVE",
"433 29 CURVE",
"438 10 OFFCURVE",
"488 -18 OFFCURVE",
"529 -27 CURVE",
"567 -30 OFFCURVE",
"601 -23 OFFCURVE",
"671 2 CURVE",
"746 34 OFFCURVE",
"761 43 OFFCURVE",
"738 75 CURVE",
"712 93 OFFCURVE",
"712 93 OFFCURVE",
"695 82 CURVE",
"680 77 OFFCURVE",
"663 67 OFFCURVE",
"653 59 CURVE",
"604 28 OFFCURVE",
"506 23 OFFCURVE",
"486 49 CURVE",
"467 67 OFFCURVE",
"490 211 OFFCURVE",
"515 270 CURVE SMOOTH",
"531 310 OFFCURVE",
"542 309 OFFCURVE",
"613 328 CURVE",
"644 332 OFFCURVE",
"687 338 OFFCURVE",
"691 338 CURVE SMOOTH",
"708 338 OFFCURVE",
"719 341 OFFCURVE",
"719 341 CURVE",
"727 341 OFFCURVE",
"769 354 OFFCURVE",
"789 362 CURVE SMOOTH",
"838 382 OFFCURVE",
"852 419 OFFCURVE",
"784 414 CURVE SMOOTH",
"769 413 OFFCURVE",
"760 408 OFFCURVE",
"718 400 CURVE",
"681 395 OFFCURVE",
"638 383 OFFCURVE",
"638 383 CURVE",
"630 383 OFFCURVE",
"615 378 OFFCURVE",
"599 378 CURVE SMOOTH",
"576 378 OFFCURVE",
"568 382 OFFCURVE",
"623 467 CURVE SMOOTH",
"680 557 OFFCURVE",
"709 574 OFFCURVE",
"830 588 CURVE SMOOTH",
"874 593 OFFCURVE",
"918 607 OFFCURVE",
"919 619 CURVE",
"921 626 OFFCURVE",
"857 653 OFFCURVE",
"852 647 CURVE"
);
}
);
};
layerId = "5B238DC5-4F6F-4A74-B879-7A3E5189648B";
paths = (
{
closed = 1;
nodes = (
"596 -48 OFFCURVE",
"608 -42 OFFCURVE",
"658 -20 CURVE",
"724 6 OFFCURVE",
"752 16 OFFCURVE",
"752 30 CURVE",
"753 36 OFFCURVE",
"726 66 OFFCURVE",
"722 66 CURVE SMOOTH",
"712 66 OFFCURVE",
"707 62 OFFCURVE",
"702 55 CURVE",
"697 55 OFFCURVE",
"678 50 OFFCURVE",
"672 50 CURVE",
"663 45 OFFCURVE",
"641 36 OFFCURVE",
"617 22 CURVE",
"559 7 OFFCURVE",
"514 8 OFFCURVE",
"487 13 CURVE",
"444 33 OFFCURVE",
"445 52 OFFCURVE",
"455 88 CURVE",
"466 150 OFFCURVE",
"477 187 OFFCURVE",
"500 238 CURVE SMOOTH",
"527 297 OFFCURVE",
"523 315 OFFCURVE",
"531 297 CURVE",
"545 294 OFFCURVE",
"745 335 OFFCURVE",
"764 355 CURVE",
"777 361 OFFCURVE",
"774 376 OFFCURVE",
"750 381 CURVE",
"743 385 OFFCURVE",
"728 391 OFFCURVE",
"706 385 CURVE",
"676 385 OFFCURVE",
"597 376 OFFCURVE",
"565 371 CURVE",
"553 376 OFFCURVE",
"559 391 OFFCURVE",
"572 409 CURVE SMOOTH",
"587 430 OFFCURVE",
"599 446 OFFCURVE",
"599 459 CURVE",
"600 468 OFFCURVE",
"660 569 OFFCURVE",
"666 569 CURVE SMOOTH",
"666 569 OFFCURVE",
"682 569 OFFCURVE",
"701 575 CURVE",
"715 575 OFFCURVE",
"768 587 OFFCURVE",
"817 587 CURVE SMOOTH",
"861 587 OFFCURVE",
"906 587 OFFCURVE",
"906 594 CURVE SMOOTH",
"906 594 OFFCURVE",
"904 614 OFFCURVE",
"894 624 CURVE",
"877 632 OFFCURVE",
"862 642 OFFCURVE",
"833 642 CURVE",
"786 646 OFFCURVE",
"721 644 OFFCURVE",
"709 636 CURVE",
"680 634 OFFCURVE",
"647 625 OFFCURVE",
"623 616 CURVE",
"585 624 OFFCURVE",
"551 628 OFFCURVE",
"536 635 CURVE SMOOTH",
"511 647 OFFCURVE",
"501 640 OFFCURVE",
"472 612 CURVE",
"454 593 OFFCURVE",
"438 575 OFFCURVE",
"430 561 CURVE",
"416 546 OFFCURVE",
"397 521 OFFCURVE",
"376 503 CURVE",
"361 481 OFFCURVE",
"343 454 OFFCURVE",
"335 448 CURVE",
"327 436 OFFCURVE",
"320 429 OFFCURVE",
"300 392 CURVE",
"279 369 OFFCURVE",
"225 284 OFFCURVE",
"223 278 CURVE",
"223 272 OFFCURVE",
"217 272 OFFCURVE",
"204 265 CURVE",
"186 265 OFFCURVE",
"169 247 OFFCURVE",
"183 241 CURVE",
"196 228 OFFCURVE",
"194 216 OFFCURVE",
"180 203 CURVE",
"167 197 OFFCURVE",
"105 99 OFFCURVE",
"103 93 CURVE",
"103 93 OFFCURVE",
"96 81 OFFCURVE",
"88 72 CURVE SMOOTH",
"55 33 OFFCURVE",
"48 8 OFFCURVE",
"73 -4 CURVE",
"84 -14 OFFCURVE",
"91 -13 OFFCURVE",
"103 -13 CURVE SMOOTH",
"109 -13 OFFCURVE",
"121 -1 OFFCURVE",
"149 41 CURVE",
"170 66 OFFCURVE",
"190 103 OFFCURVE",
"204 129 CURVE SMOOTH",
"219 157 OFFCURVE",
"240 182 OFFCURVE",
"244 188 CURVE SMOOTH",
"261 209 LINE",
"328 205 OFFCURVE",
"380 202 OFFCURVE",
"405 206 CURVE",
"417 206 LINE",
"411 195 OFFCURVE",
"405 173 OFFCURVE",
"401 150 CURVE",
"376 55 OFFCURVE",
"381 12 OFFCURVE",
"422 -19 CURVE SMOOTH",
"456 -46 OFFCURVE",
"498 -48 OFFCURVE",
"551 -48 CURVE SMOOTH"
);
},
{
closed = 1;
nodes = (
"288 267 OFFCURVE",
"304 308 OFFCURVE",
"364 387 CURVE",
"387 419 OFFCURVE",
"408 451 OFFCURVE",
"414 458 CURVE",
"428 479 OFFCURVE",
"501 558 OFFCURVE",
"507 551 CURVE",
"530 551 OFFCURVE",
"549 549 OFFCURVE",
"567 547 CURVE",
"557 518 OFFCURVE",
"533 471 OFFCURVE",
"498 409 CURVE",
"492 391 OFFCURVE",
"481 381 OFFCURVE",
"479 376 CURVE",
"479 371 OFFCURVE",
"475 361 OFFCURVE",
"464 343 CURVE",
"458 329 OFFCURVE",
"458 318 OFFCURVE",
"458 318 CURVE",
"457 315 OFFCURVE",
"450 294 OFFCURVE",
"446 291 CURVE SMOOTH",
"440 285 OFFCURVE",
"438 278 OFFCURVE",
"435 266 CURVE",
"421 266 OFFCURVE",
"400 267 OFFCURVE",
"375 265 CURVE",
"338 266 OFFCURVE",
"298 261 OFFCURVE",
"298 261 CURVE"
);
}
);
width = 784;
},
{
background = {
paths = (
{
closed = 1;
nodes = (
"686 651 OFFCURVE",
"587 625 OFFCURVE",
"593 613 CURVE",
"583 602 OFFCURVE",
"578 572 OFFCURVE",
"572 558 CURVE",
"566 532 OFFCURVE",
"540 490 OFFCURVE",
"500 419 CURVE",
"494 401 OFFCURVE",
"483 391 OFFCURVE",
"481 386 CURVE",
"481 381 OFFCURVE",
"477 371 OFFCURVE",
"466 353 CURVE",
"460 339 OFFCURVE",
"460 328 OFFCURVE",
"460 328 CURVE",
"459 325 OFFCURVE",
"452 304 OFFCURVE",
"448 301 CURVE SMOOTH",
"440 293 OFFCURVE",
"439 284 OFFCURVE",
"433 260 CURVE",
"430 243 OFFCURVE",
"427 229 OFFCURVE",
"426 223 CURVE",
"419 223 OFFCURVE",
"409 193 OFFCURVE",
"403 160 CURVE",
"378 65 OFFCURVE",
"405 6 OFFCURVE",
"446 -25 CURVE SMOOTH",
"480 -52 OFFCURVE",
"522 -54 OFFCURVE",
"575 -54 CURVE SMOOTH",
"620 -54 OFFCURVE",
"632 -48 OFFCURVE",
"682 -26 CURVE",
"748 0 OFFCURVE",
"806 26 OFFCURVE",
"806 40 CURVE SMOOTH",
"806 78 OFFCURVE",
"769 110 OFFCURVE",
"765 110 CURVE SMOOTH",
"755 110 OFFCURVE",
"750 106 OFFCURVE",
"745 99 CURVE",
"740 99 OFFCURVE",
"721 89 OFFCURVE",
"715 89 CURVE",
"706 84 OFFCURVE",
"676 66 OFFCURVE",
"652 52 CURVE",
"594 37 OFFCURVE",
"568 38 OFFCURVE",
"541 43 CURVE",
"498 63 OFFCURVE",
"486 96 OFFCURVE",
"496 132 CURVE",
"507 194 OFFCURVE",
"504 177 OFFCURVE",
"527 228 CURVE",
"535 287 OFFCURVE",
"550 305 OFFCURVE",
"558 287 CURVE",
"572 284 OFFCURVE",
"774 325 OFFCURVE",
"793 345 CURVE",
"806 351 OFFCURVE",
"816 392 OFFCURVE",
"792 397 CURVE",
"785 401 OFFCURVE",
"770 407 OFFCURVE",
"748 401 CURVE",
"718 401 OFFCURVE",
"635 392 OFFCURVE",
"603 387 CURVE",
"591 392 OFFCURVE",
"597 417 OFFCURVE",
"610 435 CURVE SMOOTH",
"625 456 OFFCURVE",
"637 472 OFFCURVE",
"637 485 CURVE",
"638 494 OFFCURVE",
"678 559 OFFCURVE",
"684 559 CURVE SMOOTH",
"684 559 OFFCURVE",
"723 559 OFFCURVE",
"742 565 CURVE",
"756 565 OFFCURVE",
"790 577 OFFCURVE",
"839 577 CURVE SMOOTH",
"883 577 OFFCURVE",
"932 581 OFFCURVE",
"938 584 CURVE SMOOTH",
"979 606 OFFCURVE",
"936 633 OFFCURVE",
"926 643 CURVE",
"909 651 OFFCURVE",
"894 661 OFFCURVE",
"865 661 CURVE",
"818 665 OFFCURVE",
"753 663 OFFCURVE",
"741 655 CURVE"
);
},
{
closed = 1;
nodes = (
"434 603 OFFCURVE",
"418 585 OFFCURVE",
"410 571 CURVE",
"396 556 OFFCURVE",
"377 531 OFFCURVE",
"356 513 CURVE",
"340 491 OFFCURVE",
"322 464 OFFCURVE",
"316 458 CURVE",
"308 446 OFFCURVE",
"300 439 OFFCURVE",
"281 402 CURVE",
"259 379 OFFCURVE",
"231 334 OFFCURVE",
"230 328 CURVE SMOOTH",
"229 322 OFFCURVE",
"223 322 OFFCURVE",
"209 315 CURVE",
"149 319 OFFCURVE",
"151 257 OFFCURVE",
"164 251 CURVE",
"177 238 OFFCURVE",
"175 226 OFFCURVE",
"162 213 CURVE",
"148 207 OFFCURVE",
"74 89 OFFCURVE",
"73 83 CURVE SMOOTH",
"73 83 OFFCURVE",
"64 71 OFFCURVE",
"57 62 CURVE SMOOTH",
"26 23 OFFCURVE",
"39 -2 OFFCURVE",
"64 -14 CURVE",
"76 -24 OFFCURVE",
"79 -23 OFFCURVE",
"91 -23 CURVE SMOOTH",
"97 -23 OFFCURVE",
"118 -11 OFFCURVE",
"146 31 CURVE",
"166 56 OFFCURVE",
"200 113 OFFCURVE",
"214 139 CURVE SMOOTH",
"228 167 OFFCURVE",
"240 179 OFFCURVE",
"245 185 CURVE SMOOTH",
"261 206 LINE",
"329 202 OFFCURVE",
"392 196 OFFCURVE",
"418 200 CURVE",
"472 200 LINE",
"519 329 OFFCURVE",
"573 500 OFFCURVE",
"597 618 CURVE",
"571 630 OFFCURVE",
"498 669 OFFCURVE",
"451 622 CURVE"
);
},
{
closed = 1;
nodes = (
"552 459 OFFCURVE",
"501 377 OFFCURVE",
"499 334 CURVE",
"496 313 OFFCURVE",
"490 298 OFFCURVE",
"475 299 CURVE",
"469 296 OFFCURVE",
"440 301 OFFCURVE",
"396 297 CURVE",
"359 298 OFFCURVE",
"329 293 OFFCURVE",
"329 293 CURVE",
"318 299 OFFCURVE",
"326 318 OFFCURVE",
"386 397 CURVE",
"410 429 OFFCURVE",
"429 461 OFFCURVE",
"436 468 CURVE",
"451 489 OFFCURVE",
"491 539 OFFCURVE",
"496 532 CURVE",
"496 532 OFFCURVE",
"564 534 OFFCURVE",
"561 509 CURVE"
);
}
);
};
layerId = "C211B134-F0DF-4134-92B2-996AB8C0D30E";
paths = (
{
closed = 1;
nodes = (
"627 -50 OFFCURVE",
"639 -44 OFFCURVE",
"689 -22 CURVE",
"755 4 OFFCURVE",
"806 26 OFFCURVE",
"806 40 CURVE SMOOTH",
"806 70 OFFCURVE",
"771 101 OFFCURVE",
"767 101 CURVE SMOOTH",
"757 101 OFFCURVE",
"752 97 OFFCURVE",
"747 90 CURVE",
"742 90 OFFCURVE",
"723 81 OFFCURVE",
"717 81 CURVE",
"708 76 OFFCURVE",
"680 61 OFFCURVE",
"656 47 CURVE",
"598 32 OFFCURVE",
"577 33 OFFCURVE",
"550 38 CURVE",
"507 58 OFFCURVE",
"498 87 OFFCURVE",
"508 123 CURVE",
"519 185 OFFCURVE",
"519 182 OFFCURVE",
"542 233 CURVE",
"555 292 OFFCURVE",
"565 310 OFFCURVE",
"573 292 CURVE",
"587 289 OFFCURVE",
"780 330 OFFCURVE",
"799 350 CURVE",
"812 356 OFFCURVE",
"819 390 OFFCURVE",
"795 395 CURVE",
"788 399 OFFCURVE",
"773 405 OFFCURVE",
"751 399 CURVE",
"721 399 OFFCURVE",
"648 390 OFFCURVE",
"616 385 CURVE",
"604 390 OFFCURVE",
"610 413 OFFCURVE",
"623 431 CURVE SMOOTH",
"638 452 OFFCURVE",
"650 468 OFFCURVE",
"650 481 CURVE",
"651 490 OFFCURVE",
"687 564 OFFCURVE",
"693 564 CURVE SMOOTH",
"693 564 OFFCURVE",
"726 564 OFFCURVE",
"745 570 CURVE",
"759 570 OFFCURVE",
"798 582 OFFCURVE",
"847 582 CURVE SMOOTH",
"891 582 OFFCURVE",
"939 585 OFFCURVE",
"943 589 CURVE",
"974 605 OFFCURVE",
"941 630 OFFCURVE",
"931 640 CURVE",
"914 648 OFFCURVE",
"899 658 OFFCURVE",
"870 658 CURVE",
"823 662 OFFCURVE",
"758 660 OFFCURVE",
"746 652 CURVE",
"691 648 OFFCURVE",
"600 622 OFFCURVE",
"606 610 CURVE",
"596 599 OFFCURVE",
"591 574 OFFCURVE",
"585 560 CURVE",
"579 534 OFFCURVE",
"553 490 OFFCURVE",
"513 419 CURVE",
"507 401 OFFCURVE",
"496 391 OFFCURVE",
"494 386 CURVE",
"494 381 OFFCURVE",
"490 371 OFFCURVE",
"479 353 CURVE",
"473 339 OFFCURVE",
"473 328 OFFCURVE",
"473 328 CURVE",
"472 325 OFFCURVE",
"465 304 OFFCURVE",
"461 301 CURVE SMOOTH",
"453 293 OFFCURVE",
"452 284 OFFCURVE",
"446 260 CURVE",
"443 243 OFFCURVE",
"440 229 OFFCURVE",
"439 223 CURVE",
"432 223 OFFCURVE",
"422 193 OFFCURVE",
"416 160 CURVE",
"391 65 OFFCURVE",
"412 10 OFFCURVE",
"453 -21 CURVE SMOOTH",
"487 -48 OFFCURVE",
"529 -50 OFFCURVE",
"582 -50 CURVE SMOOTH"
);
},
{
closed = 1;
nodes = (
"112 -18 OFFCURVE",
"131 -6 OFFCURVE",
"158 36 CURVE",
"179 61 OFFCURVE",
"208 113 OFFCURVE",
"222 139 CURVE SMOOTH",
"236 167 OFFCURVE",
"250 182 OFFCURVE",
"255 188 CURVE SMOOTH",
"271 209 LINE",
"339 205 OFFCURVE",
"400 200 OFFCURVE",
"425 204 CURVE",
"479 204 LINE",
"564 329 OFFCURVE",
"540 463 OFFCURVE",
"637 620 CURVE",
"539 655 OFFCURVE",
"492 650 OFFCURVE",
"463 622 CURVE",
"447 603 OFFCURVE",
"430 585 OFFCURVE",
"422 571 CURVE",
"409 556 OFFCURVE",
"390 531 OFFCURVE",
"369 513 CURVE",
"353 491 OFFCURVE",
"336 464 OFFCURVE",
"329 458 CURVE",
"321 446 OFFCURVE",
"313 439 OFFCURVE",
"295 402 CURVE",
"273 379 OFFCURVE",
"239 324 OFFCURVE",
"238 318 CURVE SMOOTH",
"237 312 OFFCURVE",
"231 312 OFFCURVE",
"217 305 CURVE",
"168 308 OFFCURVE",
"165 257 OFFCURVE",
"178 251 CURVE",
"192 238 OFFCURVE",
"190 226 OFFCURVE",
"176 213 CURVE",
"163 207 OFFCURVE",
"93 94 OFFCURVE",
"92 88 CURVE SMOOTH",
"92 88 OFFCURVE",
"84 76 OFFCURVE",
"76 67 CURVE SMOOTH",
"44 28 OFFCURVE",
"52 3 OFFCURVE",
"78 -9 CURVE",
"89 -19 OFFCURVE",
"94 -18 OFFCURVE",
"106 -18 CURVE SMOOTH"
);
},
{
closed = 1;
nodes = (
"321 293 OFFCURVE",
"330 318 OFFCURVE",
"390 397 CURVE",
"413 429 OFFCURVE",
"432 461 OFFCURVE",
"439 468 CURVE",
"454 489 OFFCURVE",
"499 539 OFFCURVE",
"504 532 CURVE",
"504 532 OFFCURVE",
"578 541 OFFCURVE",
"575 516 CURVE",
"566 466 OFFCURVE",
"505 371 OFFCURVE",
"503 328 CURVE",
"500 307 OFFCURVE",
"495 292 OFFCURVE",
"480 293 CURVE",
"473 290 OFFCURVE",
"445 295 OFFCURVE",
"400 291 CURVE",
"364 292 OFFCURVE",
"332 287 OFFCURVE",
"332 287 CURVE"
);
}
);
width = 784;
}
);
unicode = 00C6;
},
{
glyphname = B;
layers = (
{
background = {
paths = (
{
closed = 1;
nodes = (
"370 660 OFFCURVE",
"357 661 OFFCURVE",
"351 661 CURVE SMOOTH",
"333 664 OFFCURVE",
"282 640 OFFCURVE",
"282 633 CURVE",
"281 627 OFFCURVE",
"287 621 OFFCURVE",
"287 615 CURVE",
"293 613 OFFCURVE",
"290 596 OFFCURVE",
"272 555 CURVE",
"224 446 OFFCURVE",
"116 177 OFFCURVE",
"99 127 CURVE SMOOTH",
"92 102 OFFCURVE",
"90 96 OFFCURVE",
"83 84 CURVE SMOOTH",
"69 60 OFFCURVE",
"74 43 OFFCURVE",
"85 25 CURVE",
"112 -14 OFFCURVE",
"121 -10 OFFCURVE",
"164 113 CURVE SMOOTH",
"222 276 OFFCURVE",
"215 263 OFFCURVE",
"234 269 CURVE",
"235 269 OFFCURVE",
"277 278 OFFCURVE",
"292 281 CURVE SMOOTH",
"372 302 OFFCURVE",
"432 282 OFFCURVE",
"466 235 CURVE SMOOTH",
"485 212 OFFCURVE",
"483 134 OFFCURVE",
"442 80 CURVE SMOOTH",
"405 34 OFFCURVE",
"365 3 OFFCURVE",
"309 -14 CURVE SMOOTH",
"259 -27 OFFCURVE",
"219 -21 OFFCURVE",
"193 3 CURVE SMOOTH",
"181 15 OFFCURVE",
"159 34 OFFCURVE",
"151 29 CURVE SMOOTH",
"115 6 OFFCURVE",
"139 -20 OFFCURVE",
"197 -57 CURVE SMOOTH",
"232 -79 OFFCURVE",
"310 -79 OFFCURVE",
"366 -54 CURVE SMOOTH",
"404 -40 OFFCURVE",
"435 -14 OFFCURVE",
"455 3 CURVE",
"474 26 OFFCURVE",
"502 71 OFFCURVE",
"503 76 CURVE",
"503 76 OFFCURVE",
"509 89 OFFCURVE",
"518 98 CURVE",
"531 128 OFFCURVE",
"547 184 OFFCURVE",
"540 215 CURVE SMOOTH",
"525 276 OFFCURVE",
"484 307 OFFCURVE",
"423 330 CURVE SMOOTH",
"411 334 OFFCURVE",
"398 339 OFFCURVE",
"398 339 CURVE",
"398 339 OFFCURVE",
"435 365 OFFCURVE",
"461 388 CURVE SMOOTH",
"504 427 OFFCURVE",
"562 506 OFFCURVE",
"564 541 CURVE",
"565 615 OFFCURVE",
"513 660 OFFCURVE",
"424 668 CURVE",
"399 670 OFFCURVE",
"374 666 OFFCURVE",
"370 666 CURVE"
);
},
{
closed = 1;
nodes = (
"512 577 OFFCURVE",
"511 558 OFFCURVE",
"481 510 CURVE",
"458 466 OFFCURVE",
"399 397 OFFCURVE",
"371 371 CURVE SMOOTH",
"357 357 OFFCURVE",
"344 352 OFFCURVE",
"337 348 CURVE SMOOTH",
"316 340 OFFCURVE",
"246 328 OFFCURVE",
"246 328 CURVE",
"246 335 OFFCURVE",
"260 372 OFFCURVE",
"284 429 CURVE",
"303 479 OFFCURVE",
"326 523 OFFCURVE",
"326 529 CURVE SMOOTH",
"326 529 OFFCURVE",
"333 537 OFFCURVE",
"335 547 CURVE",
"341 553 OFFCURVE",
"351 566 OFFCURVE",
"351 578 CURVE SMOOTH",
"351 593 OFFCURVE",
"360 599 OFFCURVE",
"378 604 CURVE",
"412 613 OFFCURVE",
"477 615 OFFCURVE",
"495 594 CURVE SMOOTH"
);
}
);
};
layerId = "5B238DC5-4F6F-4A74-B879-7A3E5189648B";
paths = (
{
closed = 1;
nodes = (
"232 -79 OFFCURVE",
"310 -79 OFFCURVE",
"366 -54 CURVE SMOOTH",
"404 -40 OFFCURVE",
"435 -14 OFFCURVE",
"455 3 CURVE",
"474 26 OFFCURVE",
"502 71 OFFCURVE",
"503 76 CURVE",
"503 76 OFFCURVE",
"509 89 OFFCURVE",
"518 98 CURVE",
"531 128 OFFCURVE",
"547 184 OFFCURVE",
"540 215 CURVE SMOOTH",
"525 276 OFFCURVE",
"484 307 OFFCURVE",
"423 330 CURVE SMOOTH",
"411 334 OFFCURVE",
"398 339 OFFCURVE",
"398 339 CURVE",
"398 339 OFFCURVE",
"435 365 OFFCURVE",
"461 388 CURVE SMOOTH",
"504 427 OFFCURVE",
"562 506 OFFCURVE",
"564 541 CURVE",
"565 615 OFFCURVE",
"513 660 OFFCURVE",
"424 668 CURVE",
"399 670 OFFCURVE",
"374 666 OFFCURVE",
"370 666 CURVE",
"370 660 OFFCURVE",
"357 661 OFFCURVE",
"351 661 CURVE SMOOTH",
"333 664 OFFCURVE",
"282 640 OFFCURVE",
"282 633 CURVE",
"281 627 OFFCURVE",
"287 621 OFFCURVE",
"287 615 CURVE",
"293 613 OFFCURVE",
"290 596 OFFCURVE",
"272 555 CURVE",
"224 446 OFFCURVE",
"116 177 OFFCURVE",
"99 127 CURVE SMOOTH",
"92 102 OFFCURVE",
"90 96 OFFCURVE",
"83 84 CURVE SMOOTH",
"69 60 OFFCURVE",
"74 43 OFFCURVE",
"85 25 CURVE",
"112 -14 OFFCURVE",
"121 -10 OFFCURVE",
"164 113 CURVE SMOOTH",
"222 276 OFFCURVE",
"215 263 OFFCURVE",
"234 269 CURVE",
"235 269 OFFCURVE",
"277 278 OFFCURVE",
"292 281 CURVE SMOOTH",
"372 302 OFFCURVE",
"432 282 OFFCURVE",
"466 235 CURVE SMOOTH",
"485 212 OFFCURVE",
"483 134 OFFCURVE",
"442 80 CURVE SMOOTH",
"405 34 OFFCURVE",
"365 3 OFFCURVE",
"309 -14 CURVE SMOOTH",
"259 -27 OFFCURVE",
"219 -21 OFFCURVE",
"193 3 CURVE SMOOTH",
"181 15 OFFCURVE",
"159 34 OFFCURVE",
"151 29 CURVE SMOOTH",
"115 6 OFFCURVE",
"139 -20 OFFCURVE",
"197 -57 CURVE SMOOTH"
);
},
{
closed = 1;
nodes = (
"246 335 OFFCURVE",
"260 372 OFFCURVE",
"284 429 CURVE",
"303 479 OFFCURVE",
"326 523 OFFCURVE",
"326 529 CURVE SMOOTH",
"326 529 OFFCURVE",
"333 537 OFFCURVE",
"335 547 CURVE",
"341 553 OFFCURVE",
"351 566 OFFCURVE",
"351 578 CURVE SMOOTH",
"351 593 OFFCURVE",
"360 599 OFFCURVE",
"378 604 CURVE",
"412 613 OFFCURVE",
"477 615 OFFCURVE",
"495 594 CURVE SMOOTH",
"512 577 OFFCURVE",
"511 558 OFFCURVE",
"481 510 CURVE",
"458 466 OFFCURVE",
"399 397 OFFCURVE",
"371 371 CURVE SMOOTH",
"357 357 OFFCURVE",
"344 352 OFFCURVE",
"337 348 CURVE SMOOTH",
"316 340 OFFCURVE",
"246 328 OFFCURVE",
"246 328 CURVE"
);
}
);
width = 512;
},
{
background = {
paths = (
{
closed = 1;
nodes = (
"378 665 OFFCURVE",
"365 666 OFFCURVE",
"359 666 CURVE",
"341 669 OFFCURVE",
"280 645 OFFCURVE",
"280 638 CURVE",
"279 632 OFFCURVE",
"285 626 OFFCURVE",
"285 620 CURVE",
"291 618 OFFCURVE",
"288 601 OFFCURVE",
"270 560 CURVE",
"222 451 OFFCURVE",
"114 182 OFFCURVE",
"97 132 CURVE",
"90 107 OFFCURVE",
"88 101 OFFCURVE",
"81 89 CURVE",
"67 65 OFFCURVE",
"82 43 OFFCURVE",
"93 25 CURVE",
"120 -14 OFFCURVE",
"134 -10 OFFCURVE",
"177 113 CURVE",
"235 276 OFFCURVE",
"228 253 OFFCURVE",
"247 259 CURVE",
"248 259 OFFCURVE",
"290 268 OFFCURVE",
"305 271 CURVE",
"385 292 OFFCURVE",
"435 272 OFFCURVE",
"469 225 CURVE",
"488 202 OFFCURVE",
"484 139 OFFCURVE",
"443 85 CURVE",
"406 39 OFFCURVE",
"378 13 OFFCURVE",
"322 -4 CURVE",
"272 -17 OFFCURVE",
"237 -11 OFFCURVE",
"211 13 CURVE",
"199 25 OFFCURVE",
"172 34 OFFCURVE",
"164 29 CURVE",
"128 6 OFFCURVE",
"142 -30 OFFCURVE",
"200 -67 CURVE",
"235 -89 OFFCURVE",
"318 -89 OFFCURVE",
"374 -64 CURVE",
"412 -50 OFFCURVE",
"456 -14 OFFCURVE",
"476 3 CURVE",
"495 26 OFFCURVE",
"523 71 OFFCURVE",
"524 76 CURVE",
"524 76 OFFCURVE",
"530 89 OFFCURVE",
"539 98 CURVE",
"552 128 OFFCURVE",
"568 184 OFFCURVE",
"561 215 CURVE",
"546 276 OFFCURVE",
"510 307 OFFCURVE",
"449 330 CURVE",
"437 334 OFFCURVE",
"424 339 OFFCURVE",
"424 339 CURVE",
"424 339 OFFCURVE",
"461 365 OFFCURVE",
"487 388 CURVE",
"530 427 OFFCURVE",
"578 501 OFFCURVE",
"580 536 CURVE",
"581 623 OFFCURVE",
"521 665 OFFCURVE",
"432 673 CURVE",
"407 675 OFFCURVE",
"382 671 OFFCURVE",
"378 671 CURVE"
);
},
{
closed = 1;
nodes = (
"510 563 OFFCURVE",
"509 546 OFFCURVE",
"479 498 CURVE",
"456 454 OFFCURVE",
"412 407 OFFCURVE",
"384 381 CURVE",
"370 367 OFFCURVE",
"357 362 OFFCURVE",
"350 358 CURVE",
"329 350 OFFCURVE",
"264 338 OFFCURVE",
"264 338 CURVE",
"264 345 OFFCURVE",
"273 372 OFFCURVE",
"297 429 CURVE",
"316 479 OFFCURVE",
"337 512 OFFCURVE",
"337 518 CURVE",
"337 518 OFFCURVE",
"346 527 OFFCURVE",
"348 537 CURVE",
"354 543 OFFCURVE",
"364 557 OFFCURVE",
"364 569 CURVE",
"364 584 OFFCURVE",
"373 590 OFFCURVE",
"391 595 CURVE",
"425 604 OFFCURVE",
"475 601 OFFCURVE",
"493 580 CURVE"
);
},
{
closed = 1;
nodes = (
"386 670 OFFCURVE",
"373 671 OFFCURVE",
"367 671 CURVE SMOOTH",
"349 674 OFFCURVE",
"278 650 OFFCURVE",
"278 643 CURVE",
"277 637 OFFCURVE",
"283 631 OFFCURVE",
"283 625 CURVE",
"289 623 OFFCURVE",
"286 606 OFFCURVE",
"268 565 CURVE",
"220 456 OFFCURVE",
"112 187 OFFCURVE",
"95 137 CURVE SMOOTH",
"88 112 OFFCURVE",
"86 106 OFFCURVE",
"79 94 CURVE SMOOTH",
"65 70 OFFCURVE",
"90 43 OFFCURVE",
"101 25 CURVE",
"128 -14 OFFCURVE",
"147 -10 OFFCURVE",
"190 113 CURVE SMOOTH",
"248 276 OFFCURVE",
"241 243 OFFCURVE",
"260 249 CURVE",
"261 249 OFFCURVE",
"303 258 OFFCURVE",
"318 261 CURVE SMOOTH",
"398 282 OFFCURVE",
"438 262 OFFCURVE",
"472 215 CURVE SMOOTH",
"491 192 OFFCURVE",
"485 144 OFFCURVE",
"444 90 CURVE SMOOTH",
"407 44 OFFCURVE",
"391 23 OFFCURVE",
"335 6 CURVE SMOOTH",
"285 -7 OFFCURVE",
"255 -1 OFFCURVE",
"229 23 CURVE SMOOTH",
"217 35 OFFCURVE",
"185 34 OFFCURVE",
"177 29 CURVE SMOOTH",
"141 6 OFFCURVE",
"145 -40 OFFCURVE",
"203 -77 CURVE SMOOTH",
"238 -99 OFFCURVE",
"326 -99 OFFCURVE",
"382 -74 CURVE SMOOTH",
"420 -60 OFFCURVE",
"478 -14 OFFCURVE",
"498 3 CURVE",
"517 26 OFFCURVE",
"545 71 OFFCURVE",
"546 76 CURVE",
"546 76 OFFCURVE",
"552 89 OFFCURVE",
"561 98 CURVE",
"574 128 OFFCURVE",
"590 184 OFFCURVE",
"583 215 CURVE SMOOTH",
"568 276 OFFCURVE",
"537 307 OFFCURVE",
"476 330 CURVE SMOOTH",
"464 334 OFFCURVE",
"451 339 OFFCURVE",
"451 339 CURVE",
"451 339 OFFCURVE",
"488 365 OFFCURVE",
"514 388 CURVE SMOOTH",
"557 427 OFFCURVE",
"595 496 OFFCURVE",
"597 531 CURVE",
"597 632 OFFCURVE",
"529 670 OFFCURVE",
"440 678 CURVE",
"415 680 OFFCURVE",
"390 676 OFFCURVE",
"386 676 CURVE"
);
},
{
closed = 1;
nodes = (
"508 550 OFFCURVE",
"508 535 OFFCURVE",
"478 487 CURVE",
"455 443 OFFCURVE",
"425 417 OFFCURVE",
"397 391 CURVE SMOOTH",
"383 377 OFFCURVE",
"370 372 OFFCURVE",
"363 368 CURVE SMOOTH",
"342 360 OFFCURVE",
"282 348 OFFCURVE",
"282 348 CURVE",
"282 355 OFFCURVE",
"286 372 OFFCURVE",
"310 429 CURVE",
"329 479 OFFCURVE",
"348 501 OFFCURVE",
"348 507 CURVE SMOOTH",
"348 507 OFFCURVE",
"359 518 OFFCURVE",
"361 528 CURVE",
"367 534 OFFCURVE",
"377 549 OFFCURVE",
"377 561 CURVE SMOOTH",
"377 576 OFFCURVE",
"386 582 OFFCURVE",
"404 587 CURVE",
"438 596 OFFCURVE",
"473 588 OFFCURVE",
"491 567 CURVE SMOOTH"
);
}
);
};
layerId = "C211B134-F0DF-4134-92B2-996AB8C0D30E";
paths = (
{
closed = 1;
nodes = (
"236 -94 OFFCURVE",
"322 -94 OFFCURVE",
"378 -69 CURVE",
"416 -55 OFFCURVE",
"467 -14 OFFCURVE",
"487 3 CURVE",
"506 26 OFFCURVE",
"534 71 OFFCURVE",
"535 76 CURVE",
"535 76 OFFCURVE",
"541 89 OFFCURVE",
"550 98 CURVE",
"563 128 OFFCURVE",
"579 184 OFFCURVE",
"572 215 CURVE",
"557 276 OFFCURVE",
"523 307 OFFCURVE",
"462 330 CURVE",
"450 334 OFFCURVE",
"437 339 OFFCURVE",
"437 339 CURVE",
"437 339 OFFCURVE",
"474 365 OFFCURVE",
"500 388 CURVE",
"543 427 OFFCURVE",
"586 498 OFFCURVE",
"588 533 CURVE",
"589 627 OFFCURVE",
"525 667 OFFCURVE",
"436 675 CURVE",
"411 677 OFFCURVE",
"386 673 OFFCURVE",
"382 673 CURVE",
"382 667 OFFCURVE",
"369 668 OFFCURVE",
"363 668 CURVE",
"345 671 OFFCURVE",
"279 647 OFFCURVE",
"279 640 CURVE",
"278 634 OFFCURVE",
"284 628 OFFCURVE",
"284 622 CURVE",
"290 620 OFFCURVE",
"287 603 OFFCURVE",
"269 562 CURVE",
"221 453 OFFCURVE",
"113 184 OFFCURVE",
"96 134 CURVE",
"89 109 OFFCURVE",
"87 103 OFFCURVE",
"80 91 CURVE",
"66 67 OFFCURVE",
"86 43 OFFCURVE",
"97 25 CURVE",
"124 -14 OFFCURVE",
"140 -10 OFFCURVE",
"183 113 CURVE",
"241 276 OFFCURVE",
"234 248 OFFCURVE",
"253 254 CURVE",
"254 254 OFFCURVE",
"296 263 OFFCURVE",
"311 266 CURVE",
"391 287 OFFCURVE",
"436 267 OFFCURVE",
"470 220 CURVE",
"489 197 OFFCURVE",
"484 141 OFFCURVE",
"443 87 CURVE",
"406 41 OFFCURVE",
"384 18 OFFCURVE",
"328 1 CURVE",
"278 -12 OFFCURVE",
"246 -6 OFFCURVE",
"220 18 CURVE",
"208 30 OFFCURVE",
"178 34 OFFCURVE",
"170 29 CURVE",
"134 6 OFFCURVE",
"143 -35 OFFCURVE",
"201 -72 CURVE"
);
},
{
closed = 1;
nodes = (
"273 350 OFFCURVE",
"279 372 OFFCURVE",
"303 429 CURVE",
"322 479 OFFCURVE",
"342 506 OFFCURVE",
"342 512 CURVE",
"342 512 OFFCURVE",
"352 522 OFFCURVE",
"354 532 CURVE",
"360 538 OFFCURVE",
"370 553 OFFCURVE",
"370 565 CURVE",
"370 580 OFFCURVE",
"379 586 OFFCURVE",
"397 591 CURVE",
"431 600 OFFCURVE",
"474 594 OFFCURVE",
"492 573 CURVE",
"509 556 OFFCURVE",
"508 540 OFFCURVE",
"478 492 CURVE",
"455 448 OFFCURVE",
"418 412 OFFCURVE",
"390 386 CURVE",
"376 372 OFFCURVE",
"363 367 OFFCURVE",
"356 363 CURVE",
"335 355 OFFCURVE",
"273 343 OFFCURVE",
"273 343 CURVE"
);
}
);
width = 521;
}
);
unicode = 0042;
},
{
glyphname = C;
layers = (
{
anchors = (
{
name = bottom;
position = "{201, -110}";
},
{
name = topUC;
position = "{526, 785}";
}
);
background = {
paths = (
{
closed = 1;
nodes = (
"336 601 OFFCURVE",
"324 596 OFFCURVE",
"248 482 CURVE SMOOTH",
"223 446 OFFCURVE",
"198 404 OFFCURVE",
"188 381 CURVE SMOOTH",
"179 363 OFFCURVE",
"159 312 OFFCURVE",
"156 306 CURVE SMOOTH",
"135 252 OFFCURVE",
"125 206 OFFCURVE",
"125 137 CURVE SMOOTH",
"124 88 OFFCURVE",
"127 53 OFFCURVE",
"141 15 CURVE SMOOTH",
"160 -33 OFFCURVE",
"194 -45 OFFCURVE",
"224 -56 CURVE",
"275 -67 OFFCURVE",
"353 -31 OFFCURVE",
"396 1 CURVE",
"414 8 OFFCURVE",
"433 21 OFFCURVE",
"444 32 CURVE",
"476 51 OFFCURVE",
"499 75 OFFCURVE",
"499 94 CURVE SMOOTH",
"499 105 OFFCURVE",
"499 105 OFFCURVE",
"481 99 CURVE",
"469 99 OFFCURVE",
"450 88 OFFCURVE",
"439 80 CURVE",
"426 68 OFFCURVE",
"397 50 OFFCURVE",
"365 37 CURVE SMOOTH",
"304 11 OFFCURVE",
"244 -14 OFFCURVE",
"219 5 CURVE",
"188 34 OFFCURVE",
"181 148 OFFCURVE",
"204 241 CURVE",
"211 255 OFFCURVE",
"217 282 OFFCURVE",
"216 287 CURVE SMOOTH",
"216 287 OFFCURVE",
"224 307 OFFCURVE",
"227 313 CURVE SMOOTH",
"246 370 OFFCURVE",
"281 420 OFFCURVE",
"335 491 CURVE SMOOTH",
"376 547 OFFCURVE",
"432 599 OFFCURVE",
"463 612 CURVE",
"486 624 OFFCURVE",
"494 624 OFFCURVE",
"499 619 CURVE SMOOTH",
"511 607 OFFCURVE",
"505 589 OFFCURVE",
"494 533 CURVE",
"486 508 OFFCURVE",
"455 454 OFFCURVE",
"444 441 CURVE",
"438 440 OFFCURVE",
"438 440 OFFCURVE",
"450 417 CURVE",
"469 400 OFFCURVE",
"480 394 OFFCURVE",
"498 410 CURVE",
"553 461 OFFCURVE",
"588 577 OFFCURVE",
"558 632 CURVE",
"535 680 OFFCURVE",
"470 695 OFFCURVE",
"426 663 CURVE SMOOTH"
);
}
);
};
layerId = "5B238DC5-4F6F-4A74-B879-7A3E5189648B";
paths = (
{
closed = 1;
nodes = (
"275 -67 OFFCURVE",
"353 -31 OFFCURVE",
"396 1 CURVE",
"414 8 OFFCURVE",
"433 21 OFFCURVE",
"444 32 CURVE",
"476 51 OFFCURVE",
"499 75 OFFCURVE",
"499 94 CURVE SMOOTH",
"499 105 OFFCURVE",
"499 105 OFFCURVE",
"481 99 CURVE",
"469 99 OFFCURVE",
"450 88 OFFCURVE",
"439 80 CURVE",
"426 68 OFFCURVE",
"397 50 OFFCURVE",
"365 37 CURVE SMOOTH",
"304 11 OFFCURVE",
"244 -14 OFFCURVE",
"219 5 CURVE",
"188 34 OFFCURVE",
"181 148 OFFCURVE",
"204 241 CURVE",
"211 255 OFFCURVE",
"217 282 OFFCURVE",
"216 287 CURVE SMOOTH",
"216 287 OFFCURVE",
"224 307 OFFCURVE",
"227 313 CURVE SMOOTH",
"246 370 OFFCURVE",
"281 420 OFFCURVE",
"335 491 CURVE SMOOTH",
"376 547 OFFCURVE",
"432 599 OFFCURVE",
"463 612 CURVE",
"486 624 OFFCURVE",
"494 624 OFFCURVE",
"499 619 CURVE SMOOTH",
"511 607 OFFCURVE",
"505 589 OFFCURVE",
"494 533 CURVE",
"486 508 OFFCURVE",
"455 454 OFFCURVE",
"444 441 CURVE",
"438 440 OFFCURVE",
"438 440 OFFCURVE",
"450 417 CURVE",
"469 400 OFFCURVE",
"480 394 OFFCURVE",
"498 410 CURVE",
"553 461 OFFCURVE",
"588 577 OFFCURVE",
"558 632 CURVE",
"535 680 OFFCURVE",
"470 695 OFFCURVE",
"426 663 CURVE SMOOTH",
"336 601 OFFCURVE",
"324 596 OFFCURVE",
"248 482 CURVE SMOOTH",
"223 446 OFFCURVE",
"198 404 OFFCURVE",
"188 381 CURVE SMOOTH",
"179 363 OFFCURVE",
"159 312 OFFCURVE",
"156 306 CURVE SMOOTH",
"135 252 OFFCURVE",
"125 206 OFFCURVE",
"125 137 CURVE SMOOTH",
"124 88 OFFCURVE",
"127 53 OFFCURVE",
"141 15 CURVE SMOOTH",
"160 -33 OFFCURVE",
"194 -45 OFFCURVE",
"224 -56 CURVE"
);
}
);
width = 482;
},
{
background = {
paths = (
{
closed = 1;
nodes = (
"336 613 OFFCURVE",
"319 599 OFFCURVE",
"243 485 CURVE",
"218 449 OFFCURVE",
"193 407 OFFCURVE",
"183 384 CURVE",
"174 366 OFFCURVE",
"154 315 OFFCURVE",
"151 309 CURVE",
"130 255 OFFCURVE",
"120 209 OFFCURVE",
"120 140 CURVE",
"119 91 OFFCURVE",
"122 56 OFFCURVE",
"136 18 CURVE",
"155 -30 OFFCURVE",
"201 -52 OFFCURVE",
"231 -63 CURVE",
"282 -74 OFFCURVE",
"360 -38 OFFCURVE",
"403 -6 CURVE",
"421 1 OFFCURVE",
"441 11 OFFCURVE",
"452 22 CURVE",
"484 41 OFFCURVE",
"513 69 OFFCURVE",
"513 88 CURVE",
"513 110 OFFCURVE",
"506 123 OFFCURVE",
"488 117 CURVE",
"476 117 OFFCURVE",
"457 106 OFFCURVE",
"446 98 CURVE",
"433 86 OFFCURVE",
"404 68 OFFCURVE",
"372 55 CURVE",
"311 29 OFFCURVE",
"259 4 OFFCURVE",
"234 23 CURVE",
"203 52 OFFCURVE",
"196 148 OFFCURVE",
"219 241 CURVE",
"226 255 OFFCURVE",
"232 282 OFFCURVE",
"231 287 CURVE",
"231 287 OFFCURVE",
"239 307 OFFCURVE",
"242 313 CURVE",
"261 370 OFFCURVE",
"296 420 OFFCURVE",
"350 491 CURVE",
"391 547 OFFCURVE",
"439 594 OFFCURVE",
"470 607 CURVE",
"493 619 OFFCURVE",
"501 619 OFFCURVE",
"506 614 CURVE",
"518 602 OFFCURVE",
"512 589 OFFCURVE",
"501 533 CURVE",
"493 508 OFFCURVE",
"462 454 OFFCURVE",
"451 441 CURVE",
"445 440 OFFCURVE",
"445 440 OFFCURVE",
"457 417 CURVE",
"476 400 OFFCURVE",
"502 387 OFFCURVE",
"520 403 CURVE",
"575 454 OFFCURVE",
"615 580 OFFCURVE",
"585 635 CURVE",
"556 704 OFFCURVE",
"470 707 OFFCURVE",
"426 675 CURVE"
);
},
{
closed = 1;
nodes = (
"337 626 OFFCURVE",
"315 602 OFFCURVE",
"239 488 CURVE SMOOTH",
"214 452 OFFCURVE",
"189 410 OFFCURVE",
"179 387 CURVE SMOOTH",
"170 369 OFFCURVE",
"150 318 OFFCURVE",
"147 312 CURVE SMOOTH",
"126 258 OFFCURVE",
"116 212 OFFCURVE",
"116 143 CURVE SMOOTH",
"115 94 OFFCURVE",
"118 59 OFFCURVE",
"132 21 CURVE SMOOTH",
"151 -27 OFFCURVE",
"209 -58 OFFCURVE",
"239 -69 CURVE",
"290 -80 OFFCURVE",
"368 -44 OFFCURVE",
"411 -12 CURVE",
"429 -5 OFFCURVE",
"449 1 OFFCURVE",
"460 12 CURVE",
"492 31 OFFCURVE",
"528 63 OFFCURVE",
"528 82 CURVE SMOOTH",
"528 115 OFFCURVE",
"514 142 OFFCURVE",
"496 136 CURVE",
"484 136 OFFCURVE",
"465 125 OFFCURVE",
"454 117 CURVE",
"441 105 OFFCURVE",
"412 87 OFFCURVE",
"380 74 CURVE SMOOTH",
"319 48 OFFCURVE",
"274 23 OFFCURVE",
"249 42 CURVE",
"218 71 OFFCURVE",
"211 148 OFFCURVE",
"234 241 CURVE",
"241 255 OFFCURVE",
"247 282 OFFCURVE",
"246 287 CURVE SMOOTH",
"246 287 OFFCURVE",
"254 307 OFFCURVE",
"257 313 CURVE SMOOTH",
"276 370 OFFCURVE",
"311 420 OFFCURVE",
"365 491 CURVE SMOOTH",
"406 547 OFFCURVE",
"447 589 OFFCURVE",
"478 602 CURVE",
"501 614 OFFCURVE",
"509 614 OFFCURVE",
"514 609 CURVE SMOOTH",
"526 597 OFFCURVE",
"520 589 OFFCURVE",
"509 533 CURVE",
"501 508 OFFCURVE",
"470 454 OFFCURVE",
"459 441 CURVE",
"453 440 OFFCURVE",
"453 440 OFFCURVE",
"465 417 CURVE",
"484 400 OFFCURVE",
"525 381 OFFCURVE",
"543 397 CURVE",
"598 448 OFFCURVE",
"643 583 OFFCURVE",
"613 638 CURVE",
"577 729 OFFCURVE",
"471 720 OFFCURVE",
"427 688 CURVE"
);
}
);
};
layerId = "C211B134-F0DF-4134-92B2-996AB8C0D30E";
paths = (
{
closed = 1;
nodes = (
"286 -77 OFFCURVE",
"364 -41 OFFCURVE",
"407 -9 CURVE",
"425 -2 OFFCURVE",
"445 6 OFFCURVE",
"456 17 CURVE",
"488 36 OFFCURVE",
"520 66 OFFCURVE",
"520 85 CURVE",
"520 112 OFFCURVE",
"510 132 OFFCURVE",
"492 126 CURVE",
"480 126 OFFCURVE",
"461 115 OFFCURVE",
"450 107 CURVE",
"437 95 OFFCURVE",
"408 77 OFFCURVE",
"376 64 CURVE",
"315 38 OFFCURVE",
"266 13 OFFCURVE",
"241 32 CURVE",
"210 61 OFFCURVE",
"203 148 OFFCURVE",
"226 241 CURVE",
"233 255 OFFCURVE",
"239 282 OFFCURVE",
"238 287 CURVE",
"238 287 OFFCURVE",
"246 307 OFFCURVE",
"249 313 CURVE",
"268 370 OFFCURVE",
"303 420 OFFCURVE",
"357 491 CURVE",
"398 547 OFFCURVE",
"443 591 OFFCURVE",
"474 604 CURVE",
"497 616 OFFCURVE",
"505 616 OFFCURVE",
"510 611 CURVE",
"522 599 OFFCURVE",
"516 589 OFFCURVE",
"505 533 CURVE",
"497 508 OFFCURVE",
"466 454 OFFCURVE",
"455 441 CURVE",
"449 440 OFFCURVE",
"449 440 OFFCURVE",
"461 417 CURVE",
"480 400 OFFCURVE",
"513 384 OFFCURVE",
"531 400 CURVE",
"586 451 OFFCURVE",
"629 581 OFFCURVE",
"599 636 CURVE",
"566 716 OFFCURVE",
"470 713 OFFCURVE",
"426 681 CURVE",
"336 619 OFFCURVE",
"317 600 OFFCURVE",
"241 486 CURVE",
"216 450 OFFCURVE",
"191 408 OFFCURVE",
"181 385 CURVE",
"172 367 OFFCURVE",
"152 316 OFFCURVE",
"149 310 CURVE",
"128 256 OFFCURVE",
"118 210 OFFCURVE",
"118 141 CURVE",
"117 92 OFFCURVE",
"120 57 OFFCURVE",
"134 19 CURVE",
"153 -29 OFFCURVE",
"205 -55 OFFCURVE",
"235 -66 CURVE"
);
}
);
width = 491;
}
);
unicode = 0043;
},
{
glyphname = D;
layers = (
{
anchors = (
{
name = bottom;
position = "{280, -110}";
},
{
name = topUC;
position = "{574, 785}";
}
);
background = {
paths = (
{
closed = 1;
nodes = (
"301 708 OFFCURVE",
"219 691 OFFCURVE",
"217 676 CURVE",
"217 676 OFFCURVE",
"217 664 OFFCURVE",
"220 659 CURVE",
"223 646 OFFCURVE",
"254 625 OFFCURVE",
"267 629 CURVE",
"270 627 OFFCURVE",
"278 624 OFFCURVE",
"294 629 CURVE",
"305 624 LINE",
"298 591 LINE",
"277 540 OFFCURVE",
"263 495 OFFCURVE",
"257 478 CURVE",
"250 465 OFFCURVE",
"228 404 OFFCURVE",
"213 353 CURVE",
"204 321 OFFCURVE",
"197 299 OFFCURVE",
"193 289 CURVE SMOOTH",
"181 253 OFFCURVE",
"147 144 OFFCURVE",
"135 93 CURVE",
"124 54 OFFCURVE",
"127 47 OFFCURVE",
"131 33 CURVE",
"143 20 OFFCURVE",
"174 11 OFFCURVE",
"174 24 CURVE",
"178 28 OFFCURVE",
"178 28 OFFCURVE",
"178 28 CURVE",
"183 27 OFFCURVE",
"187 50 OFFCURVE",
"199 96 CURVE",
"210 182 OFFCURVE",
"216 211 OFFCURVE",
"231 234 CURVE",
"231 243 OFFCURVE",
"250 292 OFFCURVE",
"261 331 CURVE",
"307 456 OFFCURVE",
"370 637 OFFCURVE",
"380 640 CURVE SMOOTH",
"389 643 OFFCURVE",
"476 610 OFFCURVE",
"506 585 CURVE SMOOTH",
"570 530 OFFCURVE",
"608 462 OFFCURVE",
"581 323 CURVE",
"568 271 OFFCURVE",
"527 191 OFFCURVE",
"512 175 CURVE",
"512 167 OFFCURVE",
"508 161 OFFCURVE",
"506 149 CURVE",
"499 144 OFFCURVE",
"457 100 OFFCURVE",
"445 89 CURVE",
"434 85 OFFCURVE",
"426 82 OFFCURVE",
"424 77 CURVE",
"424 77 OFFCURVE",
"378 47 OFFCURVE",
"307 -1 CURVE",
"285 -18 OFFCURVE",
"232 -34 OFFCURVE",
"204 -39 CURVE SMOOTH",
"160 -45 OFFCURVE",
"136 -38 OFFCURVE",
"117 -18 CURVE",
"109 -8 OFFCURVE",
"99 0 OFFCURVE",
"95 2 CURVE",
"74 8 OFFCURVE",
"77 -22 OFFCURVE",
"99 -53 CURVE",
"119 -78 OFFCURVE",
"122 -85 OFFCURVE",
"143 -91 CURVE SMOOTH",
"184 -102 OFFCURVE",
"199 -99 OFFCURVE",
"225 -95 CURVE SMOOTH",
"254 -90 OFFCURVE",
"308 -67 OFFCURVE",
"318 -59 CURVE SMOOTH",
"331 -53 OFFCURVE",
"347 -48 OFFCURVE",
"360 -38 CURVE",
"412 -16 OFFCURVE",
"488 48 OFFCURVE",
"510 80 CURVE",
"510 85 OFFCURVE",
"513 84 OFFCURVE",
"513 84 CURVE",
"518 84 OFFCURVE",
"526 90 OFFCURVE",
"528 100 CURVE",
"535 105 OFFCURVE",
"548 126 OFFCURVE",
"554 130 CURVE",
"562 140 OFFCURVE",
"565 144 OFFCURVE",
"565 149 CURVE",
"560 150 OFFCURVE",
"566 153 OFFCURVE",
"572 153 CURVE",
"592 187 OFFCURVE",
"623 248 OFFCURVE",
"628 301 CURVE",
"635 320 OFFCURVE",
"644 353 OFFCURVE",
"646 357 CURVE",
"640 359 OFFCURVE",
"642 369 OFFCURVE",
"645 374 CURVE",
"654 386 OFFCURVE",
"646 453 OFFCURVE",
"640 477 CURVE SMOOTH",
"619 565 OFFCURVE",
"531 648 OFFCURVE",
"468 672 CURVE SMOOTH",
"432 685 OFFCURVE",
"404 699 OFFCURVE",
"369 702 CURVE SMOOTH"
);
}
);
};
layerId = "5B238DC5-4F6F-4A74-B879-7A3E5189648B";
paths = (
{
closed = 1;
nodes = (
"254 -90 OFFCURVE",
"308 -67 OFFCURVE",
"318 -59 CURVE SMOOTH",
"331 -53 OFFCURVE",
"347 -48 OFFCURVE",
"360 -38 CURVE",
"412 -16 OFFCURVE",
"488 48 OFFCURVE",
"510 80 CURVE",
"510 85 OFFCURVE",
"513 84 OFFCURVE",
"513 84 CURVE",
"518 84 OFFCURVE",
"526 90 OFFCURVE",
"528 100 CURVE",
"535 105 OFFCURVE",
"548 126 OFFCURVE",
"554 130 CURVE",
"562 140 OFFCURVE",
"565 144 OFFCURVE",
"565 149 CURVE",
"560 150 OFFCURVE",
"566 153 OFFCURVE",
"572 153 CURVE",
"592 187 OFFCURVE",
"623 248 OFFCURVE",
"628 301 CURVE",
"635 320 OFFCURVE",
"644 353 OFFCURVE",
"646 357 CURVE",
"640 359 OFFCURVE",
"642 369 OFFCURVE",
"645 374 CURVE",
"654 386 OFFCURVE",
"646 453 OFFCURVE",
"640 477 CURVE SMOOTH",
"619 565 OFFCURVE",
"531 648 OFFCURVE",
"468 672 CURVE SMOOTH",
"432 685 OFFCURVE",
"404 699 OFFCURVE",
"369 702 CURVE SMOOTH",
"301 708 OFFCURVE",
"219 691 OFFCURVE",
"217 676 CURVE",
"217 676 OFFCURVE",
"217 664 OFFCURVE",
"220 659 CURVE",
"223 646 OFFCURVE",
"254 625 OFFCURVE",
"267 629 CURVE",
"270 627 OFFCURVE",
"278 624 OFFCURVE",
"294 629 CURVE",
"305 624 LINE",
"298 591 LINE",
"277 540 OFFCURVE",
"263 495 OFFCURVE",
"257 478 CURVE",
"250 465 OFFCURVE",
"228 404 OFFCURVE",
"213 353 CURVE",
"204 321 OFFCURVE",
"197 299 OFFCURVE",
"193 289 CURVE SMOOTH",
"181 253 OFFCURVE",
"147 144 OFFCURVE",
"135 93 CURVE",
"124 54 OFFCURVE",
"127 47 OFFCURVE",
"131 33 CURVE",
"143 20 OFFCURVE",
"174 11 OFFCURVE",
"174 24 CURVE",
"178 28 OFFCURVE",
"178 28 OFFCURVE",
"178 28 CURVE",
"183 27 OFFCURVE",
"187 50 OFFCURVE",
"199 96 CURVE",
"210 182 OFFCURVE",
"216 211 OFFCURVE",
"231 234 CURVE",
"231 243 OFFCURVE",
"250 292 OFFCURVE",
"261 331 CURVE",
"307 456 OFFCURVE",
"370 637 OFFCURVE",
"380 640 CURVE SMOOTH",
"389 643 OFFCURVE",
"476 610 OFFCURVE",
"506 585 CURVE SMOOTH",
"570 530 OFFCURVE",
"608 462 OFFCURVE",
"581 323 CURVE",
"568 271 OFFCURVE",
"527 191 OFFCURVE",
"512 175 CURVE",
"512 167 OFFCURVE",
"508 161 OFFCURVE",
"506 149 CURVE",
"499 144 OFFCURVE",
"457 100 OFFCURVE",
"445 89 CURVE",
"434 85 OFFCURVE",
"426 82 OFFCURVE",
"424 77 CURVE",
"424 77 OFFCURVE",
"378 47 OFFCURVE",
"307 -1 CURVE",
"285 -18 OFFCURVE",
"232 -34 OFFCURVE",
"204 -39 CURVE SMOOTH",
"160 -45 OFFCURVE",
"136 -38 OFFCURVE",
"117 -18 CURVE",
"109 -8 OFFCURVE",
"99 0 OFFCURVE",
"95 2 CURVE",
"74 8 OFFCURVE",
"77 -22 OFFCURVE",
"99 -53 CURVE",
"119 -78 OFFCURVE",
"122 -85 OFFCURVE",
"143 -91 CURVE SMOOTH",
"184 -102 OFFCURVE",
"199 -99 OFFCURVE",
"225 -95 CURVE SMOOTH"
);
}
);
width = 578;
},
{
background = {
paths = (
{
closed = 1;
nodes = (
"299 717 OFFCURVE",
"202 691 OFFCURVE",
"200 676 CURVE",
"200 676 OFFCURVE",
"200 664 OFFCURVE",
"203 659 CURVE",
"206 646 OFFCURVE",
"232 622 OFFCURVE",
"245 626 CURVE",
"248 624 OFFCURVE",
"256 621 OFFCURVE",
"272 626 CURVE",
"283 621 LINE",
"276 588 LINE",
"255 537 OFFCURVE",
"246 495 OFFCURVE",
"240 478 CURVE",
"233 465 OFFCURVE",
"211 404 OFFCURVE",
"196 353 CURVE",
"187 321 OFFCURVE",
"180 299 OFFCURVE",
"176 289 CURVE",
"164 253 OFFCURVE",
"132 160 OFFCURVE",
"120 109 CURVE",
"109 70 OFFCURVE",
"112 63 OFFCURVE",
"116 49 CURVE",
"143 8 OFFCURVE",
"189 2 OFFCURVE",
"189 15 CURVE",
"193 19 OFFCURVE",
"193 34 OFFCURVE",
"193 34 CURVE",
"198 33 OFFCURVE",
"202 56 OFFCURVE",
"214 102 CURVE",
"225 188 OFFCURVE",
"230 201 OFFCURVE",
"245 224 CURVE",
"245 233 OFFCURVE",
"264 282 OFFCURVE",
"275 321 CURVE",
"321 446 OFFCURVE",
"379 622 OFFCURVE",
"389 625 CURVE",
"398 628 OFFCURVE",
"482 592 OFFCURVE",
"512 567 CURVE",
"576 512 OFFCURVE",
"602 433 OFFCURVE",
"577 323 CURVE",
"564 271 OFFCURVE",
"523 191 OFFCURVE",
"508 175 CURVE",
"508 167 OFFCURVE",
"504 161 OFFCURVE",
"502 149 CURVE",
"495 144 OFFCURVE",
"454 99 OFFCURVE",
"442 88 CURVE",
"431 84 OFFCURVE",
"423 81 OFFCURVE",
"421 76 CURVE",
"421 76 OFFCURVE",
"387 45 OFFCURVE",
"316 -3 CURVE",
"294 -20 OFFCURVE",
"239 -43 OFFCURVE",
"211 -48 CURVE",
"167 -54 OFFCURVE",
"119 -31 OFFCURVE",
"100 -11 CURVE",
"92 -1 OFFCURVE",
"82 7 OFFCURVE",
"78 9 CURVE",
"57 15 OFFCURVE",
"38 -52 OFFCURVE",
"60 -83 CURVE",
"80 -108 OFFCURVE",
"83 -115 OFFCURVE",
"104 -121 CURVE",
"145 -132 OFFCURVE",
"182 -137 OFFCURVE",
"208 -133 CURVE",
"237 -128 OFFCURVE",
"323 -97 OFFCURVE",
"333 -89 CURVE",
"346 -83 OFFCURVE",
"362 -78 OFFCURVE",
"375 -68 CURVE",
"427 -46 OFFCURVE",
"515 32 OFFCURVE",
"537 64 CURVE",
"537 69 OFFCURVE",
"540 68 OFFCURVE",
"540 68 CURVE",
"545 68 OFFCURVE",
"553 74 OFFCURVE",
"555 84 CURVE",
"562 89 OFFCURVE",
"575 110 OFFCURVE",
"581 114 CURVE",
"589 124 OFFCURVE",
"592 128 OFFCURVE",
"592 133 CURVE",
"587 134 OFFCURVE",
"593 137 OFFCURVE",
"599 137 CURVE",
"619 171 OFFCURVE",
"656 256 OFFCURVE",
"661 309 CURVE",
"668 328 OFFCURVE",
"677 361 OFFCURVE",
"679 365 CURVE",
"673 367 OFFCURVE",
"675 377 OFFCURVE",
"678 382 CURVE",
"687 394 OFFCURVE",
"679 461 OFFCURVE",
"673 485 CURVE",
"652 573 OFFCURVE",
"559 655 OFFCURVE",
"496 679 CURVE",
"460 692 OFFCURVE",
"402 708 OFFCURVE",
"367 711 CURVE"
);
}
);
};
layerId = "C211B134-F0DF-4134-92B2-996AB8C0D30E";
paths = (
{
closed = 1;
nodes = (
"241 -101 OFFCURVE",
"323 -97 OFFCURVE",
"333 -89 CURVE",
"346 -83 OFFCURVE",
"362 -78 OFFCURVE",
"375 -68 CURVE",
"427 -46 OFFCURVE",
"515 32 OFFCURVE",
"537 64 CURVE",
"537 69 OFFCURVE",
"540 68 OFFCURVE",
"540 68 CURVE",
"545 68 OFFCURVE",
"553 74 OFFCURVE",
"555 84 CURVE",
"562 89 OFFCURVE",
"575 110 OFFCURVE",
"581 114 CURVE",
"589 124 OFFCURVE",
"592 128 OFFCURVE",
"592 133 CURVE",
"587 134 OFFCURVE",
"593 137 OFFCURVE",
"599 137 CURVE",
"619 171 OFFCURVE",
"656 256 OFFCURVE",
"661 309 CURVE",
"668 328 OFFCURVE",
"677 361 OFFCURVE",
"679 365 CURVE",
"673 367 OFFCURVE",
"675 377 OFFCURVE",
"678 382 CURVE",
"687 394 OFFCURVE",
"679 461 OFFCURVE",
"673 485 CURVE",
"652 573 OFFCURVE",
"559 655 OFFCURVE",
"496 679 CURVE",
"460 692 OFFCURVE",
"402 708 OFFCURVE",
"367 711 CURVE",
"299 717 OFFCURVE",
"202 691 OFFCURVE",
"200 676 CURVE",
"200 676 OFFCURVE",
"200 664 OFFCURVE",
"203 659 CURVE",
"206 646 OFFCURVE",
"232 622 OFFCURVE",
"245 626 CURVE",
"248 624 OFFCURVE",
"256 621 OFFCURVE",
"272 626 CURVE",
"283 621 LINE",
"276 588 LINE",
"255 537 OFFCURVE",
"246 495 OFFCURVE",
"240 478 CURVE",
"233 465 OFFCURVE",
"211 404 OFFCURVE",
"196 353 CURVE",
"187 321 OFFCURVE",
"180 299 OFFCURVE",
"176 289 CURVE",
"164 253 OFFCURVE",
"120 130 OFFCURVE",
"108 79 CURVE",
"97 40 OFFCURVE",
"102 10 OFFCURVE",
"106 -4 CURVE",
"133 -45 OFFCURVE",
"176 -41 OFFCURVE",
"176 -28 CURVE",
"180 -24 OFFCURVE",
"181 -6 OFFCURVE",
"181 -6 CURVE",
"186 -7 OFFCURVE",
"190 26 OFFCURVE",
"202 72 CURVE",
"213 158 OFFCURVE",
"230 201 OFFCURVE",
"245 224 CURVE",
"245 233 OFFCURVE",
"264 282 OFFCURVE",
"275 321 CURVE",
"321 446 OFFCURVE",
"379 622 OFFCURVE",
"389 625 CURVE",
"398 628 OFFCURVE",
"482 592 OFFCURVE",
"512 567 CURVE",
"576 512 OFFCURVE",
"602 433 OFFCURVE",
"577 323 CURVE",
"564 271 OFFCURVE",
"523 191 OFFCURVE",
"508 175 CURVE",
"508 167 OFFCURVE",
"504 161 OFFCURVE",
"502 149 CURVE",
"495 144 OFFCURVE",
"454 99 OFFCURVE",
"442 88 CURVE",
"431 84 OFFCURVE",
"423 81 OFFCURVE",
"421 76 CURVE",
"421 76 OFFCURVE",
"387 45 OFFCURVE",
"316 -3 CURVE",
"294 -20 OFFCURVE",
"243 -16 OFFCURVE",
"215 -21 CURVE",
"171 -27 OFFCURVE",
"109 34 OFFCURVE",
"82 30 CURVE SMOOTH",
"45 24 OFFCURVE",
"44 -26 OFFCURVE",
"64 -56 CURVE",
"84 -81 OFFCURVE",
"87 -88 OFFCURVE",
"108 -94 CURVE",
"149 -105 OFFCURVE",
"186 -110 OFFCURVE",
"212 -106 CURVE"
);
}
);
width = 587;
}
);
unicode = 0044;
},
{
glyphname = Eth;
layers = (
{
anchors = (
{
name = bottom;
position = "{280, -110}";
},
{
name = topUC;
position = "{574, 785}";
}
);
layerId = "5B238DC5-4F6F-4A74-B879-7A3E5189648B";
paths = (
{
closed = 1;
nodes = (
"654 386 OFFCURVE",
"646 453 OFFCURVE",
"640 477 CURVE SMOOTH",
"619 565 OFFCURVE",
"531 648 OFFCURVE",
"468 672 CURVE SMOOTH",
"432 685 OFFCURVE",
"404 699 OFFCURVE",
"369 702 CURVE SMOOTH",
"301 708 OFFCURVE",
"219 691 OFFCURVE",
"217 676 CURVE",
"217 676 OFFCURVE",
"217 664 OFFCURVE",
"220 659 CURVE",
"223 646 OFFCURVE",
"254 625 OFFCURVE",
"267 629 CURVE",
"270 627 OFFCURVE",
"278 624 OFFCURVE",
"294 629 CURVE",
"305 624 LINE",
"298 591 LINE",
"277 540 OFFCURVE",
"263 495 OFFCURVE",
"257 478 CURVE",
"250 465 OFFCURVE",
"228 404 OFFCURVE",
"213 353 CURVE",
"212 351 OFFCURVE",
"212 349 OFFCURVE",
"211 347 CURVE",
"195 345 OFFCURVE",
"179 343 OFFCURVE",
"160 340 CURVE",
"114 335 OFFCURVE",
"107 330 OFFCURVE",
"119 310 CURVE SMOOTH",
"124 301 OFFCURVE",
"128 298 OFFCURVE",
"148 298 CURVE",
"160 294 OFFCURVE",
"172 294 OFFCURVE",
"180 294 CURVE SMOOTH",
"195 294 LINE",
"194 292 OFFCURVE",
"194 290 OFFCURVE",
"193 289 CURVE",
"181 253 OFFCURVE",
"147 144 OFFCURVE",
"135 93 CURVE",
"124 54 OFFCURVE",
"127 47 OFFCURVE",
"131 33 CURVE",
"143 20 OFFCURVE",
"174 11 OFFCURVE",
"174 24 CURVE",
"178 28 LINE",
"183 27 OFFCURVE",
"187 50 OFFCURVE",
"199 96 CURVE",
"210 182 OFFCURVE",
"216 211 OFFCURVE",
"231 234 CURVE",
"231 241 OFFCURVE",
"241 268 OFFCURVE",
"251 297 CURVE",
"255 298 OFFCURVE",
"259 298 OFFCURVE",
"262 298 CURVE SMOOTH",
"286 298 OFFCURVE",
"312 300 OFFCURVE",
"322 301 CURVE",
"351 298 OFFCURVE",
"355 319 OFFCURVE",
"338 339 CURVE",
"323 350 OFFCURVE",
"317 351 OFFCURVE",
"286 351 CURVE SMOOTH",
"268 351 LINE",
"313 474 OFFCURVE",
"371 637 OFFCURVE",
"380 640 CURVE SMOOTH",
"389 643 OFFCURVE",
"476 610 OFFCURVE",
"506 585 CURVE SMOOTH",
"570 530 OFFCURVE",
"608 462 OFFCURVE",
"581 323 CURVE",
"568 271 OFFCURVE",
"527 191 OFFCURVE",
"512 175 CURVE",
"512 167 OFFCURVE",
"508 161 OFFCURVE",
"506 149 CURVE",
"499 144 OFFCURVE",
"457 100 OFFCURVE",
"445 89 CURVE",
"434 85 OFFCURVE",
"426 82 OFFCURVE",
"424 77 CURVE",
"424 77 OFFCURVE",
"378 47 OFFCURVE",
"307 -1 CURVE",
"285 -18 OFFCURVE",
"232 -34 OFFCURVE",
"204 -39 CURVE",
"160 -45 OFFCURVE",
"136 -38 OFFCURVE",
"117 -18 CURVE",
"109 -8 OFFCURVE",
"99 0 OFFCURVE",
"95 2 CURVE",
"74 8 OFFCURVE",
"77 -22 OFFCURVE",
"99 -53 CURVE",
"119 -78 OFFCURVE",
"122 -85 OFFCURVE",
"143 -91 CURVE SMOOTH",
"184 -102 OFFCURVE",
"199 -99 OFFCURVE",
"225 -95 CURVE SMOOTH",
"254 -90 OFFCURVE",
"308 -67 OFFCURVE",
"318 -59 CURVE",
"331 -53 OFFCURVE",
"347 -48 OFFCURVE",
"360 -38 CURVE",
"412 -16 OFFCURVE",
"488 48 OFFCURVE",
"510 80 CURVE",
"510 85 OFFCURVE",
"513 84 OFFCURVE",
"513 84 CURVE",
"518 84 OFFCURVE",
"526 90 OFFCURVE",
"528 100 CURVE",
"535 105 OFFCURVE",
"548 126 OFFCURVE",
"554 130 CURVE",
"562 140 OFFCURVE",
"565 144 OFFCURVE",
"565 149 CURVE",
"560 150 OFFCURVE",
"566 153 OFFCURVE",
"572 153 CURVE",
"592 187 OFFCURVE",
"623 248 OFFCURVE",
"628 301 CURVE",
"635 320 OFFCURVE",
"644 353 OFFCURVE",
"646 357 CURVE",
"640 359 OFFCURVE",
"642 369 OFFCURVE",
"645 374 CURVE"
);
}
);
width = 578;
},
{
layerId = "C211B134-F0DF-4134-92B2-996AB8C0D30E";
paths = (
{
closed = 1;
nodes = (
"683 394 OFFCURVE",
"675 461 OFFCURVE",
"669 485 CURVE SMOOTH",
"648 573 OFFCURVE",
"555 655 OFFCURVE",
"492 679 CURVE SMOOTH",
"456 692 OFFCURVE",
"398 708 OFFCURVE",
"363 711 CURVE SMOOTH",
"295 717 OFFCURVE",
"198 691 OFFCURVE",
"196 676 CURVE",
"196 676 OFFCURVE",
"196 664 OFFCURVE",
"199 659 CURVE",
"202 646 OFFCURVE",
"228 622 OFFCURVE",
"241 626 CURVE",
"244 624 OFFCURVE",
"252 621 OFFCURVE",
"268 626 CURVE",
"279 621 LINE",
"272 588 LINE",
"251 537 OFFCURVE",
"242 495 OFFCURVE",
"236 478 CURVE",
"229 465 OFFCURVE",
"207 404 OFFCURVE",
"192 353 CURVE",
"181 351 OFFCURVE",
"170 349 OFFCURVE",
"157 346 CURVE",
"108 341 OFFCURVE",
"92 330 OFFCURVE",
"106 310 CURVE",
"111 301 OFFCURVE",
"122 291 OFFCURVE",
"142 291 CURVE",
"154 287 OFFCURVE",
"163 286 OFFCURVE",
"171 286 CURVE",
"158 247 OFFCURVE",
"116 129 OFFCURVE",
"104 79 CURVE",
"98 58 OFFCURVE",
"97 40 OFFCURVE",
"97 26 CURVE",
"90 29 OFFCURVE",
"83 31 OFFCURVE",
"78 30 CURVE",
"41 24 OFFCURVE",
"40 -26 OFFCURVE",
"60 -56 CURVE",
"80 -81 OFFCURVE",
"83 -88 OFFCURVE",
"104 -94 CURVE SMOOTH",
"145 -105 OFFCURVE",
"182 -110 OFFCURVE",
"208 -106 CURVE SMOOTH",
"237 -101 OFFCURVE",
"319 -97 OFFCURVE",
"329 -89 CURVE",
"342 -83 OFFCURVE",
"358 -78 OFFCURVE",
"371 -68 CURVE",
"423 -46 OFFCURVE",
"511 32 OFFCURVE",
"533 64 CURVE",
"533 69 OFFCURVE",
"536 68 OFFCURVE",
"536 68 CURVE",
"541 68 OFFCURVE",
"549 74 OFFCURVE",
"551 84 CURVE",
"558 89 OFFCURVE",
"571 110 OFFCURVE",
"577 114 CURVE",
"585 124 OFFCURVE",
"588 128 OFFCURVE",
"588 133 CURVE",
"583 134 OFFCURVE",
"589 137 OFFCURVE",
"595 137 CURVE",
"615 171 OFFCURVE",
"652 256 OFFCURVE",
"657 309 CURVE",
"664 328 OFFCURVE",
"673 361 OFFCURVE",
"675 365 CURVE",
"669 367 OFFCURVE",
"671 377 OFFCURVE",
"674 382 CURVE"
);
},
{
closed = 1;
nodes = (
"560 271 OFFCURVE",
"519 191 OFFCURVE",
"504 175 CURVE",
"504 167 OFFCURVE",
"500 161 OFFCURVE",
"498 149 CURVE",
"491 144 OFFCURVE",
"450 99 OFFCURVE",
"438 88 CURVE",
"427 84 OFFCURVE",
"419 81 OFFCURVE",
"417 76 CURVE",
"417 76 OFFCURVE",
"383 45 OFFCURVE",
"312 -3 CURVE",
"290 -20 OFFCURVE",
"239 -16 OFFCURVE",
"211 -21 CURVE",
"200 -22 OFFCURVE",
"188 -20 OFFCURVE",
"176 -15 CURVE",
"177 -10 OFFCURVE",
"177 -6 OFFCURVE",
"177 -6 CURVE",
"182 -7 OFFCURVE",
"186 26 OFFCURVE",
"198 72 CURVE",
"209 158 OFFCURVE",
"226 201 OFFCURVE",
"241 224 CURVE",
"241 231 OFFCURVE",
"252 260 OFFCURVE",
"262 291 CURVE",
"286 292 OFFCURVE",
"318 294 OFFCURVE",
"327 295 CURVE",
"357 291 OFFCURVE",
"370 320 OFFCURVE",
"350 340 CURVE",
"336 352 OFFCURVE",
"316 359 OFFCURVE",
"285 360 CURVE",
"328 480 OFFCURVE",
"376 622 OFFCURVE",
"385 625 CURVE SMOOTH",
"394 628 OFFCURVE",
"478 592 OFFCURVE",
"508 567 CURVE SMOOTH",
"572 512 OFFCURVE",
"598 433 OFFCURVE",
"573 323 CURVE SMOOTH"
);
}
);
width = 578;
}
);
unicode = 00D0;
},
{
glyphname = Dcroat;
layers = (
{
anchors = (
{
name = bottom;
position = "{280, -110}";
},
{
name = topUC;
position = "{574, 785}";
}
);
layerId = "5B238DC5-4F6F-4A74-B879-7A3E5189648B";
paths = (
{
closed = 1;
nodes = (
"654 386 OFFCURVE",
"646 453 OFFCURVE",
"640 477 CURVE SMOOTH",
"619 565 OFFCURVE",
"531 648 OFFCURVE",
"468 672 CURVE SMOOTH",
"432 685 OFFCURVE",
"404 699 OFFCURVE",
"369 702 CURVE SMOOTH",
"301 708 OFFCURVE",
"219 691 OFFCURVE",
"217 676 CURVE",
"217 676 OFFCURVE",
"217 664 OFFCURVE",
"220 659 CURVE",
"223 646 OFFCURVE",
"254 625 OFFCURVE",
"267 629 CURVE",
"270 627 OFFCURVE",
"278 624 OFFCURVE",
"294 629 CURVE",
"305 624 LINE",
"298 591 LINE",
"277 540 OFFCURVE",
"263 495 OFFCURVE",
"257 478 CURVE",
"250 465 OFFCURVE",
"228 404 OFFCURVE",
"213 353 CURVE",
"212 351 OFFCURVE",
"212 349 OFFCURVE",
"211 347 CURVE",
"195 345 OFFCURVE",
"179 343 OFFCURVE",
"160 340 CURVE",
"114 335 OFFCURVE",
"107 330 OFFCURVE",
"119 310 CURVE SMOOTH",
"124 301 OFFCURVE",
"128 298 OFFCURVE",
"148 298 CURVE",
"160 294 OFFCURVE",
"172 294 OFFCURVE",
"180 294 CURVE SMOOTH",
"195 294 LINE",
"194 292 OFFCURVE",
"194 290 OFFCURVE",
"193 289 CURVE",
"181 253 OFFCURVE",
"147 144 OFFCURVE",
"135 93 CURVE",
"124 54 OFFCURVE",
"127 47 OFFCURVE",
"131 33 CURVE",
"143 20 OFFCURVE",
"174 11 OFFCURVE",
"174 24 CURVE",
"178 28 LINE",
"183 27 OFFCURVE",
"187 50 OFFCURVE",
"199 96 CURVE",
"210 182 OFFCURVE",
"216 211 OFFCURVE",
"231 234 CURVE",
"231 241 OFFCURVE",
"241 268 OFFCURVE",
"251 297 CURVE",
"255 298 OFFCURVE",
"259 298 OFFCURVE",
"262 298 CURVE SMOOTH",
"286 298 OFFCURVE",
"312 300 OFFCURVE",
"322 301 CURVE",
"351 298 OFFCURVE",
"355 319 OFFCURVE",
"338 339 CURVE",
"323 350 OFFCURVE",
"317 351 OFFCURVE",
"286 351 CURVE SMOOTH",
"268 351 LINE",
"313 474 OFFCURVE",
"371 637 OFFCURVE",
"380 640 CURVE SMOOTH",
"389 643 OFFCURVE",
"476 610 OFFCURVE",
"506 585 CURVE SMOOTH",
"570 530 OFFCURVE",
"608 462 OFFCURVE",
"581 323 CURVE",
"568 271 OFFCURVE",
"527 191 OFFCURVE",
"512 175 CURVE",
"512 167 OFFCURVE",
"508 161 OFFCURVE",
"506 149 CURVE",
"499 144 OFFCURVE",
"457 100 OFFCURVE",
"445 89 CURVE",
"434 85 OFFCURVE",
"426 82 OFFCURVE",
"424 77 CURVE",
"424 77 OFFCURVE",
"378 47 OFFCURVE",
"307 -1 CURVE",
"285 -18 OFFCURVE",
"232 -34 OFFCURVE",
"204 -39 CURVE",
"160 -45 OFFCURVE",
"136 -38 OFFCURVE",
"117 -18 CURVE",
"109 -8 OFFCURVE",
"99 0 OFFCURVE",
"95 2 CURVE",
"74 8 OFFCURVE",
"77 -22 OFFCURVE",
"99 -53 CURVE",
"119 -78 OFFCURVE",
"122 -85 OFFCURVE",
"143 -91 CURVE SMOOTH",
"184 -102 OFFCURVE",
"199 -99 OFFCURVE",
"225 -95 CURVE SMOOTH",
"254 -90 OFFCURVE",
"308 -67 OFFCURVE",
"318 -59 CURVE",
"331 -53 OFFCURVE",
"347 -48 OFFCURVE",
"360 -38 CURVE",
"412 -16 OFFCURVE",
"488 48 OFFCURVE",
"510 80 CURVE",
"510 85 OFFCURVE",
"513 84 OFFCURVE",
"513 84 CURVE",
"518 84 OFFCURVE",
"526 90 OFFCURVE",
"528 100 CURVE",
"535 105 OFFCURVE",
"548 126 OFFCURVE",
"554 130 CURVE",
"562 140 OFFCURVE",
"565 144 OFFCURVE",
"565 149 CURVE",
"560 150 OFFCURVE",
"566 153 OFFCURVE",
"572 153 CURVE",
"592 187 OFFCURVE",
"623 248 OFFCURVE",
"628 301 CURVE",
"635 320 OFFCURVE",
"644 353 OFFCURVE",
"646 357 CURVE",
"640 359 OFFCURVE",
"642 369 OFFCURVE",
"645 374 CURVE"
);
}
);
width = 578;
},
{
layerId = "C211B134-F0DF-4134-92B2-996AB8C0D30E";
paths = (
{
closed = 1;
nodes = (
"683 394 OFFCURVE",
"675 461 OFFCURVE",
"669 485 CURVE SMOOTH",
"648 573 OFFCURVE",
"555 655 OFFCURVE",
"492 679 CURVE SMOOTH",
"456 692 OFFCURVE",
"398 708 OFFCURVE",
"363 711 CURVE SMOOTH",
"295 717 OFFCURVE",
"198 691 OFFCURVE",
"196 676 CURVE",
"196 676 OFFCURVE",
"196 664 OFFCURVE",
"199 659 CURVE",
"202 646 OFFCURVE",
"228 622 OFFCURVE",
"241 626 CURVE",
"244 624 OFFCURVE",
"252 621 OFFCURVE",
"268 626 CURVE",
"279 621 LINE",
"272 588 LINE",
"251 537 OFFCURVE",
"242 495 OFFCURVE",
"236 478 CURVE",
"229 465 OFFCURVE",
"207 404 OFFCURVE",
"192 353 CURVE",
"181 351 OFFCURVE",
"170 349 OFFCURVE",
"157 346 CURVE",
"108 341 OFFCURVE",
"92 330 OFFCURVE",
"106 310 CURVE",
"111 301 OFFCURVE",
"122 291 OFFCURVE",
"142 291 CURVE",
"154 287 OFFCURVE",
"163 286 OFFCURVE",
"171 286 CURVE",
"158 247 OFFCURVE",
"116 129 OFFCURVE",
"104 79 CURVE",
"98 58 OFFCURVE",
"97 40 OFFCURVE",
"97 26 CURVE",
"90 29 OFFCURVE",
"83 31 OFFCURVE",
"78 30 CURVE",
"41 24 OFFCURVE",
"40 -26 OFFCURVE",
"60 -56 CURVE",
"80 -81 OFFCURVE",
"83 -88 OFFCURVE",
"104 -94 CURVE SMOOTH",
"145 -105 OFFCURVE",
"182 -110 OFFCURVE",
"208 -106 CURVE SMOOTH",
"237 -101 OFFCURVE",
"319 -97 OFFCURVE",
"329 -89 CURVE",
"342 -83 OFFCURVE",
"358 -78 OFFCURVE",
"371 -68 CURVE",
"423 -46 OFFCURVE",
"511 32 OFFCURVE",
"533 64 CURVE",
"533 69 OFFCURVE",
"536 68 OFFCURVE",
"536 68 CURVE",
"541 68 OFFCURVE",
"549 74 OFFCURVE",
"551 84 CURVE",
"558 89 OFFCURVE",
"571 110 OFFCURVE",
"577 114 CURVE",
"585 124 OFFCURVE",
"588 128 OFFCURVE",
"588 133 CURVE",
"583 134 OFFCURVE",
"589 137 OFFCURVE",
"595 137 CURVE",
"615 171 OFFCURVE",
"652 256 OFFCURVE",
"657 309 CURVE",
"664 328 OFFCURVE",
"673 361 OFFCURVE",
"675 365 CURVE",
"669 367 OFFCURVE",
"671 377 OFFCURVE",
"674 382 CURVE"
);
},
{
closed = 1;
nodes = (
"560 271 OFFCURVE",
"519 191 OFFCURVE",
"504 175 CURVE",
"504 167 OFFCURVE",
"500 161 OFFCURVE",
"498 149 CURVE",
"491 144 OFFCURVE",
"450 99 OFFCURVE",
"438 88 CURVE",
"427 84 OFFCURVE",
"419 81 OFFCURVE",
"417 76 CURVE",
"417 76 OFFCURVE",
"383 45 OFFCURVE",
"312 -3 CURVE",
"290 -20 OFFCURVE",
"239 -16 OFFCURVE",
"211 -21 CURVE",
"200 -22 OFFCURVE",
"188 -20 OFFCURVE",
"176 -15 CURVE",
"177 -10 OFFCURVE",
"177 -6 OFFCURVE",
"177 -6 CURVE",
"182 -7 OFFCURVE",
"186 26 OFFCURVE",
"198 72 CURVE",
"209 158 OFFCURVE",
"226 201 OFFCURVE",
"241 224 CURVE",
"241 231 OFFCURVE",
"252 260 OFFCURVE",
"262 291 CURVE",
"286 292 OFFCURVE",
"318 294 OFFCURVE",
"327 295 CURVE",
"357 291 OFFCURVE",
"370 320 OFFCURVE",
"350 340 CURVE",
"336 352 OFFCURVE",
"316 359 OFFCURVE",
"285 360 CURVE",
"328 480 OFFCURVE",
"376 622 OFFCURVE",
"385 625 CURVE SMOOTH",
"394 628 OFFCURVE",
"478 592 OFFCURVE",
"508 567 CURVE SMOOTH",
"572 512 OFFCURVE",
"598 433 OFFCURVE",
"573 323 CURVE SMOOTH"
);
}
);
width = 578;
}
);
unicode = 0110;
},
{
glyphname = E;
layers = (
{
anchors = (
{
name = bottom;
position = "{234, -110}";
},
{
name = ogonek;
position = "{455, 40}";
},
{
name = topUC;
position = "{560, 785}";
}
);
background = {
paths = (
{
closed = 1;
nodes = (
"615 655 OFFCURVE",
"585 651 OFFCURVE",
"560 653 CURVE",
"526 649 OFFCURVE",
"499 645 OFFCURVE",
"493 637 CURVE",
"468 633 OFFCURVE",
"427 621 OFFCURVE",
"427 628 CURVE",
"422 643 OFFCURVE",
"386 642 OFFCURVE",
"354 617 CURVE",
"308 591 OFFCURVE",
"274 561 OFFCURVE",
"279 554 CURVE SMOOTH",
"285 546 OFFCURVE",
"285 533 OFFCURVE",
"265 512 CURVE",
"254 491 OFFCURVE",
"236 457 OFFCURVE",
"236 450 CURVE SMOOTH",
"236 450 OFFCURVE",
"239 451 OFFCURVE",
"230 442 CURVE",
"207 406 OFFCURVE",
"156 327 OFFCURVE",
"133 272 CURVE",
"116 236 OFFCURVE",
"94 155 OFFCURVE",
"103 118 CURVE SMOOTH",
"111 75 OFFCURVE",
"123 53 OFFCURVE",
"146 30 CURVE",
"181 6 OFFCURVE",
"209 -21 OFFCURVE",
"250 -24 CURVE",
"315 -23 OFFCURVE",
"405 -10 OFFCURVE",
"476 28 CURVE SMOOTH",
"542 65 OFFCURVE",
"572 113 OFFCURVE",
"561 133 CURVE SMOOTH",
"559 142 OFFCURVE",
"506 119 OFFCURVE",
"484 100 CURVE SMOOTH",
"471 86 OFFCURVE",
"462 79 OFFCURVE",
"466 86 CURVE",
"459 86 OFFCURVE",
"459 86 OFFCURVE",
"448 81 CURVE SMOOTH",
"441 76 OFFCURVE",
"394 58 OFFCURVE",
"316 45 CURVE",
"284 32 OFFCURVE",
"261 39 OFFCURVE",
"234 40 CURVE",
"189 53 OFFCURVE",
"177 69 OFFCURVE",
"166 100 CURVE SMOOTH",
"152 137 OFFCURVE",
"192 289 OFFCURVE",
"216 277 CURVE",
"213 250 OFFCURVE",
"273 258 OFFCURVE",
"347 279 CURVE",
"521 326 OFFCURVE",
"551 332 OFFCURVE",
"537 362 CURVE SMOOTH",
"526 382 OFFCURVE",
"507 394 OFFCURVE",
"488 380 CURVE",
"467 377 OFFCURVE",
"432 368 OFFCURVE",
"308 336 CURVE",
"296 333 OFFCURVE",
"273 332 OFFCURVE",
"260 325 CURVE",
"255 325 OFFCURVE",
"234 331 OFFCURVE",
"234 331 CURVE",
"228 338 OFFCURVE",
"261 380 OFFCURVE",
"299 432 CURVE",
"313 460 OFFCURVE",
"329 493 OFFCURVE",
"339 500 CURVE",
"368 546 OFFCURVE",
"384 556 OFFCURVE",
"435 566 CURVE SMOOTH",
"505 581 OFFCURVE",
"532 582 OFFCURVE",
"592 590 CURVE",
"647 596 OFFCURVE",
"658 607 OFFCURVE",
"649 631 CURVE",
"638 655 OFFCURVE",
"624 658 OFFCURVE",
"615 655 CURVE"
);
}
);
};
layerId = "5B238DC5-4F6F-4A74-B879-7A3E5189648B";
paths = (
{
closed = 1;
nodes = (
"315 -23 OFFCURVE",
"405 -10 OFFCURVE",
"476 28 CURVE SMOOTH",
"542 65 OFFCURVE",
"572 113 OFFCURVE",
"561 133 CURVE SMOOTH",
"559 142 OFFCURVE",
"506 119 OFFCURVE",
"484 100 CURVE SMOOTH",
"471 86 OFFCURVE",
"462 79 OFFCURVE",
"466 86 CURVE",
"459 86 OFFCURVE",
"459 86 OFFCURVE",
"448 81 CURVE SMOOTH",
"441 76 OFFCURVE",
"394 58 OFFCURVE",
"316 45 CURVE",
"284 32 OFFCURVE",
"261 39 OFFCURVE",
"234 40 CURVE",
"189 53 OFFCURVE",
"177 69 OFFCURVE",
"166 100 CURVE SMOOTH",
"152 137 OFFCURVE",
"192 289 OFFCURVE",
"216 277 CURVE",
"213 250 OFFCURVE",
"273 258 OFFCURVE",
"347 279 CURVE",
"521 326 OFFCURVE",
"551 332 OFFCURVE",
"537 362 CURVE SMOOTH",
"526 382 OFFCURVE",
"507 394 OFFCURVE",
"488 380 CURVE",
"467 377 OFFCURVE",
"432 368 OFFCURVE",
"308 336 CURVE",
"296 333 OFFCURVE",
"273 332 OFFCURVE",
"260 325 CURVE",
"255 325 OFFCURVE",
"234 331 OFFCURVE",
"234 331 CURVE",
"228 338 OFFCURVE",
"261 380 OFFCURVE",
"299 432 CURVE",
"313 460 OFFCURVE",
"329 493 OFFCURVE",
"339 500 CURVE",
"368 546 OFFCURVE",
"384 556 OFFCURVE",
"435 566 CURVE SMOOTH",
"505 581 OFFCURVE",
"532 582 OFFCURVE",
"592 590 CURVE",
"647 596 OFFCURVE",
"658 607 OFFCURVE",
"649 631 CURVE",
"638 655 OFFCURVE",
"624 658 OFFCURVE",
"615 655 CURVE",
"615 655 OFFCURVE",
"585 651 OFFCURVE",
"560 653 CURVE",
"526 649 OFFCURVE",
"499 645 OFFCURVE",
"493 637 CURVE",
"468 633 OFFCURVE",
"427 621 OFFCURVE",
"427 628 CURVE",
"422 643 OFFCURVE",
"386 642 OFFCURVE",
"354 617 CURVE",
"308 591 OFFCURVE",
"274 561 OFFCURVE",
"279 554 CURVE SMOOTH",
"285 546 OFFCURVE",
"285 533 OFFCURVE",
"265 512 CURVE",
"254 491 OFFCURVE",
"236 457 OFFCURVE",
"236 450 CURVE SMOOTH",
"236 450 OFFCURVE",
"239 451 OFFCURVE",
"230 442 CURVE",
"207 406 OFFCURVE",
"156 327 OFFCURVE",
"133 272 CURVE",
"116 236 OFFCURVE",
"94 155 OFFCURVE",
"103 118 CURVE SMOOTH",
"111 75 OFFCURVE",
"123 53 OFFCURVE",
"146 30 CURVE",
"181 6 OFFCURVE",
"209 -21 OFFCURVE",
"250 -24 CURVE"
);
}
);
width = 548;
},
{
background = {
paths = (
{
closed = 1;
nodes = (
"628 664 OFFCURVE",
"588 660 OFFCURVE",
"563 662 CURVE",
"529 658 OFFCURVE",
"502 654 OFFCURVE",
"496 646 CURVE",
"471 642 OFFCURVE",
"430 630 OFFCURVE",
"430 637 CURVE",
"425 652 OFFCURVE",
"389 651 OFFCURVE",
"357 626 CURVE",
"311 600 OFFCURVE",
"273 561 OFFCURVE",
"278 554 CURVE",
"284 546 OFFCURVE",
"284 533 OFFCURVE",
"264 512 CURVE",
"253 491 OFFCURVE",
"235 457 OFFCURVE",
"235 450 CURVE",
"235 450 OFFCURVE",
"238 451 OFFCURVE",
"229 442 CURVE",
"206 406 OFFCURVE",
"155 327 OFFCURVE",
"132 272 CURVE",
"115 236 OFFCURVE",
"93 150 OFFCURVE",
"102 113 CURVE",
"110 70 OFFCURVE",
"121 48 OFFCURVE",
"144 25 CURVE",
"179 1 OFFCURVE",
"217 -31 OFFCURVE",
"258 -34 CURVE",
"323 -33 OFFCURVE",
"413 -20 OFFCURVE",
"484 18 CURVE",
"550 55 OFFCURVE",
"590 113 OFFCURVE",
"579 133 CURVE",
"577 142 OFFCURVE",
"527 143 OFFCURVE",
"492 113 CURVE",
"478 100 OFFCURVE",
"470 92 OFFCURVE",
"474 99 CURVE",
"467 99 OFFCURVE",
"467 94 OFFCURVE",
"456 89 CURVE",
"449 84 OFFCURVE",
"417 66 OFFCURVE",
"339 53 CURVE",
"307 40 OFFCURVE",
"284 47 OFFCURVE",
"257 48 CURVE",
"212 61 OFFCURVE",
"194 81 OFFCURVE",
"183 112 CURVE",
"169 149 OFFCURVE",
"207 287 OFFCURVE",
"231 275 CURVE",
"228 248 OFFCURVE",
"281 256 OFFCURVE",
"355 277 CURVE",
"529 324 OFFCURVE",
"572 321 OFFCURVE",
"555 367 CURVE",
"546 388 OFFCURVE",
"525 407 OFFCURVE",
"506 393 CURVE",
"485 390 OFFCURVE",
"466 385 OFFCURVE",
"342 353 CURVE",
"330 350 OFFCURVE",
"307 349 OFFCURVE",
"294 342 CURVE",
"289 342 OFFCURVE",
"264 348 OFFCURVE",
"264 348 CURVE",
"258 355 OFFCURVE",
"282 384 OFFCURVE",
"320 436 CURVE",
"334 464 OFFCURVE",
"350 497 OFFCURVE",
"360 504 CURVE",
"389 550 OFFCURVE",
"407 551 OFFCURVE",
"458 561 CURVE",
"528 576 OFFCURVE",
"540 577 OFFCURVE",
"600 585 CURVE",
"655 591 OFFCURVE",
"676 607 OFFCURVE",
"667 631 CURVE",
"656 655 OFFCURVE",
"637 667 OFFCURVE",
"628 664 CURVE"
);
},
{
closed = 1;
nodes = (
"641 673 OFFCURVE",
"591 669 OFFCURVE",
"566 671 CURVE",
"532 667 OFFCURVE",
"505 663 OFFCURVE",
"499 655 CURVE",
"474 651 OFFCURVE",
"433 639 OFFCURVE",
"433 646 CURVE",
"428 661 OFFCURVE",
"392 660 OFFCURVE",
"360 635 CURVE",
"314 609 OFFCURVE",
"273 561 OFFCURVE",
"278 554 CURVE SMOOTH",
"284 546 OFFCURVE",
"284 533 OFFCURVE",
"264 512 CURVE",
"253 491 OFFCURVE",
"235 457 OFFCURVE",
"235 450 CURVE SMOOTH",
"235 450 OFFCURVE",
"238 451 OFFCURVE",
"229 442 CURVE",
"206 406 OFFCURVE",
"155 327 OFFCURVE",
"132 272 CURVE",
"115 236 OFFCURVE",
"93 145 OFFCURVE",
"102 108 CURVE",
"110 65 OFFCURVE",
"119 43 OFFCURVE",
"142 20 CURVE",
"177 -4 OFFCURVE",
"225 -41 OFFCURVE",
"266 -44 CURVE",
"331 -43 OFFCURVE",
"421 -30 OFFCURVE",
"492 8 CURVE",
"558 45 OFFCURVE",
"608 113 OFFCURVE",
"597 133 CURVE",
"595 142 OFFCURVE",
"549 168 OFFCURVE",
"500 126 CURVE SMOOTH",
"485 114 OFFCURVE",
"478 105 OFFCURVE",
"482 112 CURVE",
"475 112 OFFCURVE",
"475 102 OFFCURVE",
"464 97 CURVE",
"457 92 OFFCURVE",
"440 74 OFFCURVE",
"362 61 CURVE",
"330 48 OFFCURVE",
"307 55 OFFCURVE",
"280 56 CURVE",
"235 69 OFFCURVE",
"211 93 OFFCURVE",
"200 124 CURVE SMOOTH",
"186 161 OFFCURVE",
"222 285 OFFCURVE",
"246 273 CURVE",
"243 246 OFFCURVE",
"289 254 OFFCURVE",
"363 275 CURVE",
"537 322 OFFCURVE",
"594 310 OFFCURVE",
"573 372 CURVE SMOOTH",
"566 394 OFFCURVE",
"543 421 OFFCURVE",
"524 407 CURVE",
"503 404 OFFCURVE",
"501 403 OFFCURVE",
"377 371 CURVE SMOOTH",
"365 368 OFFCURVE",
"342 367 OFFCURVE",
"329 360 CURVE",
"324 360 OFFCURVE",
"294 366 OFFCURVE",
"294 366 CURVE",
"288 373 OFFCURVE",
"303 388 OFFCURVE",
"341 440 CURVE",
"355 468 OFFCURVE",
"371 501 OFFCURVE",
"381 508 CURVE",
"410 554 OFFCURVE",
"430 546 OFFCURVE",
"481 556 CURVE SMOOTH",
"551 571 OFFCURVE",
"548 572 OFFCURVE",
"608 580 CURVE",
"663 586 OFFCURVE",
"694 607 OFFCURVE",
"685 631 CURVE",
"674 655 OFFCURVE",
"650 676 OFFCURVE",
"641 673 CURVE"
);
}
);
};
layerId = "C211B134-F0DF-4134-92B2-996AB8C0D30E";
paths = (
{
closed = 1;
nodes = (
"327 -38 OFFCURVE",
"417 -25 OFFCURVE",
"488 13 CURVE",
"554 50 OFFCURVE",
"599 113 OFFCURVE",
"588 133 CURVE",
"586 142 OFFCURVE",
"538 155 OFFCURVE",
"496 119 CURVE",
"481 107 OFFCURVE",
"474 98 OFFCURVE",
"478 105 CURVE",
"471 105 OFFCURVE",
"471 98 OFFCURVE",
"460 93 CURVE",
"453 88 OFFCURVE",
"428 70 OFFCURVE",
"350 57 CURVE",
"318 44 OFFCURVE",
"295 51 OFFCURVE",
"268 52 CURVE",
"223 65 OFFCURVE",
"202 87 OFFCURVE",
"191 118 CURVE",
"177 155 OFFCURVE",
"214 286 OFFCURVE",
"238 274 CURVE",
"235 247 OFFCURVE",
"285 255 OFFCURVE",
"359 276 CURVE",
"533 323 OFFCURVE",
"583 315 OFFCURVE",
"564 369 CURVE",
"556 391 OFFCURVE",
"534 414 OFFCURVE",
"515 400 CURVE",
"494 397 OFFCURVE",
"483 394 OFFCURVE",
"359 362 CURVE",
"347 359 OFFCURVE",
"324 358 OFFCURVE",
"311 351 CURVE",
"306 351 OFFCURVE",
"279 357 OFFCURVE",
"279 357 CURVE",
"273 364 OFFCURVE",
"292 386 OFFCURVE",
"330 438 CURVE",
"344 466 OFFCURVE",
"360 499 OFFCURVE",
"370 506 CURVE",
"399 552 OFFCURVE",
"418 548 OFFCURVE",
"469 558 CURVE",
"539 573 OFFCURVE",
"544 574 OFFCURVE",
"604 582 CURVE",
"659 588 OFFCURVE",
"685 607 OFFCURVE",
"676 631 CURVE",
"665 655 OFFCURVE",
"643 671 OFFCURVE",
"634 668 CURVE",
"634 668 OFFCURVE",
"589 664 OFFCURVE",
"564 666 CURVE",
"530 662 OFFCURVE",
"503 658 OFFCURVE",
"497 650 CURVE",
"472 646 OFFCURVE",
"431 634 OFFCURVE",
"431 641 CURVE",
"426 656 OFFCURVE",
"390 655 OFFCURVE",
"358 630 CURVE",
"312 604 OFFCURVE",
"273 561 OFFCURVE",
"278 554 CURVE",
"284 546 OFFCURVE",
"284 533 OFFCURVE",
"264 512 CURVE",
"253 491 OFFCURVE",
"235 457 OFFCURVE",
"235 450 CURVE",
"235 450 OFFCURVE",
"238 451 OFFCURVE",
"229 442 CURVE",
"206 406 OFFCURVE",
"155 327 OFFCURVE",
"132 272 CURVE",
"115 236 OFFCURVE",
"93 147 OFFCURVE",
"102 110 CURVE",
"110 67 OFFCURVE",
"120 45 OFFCURVE",
"143 22 CURVE",
"178 -2 OFFCURVE",
"221 -36 OFFCURVE",
"262 -39 CURVE"
);
}
);
width = 557;
}
);
unicode = 0045;
},
{
glyphname = F;
layers = (
{
background = {
paths = (
{
closed = 1;
nodes = (
"587 636 OFFCURVE",
"568 639 OFFCURVE",
"545 635 CURVE",
"524 641 OFFCURVE",
"480 636 OFFCURVE",
"456 634 CURVE",
"387 619 OFFCURVE",
"373 622 OFFCURVE",
"369 629 CURVE SMOOTH",
"360 642 OFFCURVE",
"332 640 OFFCURVE",
"332 627 CURVE SMOOTH",
"332 622 OFFCURVE",
"325 617 OFFCURVE",
"319 613 CURVE",
"311 615 OFFCURVE",
"298 611 OFFCURVE",
"273 606 CURVE SMOOTH",
"253 601 OFFCURVE",
"243 599 OFFCURVE",
"234 597 CURVE",
"214 595 OFFCURVE",
"201 580 OFFCURVE",
"198 559 CURVE SMOOTH",
"198 547 OFFCURVE",
"210 543 OFFCURVE",
"224 545 CURVE",
"229 546 OFFCURVE",
"235 546 OFFCURVE",
"251 549 CURVE",
"268 550 OFFCURVE",
"278 551 OFFCURVE",
"283 552 CURVE SMOOTH",
"288 552 OFFCURVE",
"283 538 OFFCURVE",
"278 520 CURVE SMOOTH",
"275 510 OFFCURVE",
"268 491 OFFCURVE",
"266 486 CURVE SMOOTH",
"265 483 OFFCURVE",
"237 404 OFFCURVE",
"228 377 CURVE",
"215 348 OFFCURVE",
"204 335 OFFCURVE",
"198 330 CURVE SMOOTH",
"188 318 OFFCURVE",
"188 318 OFFCURVE",
"190 303 CURVE",
"183 286 OFFCURVE",
"182 265 OFFCURVE",
"168 240 CURVE",
"142 188 OFFCURVE",
"108 70 OFFCURVE",
"100 36 CURVE",
"91 7 OFFCURVE",
"92 2 OFFCURVE",
"108 -10 CURVE",
"118 -22 OFFCURVE",
"140 -24 OFFCURVE",
"141 -19 CURVE",
"147 -15 OFFCURVE",
"147 10 OFFCURVE",
"159 42 CURVE",
"159 68 OFFCURVE",
"225 236 OFFCURVE",
"247 276 CURVE",
"247 287 OFFCURVE",
"256 294 OFFCURVE",
"256 294 CURVE",
"280 289 OFFCURVE",
"402 293 OFFCURVE",
"436 296 CURVE SMOOTH",
"495 302 OFFCURVE",
"519 306 OFFCURVE",
"523 316 CURVE SMOOTH",
"528 327 OFFCURVE",
"520 354 OFFCURVE",
"510 360 CURVE SMOOTH",
"503 363 OFFCURVE",
"477 358 OFFCURVE",
"457 354 CURVE",
"392 348 OFFCURVE",
"298 342 OFFCURVE",
"271 350 CURVE",
"276 356 OFFCURVE",
"325 491 OFFCURVE",
"337 511 CURVE",
"349 545 OFFCURVE",
"365 564 OFFCURVE",
"370 564 CURVE SMOOTH",
"370 564 OFFCURVE",
"394 572 OFFCURVE",
"423 574 CURVE",
"496 584 OFFCURVE",
"546 587 OFFCURVE",
"604 579 CURVE",
"652 578 OFFCURVE",
"658 578 OFFCURVE",
"659 590 CURVE",
"661 596 OFFCURVE",
"662 606 OFFCURVE",
"649 613 CURVE",
"642 618 OFFCURVE",
"637 620 OFFCURVE",
"642 618 CURVE",
"642 618 OFFCURVE",
"645 623 OFFCURVE",
"640 629 CURVE",
"632 636 OFFCURVE",
"622 636 OFFCURVE",
"594 641 CURVE"
);
}
);
};
layerId = "5B238DC5-4F6F-4A74-B879-7A3E5189648B";
paths = (
{
closed = 1;
nodes = (
"147 -15 OFFCURVE",
"147 10 OFFCURVE",
"159 42 CURVE",
"159 68 OFFCURVE",
"225 236 OFFCURVE",
"247 276 CURVE",
"247 287 OFFCURVE",
"256 294 OFFCURVE",
"256 294 CURVE",
"280 289 OFFCURVE",
"402 293 OFFCURVE",
"436 296 CURVE SMOOTH",
"495 302 OFFCURVE",
"519 306 OFFCURVE",
"523 316 CURVE SMOOTH",
"528 327 OFFCURVE",
"520 354 OFFCURVE",
"510 360 CURVE SMOOTH",
"503 363 OFFCURVE",
"477 358 OFFCURVE",
"457 354 CURVE",
"392 348 OFFCURVE",
"298 342 OFFCURVE",
"271 350 CURVE",
"276 356 OFFCURVE",
"325 491 OFFCURVE",
"337 511 CURVE",
"349 545 OFFCURVE",
"365 564 OFFCURVE",
"370 564 CURVE SMOOTH",
"370 564 OFFCURVE",
"394 572 OFFCURVE",
"423 574 CURVE",
"496 584 OFFCURVE",
"546 587 OFFCURVE",
"604 579 CURVE",
"652 578 OFFCURVE",
"658 578 OFFCURVE",
"659 590 CURVE",
"661 596 OFFCURVE",
"662 606 OFFCURVE",
"649 613 CURVE",
"642 618 OFFCURVE",
"637 620 OFFCURVE",
"642 618 CURVE",
"642 618 OFFCURVE",
"645 623 OFFCURVE",
"640 629 CURVE",
"632 636 OFFCURVE",
"622 636 OFFCURVE",
"594 641 CURVE",
"587 636 OFFCURVE",
"568 639 OFFCURVE",
"545 635 CURVE",
"524 641 OFFCURVE",
"480 636 OFFCURVE",
"456 634 CURVE",
"387 619 OFFCURVE",
"373 622 OFFCURVE",
"369 629 CURVE SMOOTH",
"360 642 OFFCURVE",
"332 640 OFFCURVE",
"332 627 CURVE SMOOTH",
"332 622 OFFCURVE",
"325 617 OFFCURVE",
"319 613 CURVE",
"311 615 OFFCURVE",
"298 611 OFFCURVE",
"273 606 CURVE SMOOTH",
"253 601 OFFCURVE",
"243 599 OFFCURVE",
"234 597 CURVE",
"214 595 OFFCURVE",
"201 580 OFFCURVE",
"198 559 CURVE SMOOTH",
"198 547 OFFCURVE",
"210 543 OFFCURVE",
"224 545 CURVE",
"229 546 OFFCURVE",
"235 546 OFFCURVE",
"251 549 CURVE",
"268 550 OFFCURVE",
"278 551 OFFCURVE",
"283 552 CURVE SMOOTH",
"288 552 OFFCURVE",
"283 538 OFFCURVE",
"278 520 CURVE SMOOTH",
"275 510 OFFCURVE",
"268 491 OFFCURVE",
"266 486 CURVE SMOOTH",
"265 483 OFFCURVE",
"237 404 OFFCURVE",
"228 377 CURVE",
"215 348 OFFCURVE",
"204 335 OFFCURVE",
"198 330 CURVE SMOOTH",
"188 318 OFFCURVE",
"188 318 OFFCURVE",
"190 303 CURVE",
"183 286 OFFCURVE",
"182 265 OFFCURVE",
"168 240 CURVE",
"142 188 OFFCURVE",
"108 70 OFFCURVE",
"100 36 CURVE",
"91 7 OFFCURVE",
"92 2 OFFCURVE",
"108 -10 CURVE",
"118 -22 OFFCURVE",
"140 -24 OFFCURVE",
"141 -19 CURVE"
);
}
);
width = 466;
},
{
background = {
paths = (
{
closed = 1;
nodes = (
"595 644 OFFCURVE",
"576 647 OFFCURVE",
"553 643 CURVE",
"532 649 OFFCURVE",
"488 644 OFFCURVE",
"464 642 CURVE",
"395 627 OFFCURVE",
"393 630 OFFCURVE",
"392 637 CURVE",
"395 675 OFFCURVE",
"338 671 OFFCURVE",
"330 635 CURVE",
"329 630 OFFCURVE",
"323 625 OFFCURVE",
"317 621 CURVE",
"309 623 OFFCURVE",
"291 624 OFFCURVE",
"266 619 CURVE",
"246 614 OFFCURVE",
"236 612 OFFCURVE",
"227 610 CURVE",
"207 608 OFFCURVE",
"194 585 OFFCURVE",
"191 564 CURVE",
"191 552 OFFCURVE",
"203 548 OFFCURVE",
"217 550 CURVE",
"222 551 OFFCURVE",
"228 551 OFFCURVE",
"244 554 CURVE",
"261 555 OFFCURVE",
"271 556 OFFCURVE",
"276 557 CURVE",
"281 557 OFFCURVE",
"276 543 OFFCURVE",
"271 525 CURVE",
"268 515 OFFCURVE",
"261 496 OFFCURVE",
"259 491 CURVE",
"258 488 OFFCURVE",
"230 409 OFFCURVE",
"221 382 CURVE",
"208 353 OFFCURVE",
"197 340 OFFCURVE",
"191 335 CURVE",
"181 323 OFFCURVE",
"181 323 OFFCURVE",
"183 308 CURVE",
"176 291 OFFCURVE",
"175 270 OFFCURVE",
"161 245 CURVE",
"135 193 OFFCURVE",
"101 75 OFFCURVE",
"93 41 CURVE",
"84 12 OFFCURVE",
"91 -7 OFFCURVE",
"116 -20 CURVE",
"126 -32 OFFCURVE",
"152 -34 OFFCURVE",
"155 -19 CURVE",
"161 -15 OFFCURVE",
"161 10 OFFCURVE",
"173 42 CURVE",
"173 68 OFFCURVE",
"236 226 OFFCURVE",
"258 266 CURVE",
"258 277 OFFCURVE",
"267 284 OFFCURVE",
"267 284 CURVE",
"291 279 OFFCURVE",
"406 283 OFFCURVE",
"440 286 CURVE",
"499 292 OFFCURVE",
"520 299 OFFCURVE",
"527 306 CURVE",
"545 318 OFFCURVE",
"537 362 OFFCURVE",
"518 366 CURVE",
"510 368 OFFCURVE",
"485 364 OFFCURVE",
"465 360 CURVE",
"400 354 OFFCURVE",
"312 348 OFFCURVE",
"285 356 CURVE",
"290 362 OFFCURVE",
"336 485 OFFCURVE",
"348 505 CURVE",
"360 539 OFFCURVE",
"376 558 OFFCURVE",
"381 558 CURVE",
"381 558 OFFCURVE",
"405 566 OFFCURVE",
"434 568 CURVE",
"507 578 OFFCURVE",
"550 581 OFFCURVE",
"608 573 CURVE",
"656 572 OFFCURVE",
"662 572 OFFCURVE",
"663 584 CURVE",
"665 590 OFFCURVE",
"670 614 OFFCURVE",
"657 621 CURVE",
"650 626 OFFCURVE",
"645 628 OFFCURVE",
"650 626 CURVE",
"650 626 OFFCURVE",
"653 631 OFFCURVE",
"648 637 CURVE",
"640 644 OFFCURVE",
"630 644 OFFCURVE",
"602 649 CURVE"
);
},
{
closed = 1;
nodes = (
"603 653 OFFCURVE",
"584 656 OFFCURVE",
"561 652 CURVE",
"540 658 OFFCURVE",
"496 653 OFFCURVE",
"472 651 CURVE",
"403 636 OFFCURVE",
"413 638 OFFCURVE",
"415 646 CURVE SMOOTH",
"431 708 OFFCURVE",
"345 702 OFFCURVE",
"328 644 CURVE SMOOTH",
"327 639 OFFCURVE",
"321 634 OFFCURVE",
"315 630 CURVE",
"307 632 OFFCURVE",
"284 638 OFFCURVE",
"259 633 CURVE SMOOTH",
"239 628 OFFCURVE",
"229 626 OFFCURVE",
"220 624 CURVE",
"200 622 OFFCURVE",
"187 590 OFFCURVE",
"184 569 CURVE SMOOTH",
"184 557 OFFCURVE",
"196 553 OFFCURVE",
"210 555 CURVE",
"215 556 OFFCURVE",
"221 556 OFFCURVE",
"237 559 CURVE",
"254 560 OFFCURVE",
"264 561 OFFCURVE",
"269 562 CURVE SMOOTH",
"274 562 OFFCURVE",
"269 548 OFFCURVE",
"264 530 CURVE SMOOTH",
"261 520 OFFCURVE",
"254 501 OFFCURVE",
"252 496 CURVE SMOOTH",
"251 493 OFFCURVE",
"223 414 OFFCURVE",
"214 387 CURVE",
"201 358 OFFCURVE",
"190 345 OFFCURVE",
"184 340 CURVE SMOOTH",
"174 328 OFFCURVE",
"174 328 OFFCURVE",
"176 313 CURVE",
"169 296 OFFCURVE",
"168 275 OFFCURVE",
"154 250 CURVE",
"128 198 OFFCURVE",
"94 80 OFFCURVE",
"86 46 CURVE",
"77 17 OFFCURVE",
"90 -15 OFFCURVE",
"124 -30 CURVE",
"134 -42 OFFCURVE",
"164 -43 OFFCURVE",
"170 -19 CURVE",
"176 -15 OFFCURVE",
"176 10 OFFCURVE",
"188 42 CURVE",
"188 68 OFFCURVE",
"247 217 OFFCURVE",
"269 257 CURVE",
"269 268 OFFCURVE",
"278 275 OFFCURVE",
"278 275 CURVE",
"302 270 OFFCURVE",
"411 274 OFFCURVE",
"445 277 CURVE SMOOTH",
"504 283 OFFCURVE",
"522 293 OFFCURVE",
"532 297 CURVE SMOOTH",
"563 310 OFFCURVE",
"554 370 OFFCURVE",
"526 372 CURVE SMOOTH",
"518 373 OFFCURVE",
"493 370 OFFCURVE",
"473 366 CURVE",
"408 360 OFFCURVE",
"327 354 OFFCURVE",
"300 362 CURVE",
"305 368 OFFCURVE",
"347 479 OFFCURVE",
"359 499 CURVE",
"371 533 OFFCURVE",
"387 552 OFFCURVE",
"392 552 CURVE SMOOTH",
"392 552 OFFCURVE",
"416 560 OFFCURVE",
"445 562 CURVE",
"518 572 OFFCURVE",
"555 575 OFFCURVE",
"613 567 CURVE",
"661 566 OFFCURVE",
"667 566 OFFCURVE",
"668 578 CURVE",
"670 584 OFFCURVE",
"678 623 OFFCURVE",
"665 630 CURVE",
"658 635 OFFCURVE",
"653 637 OFFCURVE",
"658 635 CURVE",
"658 635 OFFCURVE",
"661 640 OFFCURVE",
"656 646 CURVE",
"648 653 OFFCURVE",
"638 653 OFFCURVE",
"610 658 CURVE"
);
}
);
};
layerId = "C211B134-F0DF-4134-92B2-996AB8C0D30E";
paths = (
{
closed = 1;
nodes = (
"130 -37 OFFCURVE",
"158 -39 OFFCURVE",
"162 -19 CURVE",
"168 -15 OFFCURVE",
"168 10 OFFCURVE",
"180 42 CURVE",
"180 68 OFFCURVE",
"241 221 OFFCURVE",
"263 261 CURVE",
"263 272 OFFCURVE",
"272 279 OFFCURVE",
"272 279 CURVE",
"296 274 OFFCURVE",
"408 278 OFFCURVE",
"442 281 CURVE",
"501 287 OFFCURVE",
"521 296 OFFCURVE",
"529 301 CURVE",
"554 314 OFFCURVE",
"545 366 OFFCURVE",
"522 369 CURVE",
"514 370 OFFCURVE",
"489 367 OFFCURVE",
"469 363 CURVE",
"404 357 OFFCURVE",
"319 351 OFFCURVE",
"292 359 CURVE",
"297 365 OFFCURVE",
"341 482 OFFCURVE",
"353 502 CURVE",
"365 536 OFFCURVE",
"381 555 OFFCURVE",
"386 555 CURVE",
"386 555 OFFCURVE",
"410 563 OFFCURVE",
"439 565 CURVE",
"512 575 OFFCURVE",
"552 578 OFFCURVE",
"610 570 CURVE",
"658 569 OFFCURVE",
"664 569 OFFCURVE",
"665 581 CURVE",
"667 587 OFFCURVE",
"674 618 OFFCURVE",
"661 625 CURVE",
"654 630 OFFCURVE",
"649 632 OFFCURVE",
"654 630 CURVE",
"654 630 OFFCURVE",
"657 635 OFFCURVE",
"652 641 CURVE",
"644 648 OFFCURVE",
"634 648 OFFCURVE",
"606 653 CURVE",
"599 648 OFFCURVE",
"580 651 OFFCURVE",
"557 647 CURVE",
"536 653 OFFCURVE",
"492 648 OFFCURVE",
"468 646 CURVE",
"399 631 OFFCURVE",
"403 634 OFFCURVE",
"403 641 CURVE",
"413 691 OFFCURVE",
"341 686 OFFCURVE",
"329 639 CURVE",
"328 634 OFFCURVE",
"322 629 OFFCURVE",
"316 625 CURVE",
"308 627 OFFCURVE",
"287 631 OFFCURVE",
"262 626 CURVE",
"242 621 OFFCURVE",
"232 619 OFFCURVE",
"223 617 CURVE",
"203 615 OFFCURVE",
"190 587 OFFCURVE",
"187 566 CURVE",
"187 554 OFFCURVE",
"199 550 OFFCURVE",
"213 552 CURVE",
"218 553 OFFCURVE",
"224 553 OFFCURVE",
"240 556 CURVE",
"257 557 OFFCURVE",
"267 558 OFFCURVE",
"272 559 CURVE",
"277 559 OFFCURVE",
"272 545 OFFCURVE",
"267 527 CURVE",
"264 517 OFFCURVE",
"257 498 OFFCURVE",
"255 493 CURVE",
"254 490 OFFCURVE",
"226 411 OFFCURVE",
"217 384 CURVE",
"204 355 OFFCURVE",
"193 342 OFFCURVE",
"187 337 CURVE",
"177 325 OFFCURVE",
"177 325 OFFCURVE",
"179 310 CURVE",
"172 293 OFFCURVE",
"171 272 OFFCURVE",
"157 247 CURVE",
"131 195 OFFCURVE",
"97 77 OFFCURVE",
"89 43 CURVE",
"80 14 OFFCURVE",
"90 -11 OFFCURVE",
"120 -25 CURVE"
);
}
);
width = 475;
}
);
unicode = 0046;
},
{
glyphname = G;
layers = (
{
anchors = (
{
name = bottom;
position = "{209, -110}";
},
{
name = topUC;
position = "{534, 785}";
}
);
background = {
paths = (
{
closed = 1;
nodes = (
"442 686 OFFCURVE",
"391 670 OFFCURVE",
"372 659 CURVE SMOOTH",
"349 646 OFFCURVE",
"296 599 OFFCURVE",
"255 531 CURVE SMOOTH",
"231 490 OFFCURVE",
"192 402 OFFCURVE",
"167 330 CURVE SMOOTH",
"141 250 OFFCURVE",
"125 163 OFFCURVE",
"126 81 CURVE",
"124 38 OFFCURVE",
"146 -8 OFFCURVE",
"182 -31 CURVE SMOOTH",
"218 -57 OFFCURVE",
"279 -45 OFFCURVE",
"333 -21 CURVE SMOOTH",
"370 -7 OFFCURVE",
"444 54 OFFCURVE",
"475 97 CURVE SMOOTH",
"505 142 OFFCURVE",
"529 184 OFFCURVE",
"536 214 CURVE SMOOTH",
"544 256 OFFCURVE",
"543 298 OFFCURVE",
"509 314 CURVE SMOOTH",
"463 336 OFFCURVE",
"384 332 OFFCURVE",
"363 324 CURVE",
"348 309 OFFCURVE",
"347 295 OFFCURVE",
"357 280 CURVE",
"381 269 OFFCURVE",
"408 276 OFFCURVE",
"458 271 CURVE",
"498 272 OFFCURVE",
"466 202 OFFCURVE",
"432 138 CURVE SMOOTH",
"395 80 OFFCURVE",
"332 27 OFFCURVE",
"287 21 CURVE",
"180 -16 OFFCURVE",
"175 55 OFFCURVE",
"190 154 CURVE SMOOTH",
"194 187 OFFCURVE",
"213 264 OFFCURVE",
"221 293 CURVE SMOOTH",
"241 367 OFFCURVE",
"270 428 OFFCURVE",
"306 491 CURVE SMOOTH",
"326 530 OFFCURVE",
"369 579 OFFCURVE",
"390 597 CURVE SMOOTH",
"419 621 OFFCURVE",
"472 624 OFFCURVE",
"494 611 CURVE SMOOTH",
"515 600 OFFCURVE",
"533 595 OFFCURVE",
"551 568 CURVE",
"568 547 OFFCURVE",
"592 582 OFFCURVE",
"591 599 CURVE SMOOTH",
"591 615 OFFCURVE",
"580 624 OFFCURVE",
"570 640 CURVE SMOOTH",
"560 649 OFFCURVE",
"526 665 OFFCURVE",
"492 674 CURVE SMOOTH"
);
}
);
};
layerId = "5B238DC5-4F6F-4A74-B879-7A3E5189648B";
paths = (
{
closed = 1;
nodes = (
"218 -57 OFFCURVE",
"279 -45 OFFCURVE",
"333 -21 CURVE SMOOTH",
"370 -7 OFFCURVE",
"444 54 OFFCURVE",
"475 97 CURVE SMOOTH",
"505 142 OFFCURVE",
"529 184 OFFCURVE",
"536 214 CURVE SMOOTH",
"544 256 OFFCURVE",
"543 298 OFFCURVE",
"509 314 CURVE SMOOTH",
"463 336 OFFCURVE",
"384 332 OFFCURVE",
"363 324 CURVE",
"348 309 OFFCURVE",
"347 295 OFFCURVE",
"357 280 CURVE",
"381 269 OFFCURVE",
"408 276 OFFCURVE",
"458 271 CURVE",
"498 272 OFFCURVE",
"466 202 OFFCURVE",
"432 138 CURVE SMOOTH",
"395 80 OFFCURVE",
"332 27 OFFCURVE",
"287 21 CURVE",
"180 -16 OFFCURVE",
"175 55 OFFCURVE",
"190 154 CURVE SMOOTH",
"194 187 OFFCURVE",
"213 264 OFFCURVE",
"221 293 CURVE SMOOTH",
"241 367 OFFCURVE",
"270 428 OFFCURVE",
"306 491 CURVE SMOOTH",
"326 530 OFFCURVE",
"369 579 OFFCURVE",
"390 597 CURVE SMOOTH",
"419 621 OFFCURVE",
"472 624 OFFCURVE",
"494 611 CURVE SMOOTH",
"515 600 OFFCURVE",
"533 595 OFFCURVE",
"551 568 CURVE",
"568 547 OFFCURVE",
"592 582 OFFCURVE",
"591 599 CURVE SMOOTH",
"591 615 OFFCURVE",
"580 624 OFFCURVE",
"570 640 CURVE SMOOTH",
"560 649 OFFCURVE",
"526 665 OFFCURVE",
"492 674 CURVE SMOOTH",
"442 686 OFFCURVE",
"391 670 OFFCURVE",
"372 659 CURVE SMOOTH",
"349 646 OFFCURVE",
"296 599 OFFCURVE",
"255 531 CURVE SMOOTH",
"231 490 OFFCURVE",
"192 402 OFFCURVE",
"167 330 CURVE SMOOTH",
"141 250 OFFCURVE",
"125 163 OFFCURVE",
"126 81 CURVE",
"124 38 OFFCURVE",
"146 -8 OFFCURVE",
"182 -31 CURVE SMOOTH"
);
}
);
width = 498;
},
{
background = {
paths = (
{
closed = 1;
nodes = (
"486 681 OFFCURVE",
"474 682 OFFCURVE",
"463 682 CURVE SMOOTH",
"411 682 OFFCURVE",
"373 665 OFFCURVE",
"355 652 CURVE SMOOTH",
"302 615 OFFCURVE",
"228 528 OFFCURVE",
"161 331 CURVE SMOOTH",
"133 250 OFFCURVE",
"120 162 OFFCURVE",
"120 78 CURVE SMOOTH",
"120 0 OFFCURVE",
"171 -59 OFFCURVE",
"230 -59 CURVE SMOOTH",
"299 -59 OFFCURVE",
"411 -14 OFFCURVE",
"485 88 CURVE",
"530 155 OFFCURVE",
"549 211 OFFCURVE",
"549 248 CURVE SMOOTH",
"549 333 OFFCURVE",
"490 344 OFFCURVE",
"422 344 CURVE SMOOTH",
"358 344 OFFCURVE",
"342 327 OFFCURVE",
"342 302 CURVE SMOOTH",
"342 260 OFFCURVE",
"387 274 OFFCURVE",
"452 266 CURVE",
"465 266 OFFCURVE",
"470 260 OFFCURVE",
"470 248 CURVE SMOOTH",
"470 224 OFFCURVE",
"449 181 OFFCURVE",
"426 138 CURVE",
"375 58 OFFCURVE",
"290 21 OFFCURVE",
"244 21 CURVE SMOOTH",
"211 21 OFFCURVE",
"199 44 OFFCURVE",
"199 85 CURVE SMOOTH",
"199 126 OFFCURVE",
"218 223 OFFCURVE",
"237 293 CURVE SMOOTH",
"267 405 OFFCURVE",
"332 528 OFFCURVE",
"395 582 CURVE SMOOTH",
"412 597 OFFCURVE",
"440 603 OFFCURVE",
"463 603 CURVE SMOOTH",
"500 603 OFFCURVE",
"528 585 OFFCURVE",
"552 550 CURVE SMOOTH",
"555 546 OFFCURVE",
"560 544 OFFCURVE",
"565 544 CURVE SMOOTH",
"586 544 OFFCURVE",
"612 572 OFFCURVE",
"612 589 CURVE SMOOTH",
"612 630 OFFCURVE",
"551 664 OFFCURVE",
"497 679 CURVE"
);
},
{
closed = 1;
nodes = (
"453 696 OFFCURVE",
"380 673 OFFCURVE",
"361 662 CURVE SMOOTH",
"338 649 OFFCURVE",
"285 602 OFFCURVE",
"244 534 CURVE SMOOTH",
"220 493 OFFCURVE",
"181 405 OFFCURVE",
"156 333 CURVE SMOOTH",
"130 253 OFFCURVE",
"114 166 OFFCURVE",
"115 84 CURVE",
"115 2 OFFCURVE",
"152 -40 OFFCURVE",
"188 -63 CURVE SMOOTH",
"224 -89 OFFCURVE",
"300 -62 OFFCURVE",
"354 -38 CURVE SMOOTH",
"391 -24 OFFCURVE",
"465 37 OFFCURVE",
"496 80 CURVE SMOOTH",
"526 125 OFFCURVE",
"550 184 OFFCURVE",
"557 214 CURVE SMOOTH",
"565 256 OFFCURVE",
"554 326 OFFCURVE",
"520 342 CURVE SMOOTH",
"474 364 OFFCURVE",
"385 360 OFFCURVE",
"364 352 CURVE",
"326 339 OFFCURVE",
"319 286 OFFCURVE",
"358 270 CURVE",
"382 259 OFFCURVE",
"397 266 OFFCURVE",
"447 261 CURVE",
"487 262 OFFCURVE",
"455 202 OFFCURVE",
"421 138 CURVE SMOOTH",
"384 80 OFFCURVE",
"315 39 OFFCURVE",
"270 33 CURVE",
"214 23 OFFCURVE",
"208 55 OFFCURVE",
"223 154 CURVE SMOOTH",
"227 187 OFFCURVE",
"246 264 OFFCURVE",
"254 293 CURVE SMOOTH",
"274 367 OFFCURVE",
"303 428 OFFCURVE",
"339 491 CURVE SMOOTH",
"359 530 OFFCURVE",
"380 549 OFFCURVE",
"401 567 CURVE SMOOTH",
"430 591 OFFCURVE",
"483 594 OFFCURVE",
"505 581 CURVE SMOOTH",
"526 570 OFFCURVE",
"536 560 OFFCURVE",
"554 533 CURVE",
"571 512 OFFCURVE",
"655 544 OFFCURVE",
"630 599 CURVE SMOOTH",
"608 647 OFFCURVE",
"535 676 OFFCURVE",
"503 684 CURVE SMOOTH"
);
}
);
};
layerId = "C211B134-F0DF-4134-92B2-996AB8C0D30E";
paths = (
{
closed = 1;
nodes = (
"324 -66 OFFCURVE",
"510 30 OFFCURVE",
"551 215 CURVE SMOOTH",
"553 225 OFFCURVE",
"554 237 OFFCURVE",
"554 248 CURVE SMOOTH",
"554 337 OFFCURVE",
"499 349 OFFCURVE",
"427 351 CURVE",
"358 351 OFFCURVE",
"337 335 OFFCURVE",
"337 306 CURVE SMOOTH",
"337 298 OFFCURVE",
"339 289 OFFCURVE",
"350 286 CURVE",
"360 264 OFFCURVE",
"394 263 OFFCURVE",
"451 263 CURVE SMOOTH",
"462 263 OFFCURVE",
"466 257 OFFCURVE",
"466 247 CURVE SMOOTH",
"466 226 OFFCURVE",
"449 187 OFFCURVE",
"423 138 CURVE",
"374 62 OFFCURVE",
"293 26 OFFCURVE",
"248 26 CURVE SMOOTH",
"216 26 OFFCURVE",
"207 47 OFFCURVE",
"207 88 CURVE",
"215 232 OFFCURVE",
"310 595 OFFCURVE",
"469 595 CURVE SMOOTH",
"507 595 OFFCURVE",
"530 575 OFFCURVE",
"553 541 CURVE SMOOTH",
"556 537 OFFCURVE",
"562 535 OFFCURVE",
"568 535 CURVE SMOOTH",
"594 535 OFFCURVE",
"623 564 OFFCURVE",
"623 584 CURVE SMOOTH",
"623 632 OFFCURVE",
"543 670 OFFCURVE",
"500 681 CURVE",
"486 683 OFFCURVE",
"476 684 OFFCURVE",
"463 684 CURVE SMOOTH",
"418 684 OFFCURVE",
"374 667 OFFCURVE",
"358 657 CURVE SMOOTH",
"306 624 OFFCURVE",
"227 536 OFFCURVE",
"158 332 CURVE SMOOTH",
"130 251 OFFCURVE",
"117 164 OFFCURVE",
"117 81 CURVE SMOOTH",
"117 -12 OFFCURVE",
"175 -66 OFFCURVE",
"229 -66 CURVE SMOOTH"
);
}
);
width = 507;
}
);
unicode = 0047;
},
{
glyphname = H;
layers = (
{
anchors = (
{
name = bottom;
position = "{242, -110}";
},
{
name = topUC;
position = "{568, 785}";
}
);
background = {
paths = (
{
closed = 1;
nodes = (
"140 -86 LINE",
"145 -71 OFFCURVE",
"174 43 OFFCURVE",
"184 89 CURVE",
"189 121 OFFCURVE",
"236 266 OFFCURVE",
"241 278 CURVE",
"254 287 LINE",
"254 287 OFFCURVE",
"265 287 OFFCURVE",
"280 287 CURVE SMOOTH",
"290 287 OFFCURVE",
"325 287 OFFCURVE",
"340 287 CURVE",
"338 287 LINE",
"421 298 OFFCURVE",
"537 299 OFFCURVE",
"550 284 CURVE",
"540 264 LINE",
"536 253 LINE",
"537 254 OFFCURVE",
"496 124 OFFCURVE",
"494 119 CURVE",
"495 120 LINE",
"483 77 OFFCURVE",
"472 25 OFFCURVE",
"465 14 CURVE",
"466 15 LINE",
"454 -10 OFFCURVE",
"456 -20 OFFCURVE",
"475 -31 CURVE",
"473 -30 LINE",
"493 -38 OFFCURVE",
"500 -54 OFFCURVE",
"529 -50 CURVE",
"517 -66 LINE",
"517 -56 OFFCURVE",
"532 32 OFFCURVE",
"540 69 CURVE",
"540 66 LINE",
"540 76 OFFCURVE",
"552 108 OFFCURVE",
"557 124 CURVE",
"556 119 LINE",
"556 133 OFFCURVE",
"566 150 OFFCURVE",
"566 155 CURVE",
"567 161 LINE",
"588 213 OFFCURVE",
"624 345 OFFCURVE",
"629 360 CURVE",
"632 366 LINE",
"635 369 OFFCURVE",
"638 380 OFFCURVE",
"638 386 CURVE SMOOTH",
"638 396 OFFCURVE",
"659 447 OFFCURVE",
"666 454 CURVE SMOOTH",
"670 458 OFFCURVE",
"672 464 OFFCURVE",
"672 474 CURVE",
"673 480 LINE",
"684 506 OFFCURVE",
"698 555 OFFCURVE",
"719 592 CURVE",
"737 619 OFFCURVE",
"737 625 OFFCURVE",
"726 634 CURVE",
"723 639 LINE",
"722 642 OFFCURVE",
"697 661 OFFCURVE",
"696 661 CURVE SMOOTH",
"682 661 OFFCURVE",
"660 631 OFFCURVE",
"645 589 CURVE SMOOTH",
"632 550 OFFCURVE",
"611 490 OFFCURVE",
"602 454 CURVE",
"573 364 LINE",
"561 353 LINE",
"509 348 LINE",
"468 340 OFFCURVE",
"270 339 OFFCURVE",
"261 345 CURVE",
"261 355 OFFCURVE",
"281 397 OFFCURVE",
"296 437 CURVE",
"307 474 OFFCURVE",
"323 517 OFFCURVE",
"323 517 CURVE",
"322 511 LINE",
"322 520 OFFCURVE",
"338 554 OFFCURVE",
"363 597 CURVE",
"363 596 LINE",
"392 664 LINE",
"390 670 LINE",
"375 698 OFFCURVE",
"353 710 OFFCURVE",
"340 697 CURVE",
"323 654 LINE",
"246 481 OFFCURVE",
"239 465 OFFCURVE",
"229 438 CURVE SMOOTH",
"219 411 OFFCURVE",
"207 377 OFFCURVE",
"201 370 CURVE",
"204 380 LINE",
"204 373 OFFCURVE",
"199 350 OFFCURVE",
"193 334 CURVE",
"192 330 LINE",
"183 318 OFFCURVE",
"183 308 OFFCURVE",
"183 308 CURVE",
"183 302 OFFCURVE",
"183 297 OFFCURVE",
"183 297 CURVE",
"179 286 LINE",
"172 279 OFFCURVE",
"119 90 OFFCURVE",
"110 35 CURVE",
"111 39 OFFCURVE",
"91 -39 OFFCURVE",
"88 -42 CURVE",
"92 -35 LINE",
"88 -49 OFFCURVE",
"95 -59 OFFCURVE",
"107 -62 CURVE",
"104 -62 LINE",
"117 -62 OFFCURVE",
"158 -76 OFFCURVE",
"158 -76 CURVE"
);
}
);
};
layerId = "5B238DC5-4F6F-4A74-B879-7A3E5189648B";
paths = (
{
closed = 1;
nodes = (
"135 -68 OFFCURVE",
"165 47 OFFCURVE",
"175 94 CURVE",
"180 125 OFFCURVE",
"229 278 OFFCURVE",
"234 289 CURVE",
"234 289 OFFCURVE",
"245 289 OFFCURVE",
"260 289 CURVE SMOOTH",
"271 289 OFFCURVE",
"292 289 OFFCURVE",
"307 289 CURVE",
"385 299 OFFCURVE",
"520 298 OFFCURVE",
"525 292 CURVE",
"525 292 OFFCURVE",
"525 287 OFFCURVE",
"525 282 CURVE",
"520 277 OFFCURVE",
"494 165 OFFCURVE",
"479 124 CURVE",
"468 82 OFFCURVE",
"457 32 OFFCURVE",
"451 22 CURVE",
"436 -9 OFFCURVE",
"440 -22 OFFCURVE",
"466 -37 CURVE",
"481 -43 OFFCURVE",
"492 -48 OFFCURVE",
"497 -43 CURVE",
"497 -37 OFFCURVE",
"510 20 OFFCURVE",
"520 66 CURVE",
"520 72 OFFCURVE",
"531 103 OFFCURVE",
"536 119 CURVE",
"536 129 OFFCURVE",
"546 145 OFFCURVE",
"546 155 CURVE",
"567 207 OFFCURVE",
"603 339 OFFCURVE",
"608 355 CURVE",
"613 360 OFFCURVE",
"618 376 OFFCURVE",
"618 386 CURVE SMOOTH",
"618 391 OFFCURVE",
"637 438 OFFCURVE",
"642 443 CURVE SMOOTH",
"647 448 OFFCURVE",
"652 458 OFFCURVE",
"652 474 CURVE",
"663 500 OFFCURVE",
"676 548 OFFCURVE",
"697 584 CURVE",
"718 615 OFFCURVE",
"718 631 OFFCURVE",
"702 646 CURVE",
"697 657 OFFCURVE",
"680 662 OFFCURVE",
"675 662 CURVE SMOOTH",
"659 662 OFFCURVE",
"650 655 OFFCURVE",
"629 594 CURVE SMOOTH",
"616 556 OFFCURVE",
"595 495 OFFCURVE",
"585 458 CURVE",
"551 355 LINE",
"499 350 LINE",
"467 344 OFFCURVE",
"251 349 OFFCURVE",
"251 342 CURVE SMOOTH",
"251 347 OFFCURVE",
"266 375 OFFCURVE",
"281 417 CURVE",
"292 453 OFFCURVE",
"315 511 OFFCURVE",
"315 511 CURVE",
"315 516 OFFCURVE",
"331 552 OFFCURVE",
"352 589 CURVE",
"388 661 LINE",
"378 677 LINE",
"367 698 OFFCURVE",
"341 708 OFFCURVE",
"331 693 CURVE",
"331 687 OFFCURVE",
"320 672 OFFCURVE",
"315 661 CURVE SMOOTH",
"279 583 OFFCURVE",
"258 531 OFFCURVE",
"253 526 CURVE",
"253 526 OFFCURVE",
"253 526 OFFCURVE",
"253 521 CURVE SMOOTH",
"253 521 OFFCURVE",
"232 474 OFFCURVE",
"221 443 CURVE SMOOTH",
"211 417 OFFCURVE",
"200 386 OFFCURVE",
"195 380 CURVE",
"195 375 OFFCURVE",
"190 354 OFFCURVE",
"185 339 CURVE",
"174 323 OFFCURVE",
"174 308 OFFCURVE",
"174 308 CURVE",
"174 302 OFFCURVE",
"174 297 OFFCURVE",
"174 297 CURVE",
"164 287 OFFCURVE",
"111 95 OFFCURVE",
"101 38 CURVE",
"96 17 OFFCURVE",
"96 17 OFFCURVE",
"91 7 CURVE",
"91 -4 OFFCURVE",
"88 -26 OFFCURVE",
"83 -31 CURVE",
"78 -52 OFFCURVE",
"88 -73 OFFCURVE",
"109 -78 CURVE",
"120 -78 OFFCURVE",
"130 -83 OFFCURVE",
"130 -83 CURVE"
);
}
);
width = 564;
},
{
anchors = (
{
name = bottom;
position = "{242, -110}";
},
{
name = topUC;
position = "{568, 785}";
}
);
background = {
paths = (
{
closed = 1;
nodes = (
"143 -88 LINE",
"148 -73 OFFCURVE",
"179 43 OFFCURVE",
"189 91 CURVE",
"189 91 LINE",
"194 121 OFFCURVE",
"242 272 OFFCURVE",
"247 282 CURVE",
"234 273 LINE",
"234 273 OFFCURVE",
"245 273 OFFCURVE",
"260 273 CURVE SMOOTH",
"271 273 OFFCURVE",
"291 273 OFFCURVE",
"307 273 CURVE SMOOTH",
"309 273 LINE",
"345 278 OFFCURVE",
"514 282 OFFCURVE",
"514 282 CURVE",
"511 292 LINE",
"511 289 OFFCURVE",
"511 284 OFFCURVE",
"511 282 CURVE",
"515 293 LINE",
"507 285 OFFCURVE",
"481 171 OFFCURVE",
"466 129 CURVE",
"465 128 LINE",
"455 87 OFFCURVE",
"444 38 OFFCURVE",
"439 30 CURVE",
"438 29 LINE",
"420 -9 OFFCURVE",
"426 -32 OFFCURVE",
"459 -51 CURVE",
"461 -52 LINE",
"489 -63 OFFCURVE",
"497 -64 OFFCURVE",
"507 -54 CURVE",
"511 -43 LINE",
"511 -40 OFFCURVE",
"524 17 OFFCURVE",
"534 63 CURVE",
"534 66 LINE SMOOTH",
"534 68 OFFCURVE",
"544 98 OFFCURVE",
"549 114 CURVE",
"550 119 LINE",
"550 124 OFFCURVE",
"560 141 OFFCURVE",
"560 155 CURVE",
"559 149 LINE",
"580 201 OFFCURVE",
"616 333 OFFCURVE",
"621 350 CURVE",
"618 344 LINE",
"625 351 OFFCURVE",
"632 372 OFFCURVE",
"632 386 CURVE SMOOTH",
"632 387 OFFCURVE",
"650 430 OFFCURVE",
"652 432 CURVE SMOOTH",
"660 440 OFFCURVE",
"666 457 OFFCURVE",
"666 474 CURVE",
"665 468 LINE",
"676 494 OFFCURVE",
"688 541 OFFCURVE",
"709 576 CURVE",
"709 575 LINE",
"732 610 OFFCURVE",
"734 637 OFFCURVE",
"712 658 CURVE",
"715 653 LINE",
"708 667 OFFCURVE",
"690 678 OFFCURVE",
"675 678 CURVE SMOOTH",
"649 678 OFFCURVE",
"637 660 OFFCURVE",
"616 599 CURVE SMOOTH",
"603 562 OFFCURVE",
"582 500 OFFCURVE",
"571 462 CURVE",
"572 463 LINE",
"538 360 LINE",
"550 371 LINE",
"498 366 LINE",
"496 366 LINE",
"455 358 OFFCURVE",
"237 377 OFFCURVE",
"237 342 CURVE",
"265 342 LINE",
"265 336 OFFCURVE",
"287 390 OFFCURVE",
"294 412 CURVE",
"294 412 LINE",
"305 447 OFFCURVE",
"328 505 OFFCURVE",
"328 505 CURVE",
"329 511 LINE",
"329 513 OFFCURVE",
"352 559 OFFCURVE",
"364 581 CURVE",
"365 582 LINE",
"401 654 LINE",
"400 669 LINE",
"390 685 LINE",
"390 684 LINE",
"373 717 OFFCURVE",
"336 727 OFFCURVE",
"319 702 CURVE",
"317 693 LINE",
"317 698 OFFCURVE",
"306 675 OFFCURVE",
"302 668 CURVE",
"267 591 OFFCURVE",
"246 540 OFFCURVE",
"243 537 CURVE",
"253 526 LINE",
"253 526 OFFCURVE",
"253 526 OFFCURVE",
"253 521 CURVE",
"240 528 LINE",
"240 528 OFFCURVE",
"219 481 OFFCURVE",
"208 448 CURVE",
"198 423 OFFCURVE",
"188 394 OFFCURVE",
"184 390 CURVE",
"181 380 LINE",
"181 377 OFFCURVE",
"176 356 OFFCURVE",
"172 344 CURVE",
"173 348 LINE",
"160 328 OFFCURVE",
"160 308 OFFCURVE",
"160 308 CURVE",
"160 302 OFFCURVE",
"160 297 OFFCURVE",
"160 297 CURVE",
"164 308 LINE",
"152 296 OFFCURVE",
"99 110 OFFCURVE",
"87 41 CURVE",
"101 38 LINE",
"96 17 OFFCURVE",
"96 17 OFFCURVE",
"91 7 CURVE",
"77 7 LINE",
"77 -2 OFFCURVE",
"74 -19 OFFCURVE",
"73 -20 CURVE",
"69 -27 LINE",
"62 -57 OFFCURVE",
"78 -87 OFFCURVE",
"106 -94 CURVE",
"109 -94 LINE SMOOTH",
"114 -94 OFFCURVE",
"121 -96 OFFCURVE",
"124 -97 CURVE"
);
}
);
};
layerId = "C211B134-F0DF-4134-92B2-996AB8C0D30E";
paths = (
{
closed = 1;
nodes = (
"158 -76 OFFCURVE",
"188 39 OFFCURVE",
"198 86 CURVE",
"203 117 OFFCURVE",
"249 260 OFFCURVE",
"254 271 CURVE",
"254 271 OFFCURVE",
"265 271 OFFCURVE",
"280 271 CURVE",
"291 271 OFFCURVE",
"325 271 OFFCURVE",
"340 271 CURVE",
"418 281 OFFCURVE",
"521 280 OFFCURVE",
"526 274 CURVE",
"526 274 OFFCURVE",
"526 269 OFFCURVE",
"526 264 CURVE",
"521 259 OFFCURVE",
"496 165 OFFCURVE",
"481 124 CURVE",
"470 82 OFFCURVE",
"459 32 OFFCURVE",
"453 22 CURVE",
"438 -9 OFFCURVE",
"442 -30 OFFCURVE",
"468 -45 CURVE",
"483 -51 OFFCURVE",
"496 -70 OFFCURVE",
"531 -66 CURVE",
"531 -60 OFFCURVE",
"544 20 OFFCURVE",
"554 66 CURVE",
"554 72 OFFCURVE",
"565 103 OFFCURVE",
"570 119 CURVE",
"570 129 OFFCURVE",
"580 145 OFFCURVE",
"580 155 CURVE",
"601 207 OFFCURVE",
"637 339 OFFCURVE",
"642 355 CURVE",
"647 360 OFFCURVE",
"652 376 OFFCURVE",
"652 386 CURVE",
"652 391 OFFCURVE",
"671 438 OFFCURVE",
"676 443 CURVE",
"681 448 OFFCURVE",
"686 458 OFFCURVE",
"686 474 CURVE",
"697 500 OFFCURVE",
"710 548 OFFCURVE",
"731 584 CURVE",
"752 615 OFFCURVE",
"752 631 OFFCURVE",
"736 646 CURVE",
"731 657 OFFCURVE",
"701 677 OFFCURVE",
"696 677 CURVE",
"680 677 OFFCURVE",
"653 655 OFFCURVE",
"632 594 CURVE",
"619 556 OFFCURVE",
"598 495 OFFCURVE",
"588 458 CURVE",
"560 369 LINE",
"508 364 LINE",
"476 358 OFFCURVE",
"278 363 OFFCURVE",
"278 356 CURVE",
"278 361 OFFCURVE",
"294 390 OFFCURVE",
"309 432 CURVE",
"320 468 OFFCURVE",
"336 511 OFFCURVE",
"336 511 CURVE",
"336 516 OFFCURVE",
"354 552 OFFCURVE",
"375 589 CURVE",
"412 661 LINE",
"402 677 LINE",
"391 698 OFFCURVE",
"359 738 OFFCURVE",
"330 708 CURVE",
"330 702 OFFCURVE",
"315 672 OFFCURVE",
"310 661 CURVE",
"274 583 OFFCURVE",
"253 531 OFFCURVE",
"248 526 CURVE",
"248 526 OFFCURVE",
"248 526 OFFCURVE",
"248 521 CURVE",
"248 521 OFFCURVE",
"227 474 OFFCURVE",
"216 443 CURVE",
"206 417 OFFCURVE",
"195 386 OFFCURVE",
"190 380 CURVE",
"190 375 OFFCURVE",
"185 354 OFFCURVE",
"180 339 CURVE",
"169 323 OFFCURVE",
"169 308 OFFCURVE",
"169 308 CURVE",
"169 302 OFFCURVE",
"169 297 OFFCURVE",
"169 297 CURVE",
"159 287 OFFCURVE",
"106 95 OFFCURVE",
"96 38 CURVE",
"91 17 OFFCURVE",
"91 17 OFFCURVE",
"86 7 CURVE",
"86 -4 OFFCURVE",
"83 -26 OFFCURVE",
"78 -31 CURVE",
"73 -52 OFFCURVE",
"83 -73 OFFCURVE",
"104 -78 CURVE",
"115 -78 OFFCURVE",
"153 -91 OFFCURVE",
"153 -91 CURVE"
);
}
);
width = 574;
}
);
unicode = 0048;
},
{
glyphname = Hbar;
layers = (
{
components = (
{
name = H;
}
);
layerId = "5B238DC5-4F6F-4A74-B879-7A3E5189648B";
paths = (
{
closed = 1;
nodes = (
"681 478 OFFCURVE",
"707 480 OFFCURVE",
"717 481 CURVE",
"746 478 OFFCURVE",
"750 499 OFFCURVE",
"733 519 CURVE SMOOTH",
"718 530 OFFCURVE",
"712 531 OFFCURVE",
"681 531 CURVE SMOOTH",
"630 531 OFFCURVE",
"234 540 OFFCURVE",
"189 533 CURVE",
"143 528 OFFCURVE",
"136 523 OFFCURVE",
"148 503 CURVE",
"153 494 OFFCURVE",
"157 491 OFFCURVE",
"177 491 CURVE",
"189 487 OFFCURVE",
"201 487 OFFCURVE",
"209 487 CURVE SMOOTH",
"244 487 OFFCURVE",
"645 478 OFFCURVE",
"657 478 CURVE SMOOTH"
);
}
);
width = 564;
},
{
background = {
paths = (
{
closed = 1;
nodes = (
"143 528 OFFCURVE",
"136 523 OFFCURVE",
"148 503 CURVE",
"153 494 OFFCURVE",
"157 491 OFFCURVE",
"177 491 CURVE",
"189 487 OFFCURVE",
"201 487 OFFCURVE",
"209 487 CURVE",
"244 487 OFFCURVE",
"645 478 OFFCURVE",
"657 478 CURVE",
"681 478 OFFCURVE",
"707 480 OFFCURVE",
"717 481 CURVE",
"746 478 OFFCURVE",
"750 499 OFFCURVE",
"733 519 CURVE",
"718 530 OFFCURVE",
"712 531 OFFCURVE",
"681 531 CURVE",
"630 531 OFFCURVE",
"234 540 OFFCURVE",
"189 533 CURVE"
);
},
{
closed = 1;
nodes = (
"143 528 OFFCURVE",
"136 523 OFFCURVE",
"148 503 CURVE",
"153 494 OFFCURVE",
"157 491 OFFCURVE",
"177 491 CURVE",
"189 487 OFFCURVE",
"201 487 OFFCURVE",
"209 487 CURVE SMOOTH",
"244 487 OFFCURVE",
"645 478 OFFCURVE",
"657 478 CURVE SMOOTH",
"681 478 OFFCURVE",
"707 480 OFFCURVE",
"717 481 CURVE",
"746 478 OFFCURVE",
"750 499 OFFCURVE",
"733 519 CURVE SMOOTH",
"718 530 OFFCURVE",
"712 531 OFFCURVE",
"681 531 CURVE SMOOTH",
"630 531 OFFCURVE",
"234 540 OFFCURVE",
"189 533 CURVE"
);
}
);
};
components = (
{
name = H;
transform = "{1, 0, 0, 1, -4, 0}";
}
);
layerId = "C211B134-F0DF-4134-92B2-996AB8C0D30E";
paths = (
{
closed = 1;
nodes = (
"681 478 OFFCURVE",
"707 480 OFFCURVE",
"717 481 CURVE",
"746 478 OFFCURVE",
"750 499 OFFCURVE",
"733 519 CURVE",
"718 530 OFFCURVE",
"712 531 OFFCURVE",
"681 531 CURVE",
"630 531 OFFCURVE",
"234 540 OFFCURVE",
"189 533 CURVE",
"143 528 OFFCURVE",
"136 523 OFFCURVE",
"148 503 CURVE",
"153 494 OFFCURVE",
"157 491 OFFCURVE",
"177 491 CURVE",
"189 487 OFFCURVE",
"201 487 OFFCURVE",
"209 487 CURVE",
"244 487 OFFCURVE",
"645 478 OFFCURVE",
"657 478 CURVE"
);
}
);
width = 564;
}
);
unicode = 0126;
},
{
glyphname = I;
layers = (
{
anchors = (
{
name = bottom;
position = "{173, -110}";
},
{
name = ogonek;
position = "{200, 40}";
},
{
name = topUC;
position = "{459, 785}";
}
);
background = {
paths = (
{
closed = 1;
nodes = (
"467 635 OFFCURVE",
"439 634 OFFCURVE",
"428 641 CURVE",
"416 642 OFFCURVE",
"405 639 OFFCURVE",
"393 635 CURVE",
"380 624 OFFCURVE",
"354 616 OFFCURVE",
"332 614 CURVE",
"285 608 OFFCURVE",
"225 590 OFFCURVE",
"211 578 CURVE SMOOTH",
"204 574 OFFCURVE",
"204 568 OFFCURVE",
"206 556 CURVE",
"210 543 OFFCURVE",
"231 535 OFFCURVE",
"238 545 CURVE",
"245 550 OFFCURVE",
"331 557 OFFCURVE",
"342 556 CURVE SMOOTH",
"347 555 OFFCURVE",
"338 514 OFFCURVE",
"304 409 CURVE",
"299 388 OFFCURVE",
"279 319 OFFCURVE",
"271 302 CURVE",
"266 279 OFFCURVE",
"228 170 OFFCURVE",
"217 134 CURVE",
"208 103 OFFCURVE",
"199 74 OFFCURVE",
"194 60 CURVE",
"184 40 LINE",
"131 39 LINE",
"74 38 OFFCURVE",
"49 28 OFFCURVE",
"48 12 CURVE",
"43 -5 OFFCURVE",
"73 -20 OFFCURVE",
"101 -16 CURVE",
"148 -14 OFFCURVE",
"182 -17 OFFCURVE",
"192 -31 CURVE",
"208 -37 OFFCURVE",
"220 -38 OFFCURVE",
"220 -27 CURVE SMOOTH",
"223 -14 OFFCURVE",
"246 -13 OFFCURVE",
"350 -9 CURVE",
"424 -10 OFFCURVE",
"443 1 OFFCURVE",
"416 37 CURVE",
"409 55 OFFCURVE",
"404 55 OFFCURVE",
"311 46 CURVE",
"276 43 OFFCURVE",
"254 41 OFFCURVE",
"254 41 CURVE",
"274 115 OFFCURVE",
"291 154 OFFCURVE",
"328 284 CURVE SMOOTH",
"329 290 OFFCURVE",
"333 307 OFFCURVE",
"338 319 CURVE",
"346 337 OFFCURVE",
"380 444 OFFCURVE",
"392 479 CURVE",
"402 508 OFFCURVE",
"411 542 OFFCURVE",
"410 548 CURVE",
"415 554 OFFCURVE",
"417 559 OFFCURVE",
"423 565 CURVE",
"426 570 OFFCURVE",
"453 575 OFFCURVE",
"499 579 CURVE",
"534 580 OFFCURVE",
"569 582 OFFCURVE",
"581 585 CURVE",
"604 583 OFFCURVE",
"606 599 OFFCURVE",
"599 624 CURVE",
"590 643 OFFCURVE",
"572 644 OFFCURVE",
"497 637 CURVE SMOOTH"
);
}
);
};
layerId = "5B238DC5-4F6F-4A74-B879-7A3E5189648B";
paths = (
{
closed = 1;
nodes = (
"208 -37 OFFCURVE",
"220 -38 OFFCURVE",
"220 -27 CURVE SMOOTH",
"223 -14 OFFCURVE",
"246 -13 OFFCURVE",
"350 -9 CURVE",
"424 -10 OFFCURVE",
"443 1 OFFCURVE",
"416 37 CURVE",
"409 55 OFFCURVE",
"404 55 OFFCURVE",
"311 46 CURVE",
"276 43 OFFCURVE",
"254 41 OFFCURVE",
"254 41 CURVE",
"274 115 OFFCURVE",
"291 154 OFFCURVE",
"328 284 CURVE SMOOTH",
"329 290 OFFCURVE",
"333 307 OFFCURVE",
"338 319 CURVE",
"346 337 OFFCURVE",
"380 444 OFFCURVE",
"392 479 CURVE",
"402 508 OFFCURVE",
"411 542 OFFCURVE",
"410 548 CURVE",
"415 554 OFFCURVE",
"417 559 OFFCURVE",
"423 565 CURVE",
"426 570 OFFCURVE",
"453 575 OFFCURVE",
"499 579 CURVE",
"534 580 OFFCURVE",
"569 582 OFFCURVE",
"581 585 CURVE",
"604 583 OFFCURVE",
"606 599 OFFCURVE",
"599 624 CURVE",
"590 643 OFFCURVE",
"572 644 OFFCURVE",
"497 637 CURVE SMOOTH",
"467 635 OFFCURVE",
"439 634 OFFCURVE",
"428 641 CURVE",
"416 642 OFFCURVE",
"405 639 OFFCURVE",
"393 635 CURVE",
"380 624 OFFCURVE",
"354 616 OFFCURVE",
"332 614 CURVE",
"285 608 OFFCURVE",
"225 590 OFFCURVE",
"211 578 CURVE SMOOTH",
"204 574 OFFCURVE",
"204 568 OFFCURVE",
"206 556 CURVE",
"210 543 OFFCURVE",
"231 535 OFFCURVE",
"238 545 CURVE",
"245 550 OFFCURVE",
"331 557 OFFCURVE",
"342 556 CURVE SMOOTH",
"347 555 OFFCURVE",
"338 514 OFFCURVE",
"304 409 CURVE",
"299 388 OFFCURVE",
"279 319 OFFCURVE",
"271 302 CURVE",
"266 279 OFFCURVE",
"228 170 OFFCURVE",
"217 134 CURVE",
"208 103 OFFCURVE",
"199 74 OFFCURVE",
"194 60 CURVE",
"184 40 LINE",
"131 39 LINE",
"74 38 OFFCURVE",
"49 28 OFFCURVE",
"48 12 CURVE",
"43 -5 OFFCURVE",
"73 -20 OFFCURVE",
"101 -16 CURVE",
"148 -14 OFFCURVE",
"182 -17 OFFCURVE",
"192 -31 CURVE"
);
}
);
width = 400;
},
{
anchors = (
{
name = bottom;
position = "{173, -110}";
},
{
name = ogonek;
position = "{200, 40}";
},
{
name = topUC;
position = "{471, 785}";
}
);
background = {
paths = (
{
closed = 1;
nodes = (
"471 644 OFFCURVE",
"443 643 OFFCURVE",
"432 650 CURVE",
"420 651 OFFCURVE",
"409 648 OFFCURVE",
"397 644 CURVE",
"384 633 OFFCURVE",
"358 625 OFFCURVE",
"336 623 CURVE",
"289 617 OFFCURVE",
"224 599 OFFCURVE",
"210 587 CURVE",
"203 583 OFFCURVE",
"202 573 OFFCURVE",
"204 561 CURVE",
"208 548 OFFCURVE",
"229 532 OFFCURVE",
"236 542 CURVE",
"243 547 OFFCURVE",
"327 554 OFFCURVE",
"338 553 CURVE",
"343 552 OFFCURVE",
"334 514 OFFCURVE",
"300 409 CURVE",
"295 388 OFFCURVE",
"275 319 OFFCURVE",
"267 302 CURVE",
"262 279 OFFCURVE",
"224 165 OFFCURVE",
"213 129 CURVE",
"204 98 OFFCURVE",
"200 78 OFFCURVE",
"195 64 CURVE",
"185 44 LINE",
"139 43 LINE",
"82 42 OFFCURVE",
"47 23 OFFCURVE",
"46 7 CURVE",
"41 -10 OFFCURVE",
"76 -27 OFFCURVE",
"104 -23 CURVE",
"151 -21 OFFCURVE",
"175 -24 OFFCURVE",
"185 -38 CURVE",
"206 -56 OFFCURVE",
"233 -51 OFFCURVE",
"233 -34 CURVE",
"234 -21 OFFCURVE",
"249 -20 OFFCURVE",
"353 -16 CURVE",
"427 -17 OFFCURVE",
"456 5 OFFCURVE",
"429 41 CURVE",
"422 59 OFFCURVE",
"427 59 OFFCURVE",
"334 50 CURVE",
"299 47 OFFCURVE",
"275 45 OFFCURVE",
"275 45 CURVE",
"295 119 OFFCURVE",
"307 154 OFFCURVE",
"344 284 CURVE",
"345 290 OFFCURVE",
"349 307 OFFCURVE",
"354 319 CURVE",
"362 337 OFFCURVE",
"396 444 OFFCURVE",
"408 479 CURVE",
"418 508 OFFCURVE",
"427 539 OFFCURVE",
"426 545 CURVE",
"431 551 OFFCURVE",
"433 556 OFFCURVE",
"439 562 CURVE",
"442 567 OFFCURVE",
"466 572 OFFCURVE",
"512 576 CURVE",
"547 577 OFFCURVE",
"572 579 OFFCURVE",
"584 582 CURVE",
"607 580 OFFCURVE",
"614 599 OFFCURVE",
"607 624 CURVE",
"598 643 OFFCURVE",
"576 653 OFFCURVE",
"501 646 CURVE"
);
},
{
closed = 1;
nodes = (
"475 653 OFFCURVE",
"447 652 OFFCURVE",
"436 659 CURVE",
"424 660 OFFCURVE",
"413 657 OFFCURVE",
"401 653 CURVE",
"388 642 OFFCURVE",
"362 634 OFFCURVE",
"340 632 CURVE",
"293 626 OFFCURVE",
"223 608 OFFCURVE",
"209 596 CURVE SMOOTH",
"202 592 OFFCURVE",
"200 578 OFFCURVE",
"202 566 CURVE",
"206 553 OFFCURVE",
"227 530 OFFCURVE",
"234 540 CURVE",
"241 545 OFFCURVE",
"323 552 OFFCURVE",
"334 551 CURVE SMOOTH",
"339 550 OFFCURVE",
"330 514 OFFCURVE",
"296 409 CURVE",
"291 388 OFFCURVE",
"271 319 OFFCURVE",
"263 302 CURVE",
"258 279 OFFCURVE",
"220 160 OFFCURVE",
"209 124 CURVE",
"200 93 OFFCURVE",
"201 83 OFFCURVE",
"196 69 CURVE",
"186 49 LINE",
"147 48 LINE",
"90 47 OFFCURVE",
"45 18 OFFCURVE",
"44 2 CURVE",
"39 -15 OFFCURVE",
"79 -33 OFFCURVE",
"107 -29 CURVE",
"154 -27 OFFCURVE",
"168 -30 OFFCURVE",
"178 -44 CURVE",
"204 -75 OFFCURVE",
"247 -64 OFFCURVE",
"246 -40 CURVE SMOOTH",
"245 -27 OFFCURVE",
"252 -26 OFFCURVE",
"356 -22 CURVE",
"430 -23 OFFCURVE",
"469 10 OFFCURVE",
"442 46 CURVE",
"435 64 OFFCURVE",
"450 64 OFFCURVE",
"357 55 CURVE",
"322 52 OFFCURVE",
"296 50 OFFCURVE",
"296 50 CURVE",
"316 124 OFFCURVE",
"323 154 OFFCURVE",
"360 284 CURVE SMOOTH",
"361 290 OFFCURVE",
"365 307 OFFCURVE",
"370 319 CURVE",
"378 337 OFFCURVE",
"412 444 OFFCURVE",
"424 479 CURVE",
"434 508 OFFCURVE",
"443 537 OFFCURVE",
"442 543 CURVE",
"447 549 OFFCURVE",
"449 554 OFFCURVE",
"455 560 CURVE",
"458 565 OFFCURVE",
"479 570 OFFCURVE",
"525 574 CURVE",
"560 575 OFFCURVE",
"575 577 OFFCURVE",
"587 580 CURVE",
"610 578 OFFCURVE",
"622 599 OFFCURVE",
"615 624 CURVE",
"606 643 OFFCURVE",
"580 662 OFFCURVE",
"505 655 CURVE SMOOTH"
);
}
);
};
layerId = "C211B134-F0DF-4134-92B2-996AB8C0D30E";
paths = (
{
closed = 1;
nodes = (
"205 -66 OFFCURVE",
"240 -58 OFFCURVE",
"239 -37 CURVE",
"239 -24 OFFCURVE",
"250 -23 OFFCURVE",
"354 -19 CURVE",
"428 -20 OFFCURVE",
"462 7 OFFCURVE",
"435 43 CURVE",
"428 61 OFFCURVE",
"438 61 OFFCURVE",
"345 52 CURVE",
"310 49 OFFCURVE",
"285 47 OFFCURVE",
"285 47 CURVE",
"305 121 OFFCURVE",
"315 154 OFFCURVE",
"352 284 CURVE",
"353 290 OFFCURVE",
"357 307 OFFCURVE",
"362 319 CURVE",
"370 337 OFFCURVE",
"404 444 OFFCURVE",
"416 479 CURVE",
"426 508 OFFCURVE",
"435 538 OFFCURVE",
"434 544 CURVE",
"439 550 OFFCURVE",
"441 555 OFFCURVE",
"447 561 CURVE",
"450 566 OFFCURVE",
"472 571 OFFCURVE",
"518 575 CURVE",
"553 576 OFFCURVE",
"573 578 OFFCURVE",
"585 581 CURVE",
"608 579 OFFCURVE",
"618 599 OFFCURVE",
"611 624 CURVE",
"602 643 OFFCURVE",
"578 657 OFFCURVE",
"503 650 CURVE",
"473 648 OFFCURVE",
"445 647 OFFCURVE",
"434 654 CURVE",
"422 655 OFFCURVE",
"411 652 OFFCURVE",
"399 648 CURVE",
"386 637 OFFCURVE",
"360 629 OFFCURVE",
"338 627 CURVE",
"291 621 OFFCURVE",
"223 603 OFFCURVE",
"209 591 CURVE",
"202 587 OFFCURVE",
"201 575 OFFCURVE",
"203 563 CURVE",
"207 550 OFFCURVE",
"228 531 OFFCURVE",
"235 541 CURVE",
"242 546 OFFCURVE",
"325 553 OFFCURVE",
"336 552 CURVE",
"341 551 OFFCURVE",
"332 514 OFFCURVE",
"298 409 CURVE",
"293 388 OFFCURVE",
"273 319 OFFCURVE",
"265 302 CURVE",
"260 279 OFFCURVE",
"222 162 OFFCURVE",
"211 126 CURVE",
"202 95 OFFCURVE",
"200 80 OFFCURVE",
"195 66 CURVE",
"185 46 LINE",
"143 45 LINE",
"86 44 OFFCURVE",
"46 20 OFFCURVE",
"45 4 CURVE",
"40 -13 OFFCURVE",
"77 -30 OFFCURVE",
"105 -26 CURVE",
"152 -24 OFFCURVE",
"171 -27 OFFCURVE",
"181 -41 CURVE"
);
}
);
width = 409;
}
);
unicode = 0049;
},
{
glyphname = J;
layers = (
{
anchors = (
{
name = topUC;
position = "{398, 785}";
}
);
background = {
paths = (
{
closed = 1;
nodes = (
"364 681 OFFCURVE",
"336 678 OFFCURVE",
"310 674 CURVE",
"269 669 OFFCURVE",
"239 660 OFFCURVE",
"239 649 CURVE SMOOTH",
"238 638 OFFCURVE",
"254 621 OFFCURVE",
"260 626 CURVE",
"260 626 OFFCURVE",
"260 626 OFFCURVE",
"260 621 CURVE SMOOTH",
"259 615 OFFCURVE",
"286 610 OFFCURVE",
"309 619 CURVE",
"337 624 OFFCURVE",
"365 629 OFFCURVE",
"365 629 CURVE",
"369 623 OFFCURVE",
"344 554 OFFCURVE",
"320 477 CURVE SMOOTH",
"307 438 OFFCURVE",
"295 401 OFFCURVE",
"290 391 CURVE SMOOTH",
"283 374 OFFCURVE",
"271 336 OFFCURVE",
"265 308 CURVE",
"253 275 OFFCURVE",
"230 210 OFFCURVE",
"223 189 CURVE",
"218 167 OFFCURVE",
"211 150 OFFCURVE",
"210 145 CURVE",
"205 139 OFFCURVE",
"205 134 OFFCURVE",
"205 134 CURVE",
"193 101 OFFCURVE",
"133 -29 OFFCURVE",
"116 -68 CURVE",
"75 -132 OFFCURVE",
"39 -146 OFFCURVE",
"2 -113 CURVE",
"-7 -101 OFFCURVE",
"-18 -94 OFFCURVE",
"-23 -94 CURVE SMOOTH",
"-29 -94 OFFCURVE",
"-33 -101 OFFCURVE",
"-36 -112 CURVE",
"-42 -129 OFFCURVE",
"-39 -137 OFFCURVE",
"-29 -148 CURVE SMOOTH",
"3 -183 OFFCURVE",
"54 -197 OFFCURVE",
"89 -181 CURVE SMOOTH",
"111 -171 OFFCURVE",
"156 -128 OFFCURVE",
"162 -112 CURVE",
"162 -106 OFFCURVE",
"168 -102 OFFCURVE",
"168 -102 CURVE",
"173 -102 OFFCURVE",
"173 -96 OFFCURVE",
"173 -96 CURVE",
"173 -91 OFFCURVE",
"185 -75 OFFCURVE",
"192 -59 CURVE",
"203 -42 OFFCURVE",
"216 -4 OFFCURVE",
"227 23 CURVE SMOOTH",
"240 55 OFFCURVE",
"251 82 OFFCURVE",
"251 82 CURVE",
"257 88 OFFCURVE",
"264 104 OFFCURVE",
"264 115 CURVE",
"269 132 OFFCURVE",
"279 165 OFFCURVE",
"290 191 CURVE",
"297 218 OFFCURVE",
"319 279 OFFCURVE",
"326 301 CURVE",
"344 345 OFFCURVE",
"366 414 OFFCURVE",
"396 497 CURVE SMOOTH",
"446 632 OFFCURVE",
"451 643 OFFCURVE",
"435 665 CURVE",
"425 676 OFFCURVE",
"389 689 OFFCURVE",
"382 684 CURVE"
);
}
);
};
layerId = "5B238DC5-4F6F-4A74-B879-7A3E5189648B";
paths = (
{
closed = 1;
nodes = (
"111 -171 OFFCURVE",
"156 -128 OFFCURVE",
"162 -112 CURVE",
"162 -106 OFFCURVE",
"168 -102 OFFCURVE",
"168 -102 CURVE",
"173 -102 OFFCURVE",
"173 -96 OFFCURVE",
"173 -96 CURVE",
"173 -91 OFFCURVE",
"185 -75 OFFCURVE",
"192 -59 CURVE",
"203 -42 OFFCURVE",
"216 -4 OFFCURVE",
"227 23 CURVE SMOOTH",
"240 55 OFFCURVE",
"251 82 OFFCURVE",
"251 82 CURVE",
"257 88 OFFCURVE",
"264 104 OFFCURVE",
"264 115 CURVE",
"269 132 OFFCURVE",
"279 165 OFFCURVE",
"290 191 CURVE",
"297 218 OFFCURVE",
"319 279 OFFCURVE",
"326 301 CURVE",
"344 345 OFFCURVE",
"366 414 OFFCURVE",
"396 497 CURVE SMOOTH",
"446 632 OFFCURVE",
"451 643 OFFCURVE",
"435 665 CURVE",
"425 676 OFFCURVE",
"389 689 OFFCURVE",
"382 684 CURVE",
"364 681 OFFCURVE",
"336 678 OFFCURVE",
"310 674 CURVE",
"269 669 OFFCURVE",
"239 660 OFFCURVE",
"239 649 CURVE SMOOTH",
"238 638 OFFCURVE",
"254 621 OFFCURVE",
"260 626 CURVE",
"260 626 OFFCURVE",
"260 626 OFFCURVE",
"260 621 CURVE SMOOTH",
"259 615 OFFCURVE",
"286 610 OFFCURVE",
"309 619 CURVE",
"337 624 OFFCURVE",
"365 629 OFFCURVE",
"365 629 CURVE",
"369 623 OFFCURVE",
"344 554 OFFCURVE",
"320 477 CURVE SMOOTH",
"307 438 OFFCURVE",
"295 401 OFFCURVE",
"290 391 CURVE SMOOTH",
"283 374 OFFCURVE",
"271 336 OFFCURVE",
"265 308 CURVE",
"253 275 OFFCURVE",
"230 210 OFFCURVE",
"223 189 CURVE",
"218 167 OFFCURVE",
"211 150 OFFCURVE",
"210 145 CURVE",
"205 139 OFFCURVE",
"205 134 OFFCURVE",
"205 134 CURVE",
"193 101 OFFCURVE",
"133 -29 OFFCURVE",
"116 -68 CURVE",
"75 -132 OFFCURVE",
"39 -146 OFFCURVE",
"2 -113 CURVE",
"-7 -101 OFFCURVE",
"-18 -94 OFFCURVE",
"-23 -94 CURVE SMOOTH",
"-29 -94 OFFCURVE",
"-33 -101 OFFCURVE",
"-36 -112 CURVE",
"-42 -129 OFFCURVE",
"-39 -137 OFFCURVE",
"-29 -148 CURVE SMOOTH",
"3 -183 OFFCURVE",
"54 -197 OFFCURVE",
"89 -181 CURVE SMOOTH"
);
}
);
width = 306;
},
{
background = {
paths = (
{
closed = 1;
nodes = (
"367 686 OFFCURVE",
"327 683 OFFCURVE",
"301 679 CURVE",
"260 674 OFFCURVE",
"225 660 OFFCURVE",
"225 649 CURVE",
"224 638 OFFCURVE",
"240 614 OFFCURVE",
"246 619 CURVE",
"246 619 OFFCURVE",
"246 615 OFFCURVE",
"246 610 CURVE",
"243 596 OFFCURVE",
"272 599 OFFCURVE",
"295 608 CURVE",
"323 613 OFFCURVE",
"351 618 OFFCURVE",
"351 618 CURVE",
"355 612 OFFCURVE",
"335 554 OFFCURVE",
"311 477 CURVE",
"298 438 OFFCURVE",
"286 401 OFFCURVE",
"281 391 CURVE",
"274 374 OFFCURVE",
"262 336 OFFCURVE",
"256 308 CURVE",
"244 275 OFFCURVE",
"221 210 OFFCURVE",
"214 189 CURVE",
"209 167 OFFCURVE",
"202 150 OFFCURVE",
"201 145 CURVE",
"196 139 OFFCURVE",
"196 134 OFFCURVE",
"196 134 CURVE",
"184 101 OFFCURVE",
"124 -29 OFFCURVE",
"107 -68 CURVE",
"66 -132 OFFCURVE",
"30 -146 OFFCURVE",
"-7 -113 CURVE",
"-16 -101 OFFCURVE",
"-27 -94 OFFCURVE",
"-32 -94 CURVE",
"-38 -94 OFFCURVE",
"-42 -101 OFFCURVE",
"-45 -112 CURVE",
"-51 -129 OFFCURVE",
"-53 -156 OFFCURVE",
"-43 -167 CURVE",
"-11 -202 OFFCURVE",
"48 -219 OFFCURVE",
"91 -196 CURVE",
"113 -185 OFFCURVE",
"168 -128 OFFCURVE",
"174 -112 CURVE",
"174 -106 OFFCURVE",
"180 -102 OFFCURVE",
"180 -102 CURVE",
"185 -102 OFFCURVE",
"185 -96 OFFCURVE",
"185 -96 CURVE",
"185 -91 OFFCURVE",
"197 -75 OFFCURVE",
"204 -59 CURVE",
"215 -42 OFFCURVE",
"228 -4 OFFCURVE",
"239 23 CURVE",
"252 55 OFFCURVE",
"263 82 OFFCURVE",
"263 82 CURVE",
"269 88 OFFCURVE",
"276 104 OFFCURVE",
"276 115 CURVE",
"281 132 OFFCURVE",
"291 165 OFFCURVE",
"302 191 CURVE",
"309 218 OFFCURVE",
"331 279 OFFCURVE",
"338 301 CURVE",
"356 345 OFFCURVE",
"378 414 OFFCURVE",
"408 497 CURVE",
"458 632 OFFCURVE",
"463 643 OFFCURVE",
"447 665 CURVE",
"437 676 OFFCURVE",
"392 694 OFFCURVE",
"385 689 CURVE"
);
},
{
closed = 1;
nodes = (
"370 692 OFFCURVE",
"318 689 OFFCURVE",
"292 685 CURVE",
"251 680 OFFCURVE",
"211 660 OFFCURVE",
"211 649 CURVE SMOOTH",
"210 638 OFFCURVE",
"227 607 OFFCURVE",
"233 612 CURVE",
"233 612 OFFCURVE",
"233 604 OFFCURVE",
"232 599 CURVE SMOOTH",
"228 578 OFFCURVE",
"258 588 OFFCURVE",
"281 597 CURVE",
"309 602 OFFCURVE",
"337 607 OFFCURVE",
"337 607 CURVE",
"341 601 OFFCURVE",
"326 554 OFFCURVE",
"302 477 CURVE SMOOTH",
"289 438 OFFCURVE",
"277 401 OFFCURVE",
"272 391 CURVE SMOOTH",
"265 374 OFFCURVE",
"253 336 OFFCURVE",
"247 308 CURVE",
"235 275 OFFCURVE",
"212 210 OFFCURVE",
"205 189 CURVE",
"200 167 OFFCURVE",
"193 150 OFFCURVE",
"192 145 CURVE",
"187 139 OFFCURVE",
"187 134 OFFCURVE",
"187 134 CURVE",
"175 101 OFFCURVE",
"115 -29 OFFCURVE",
"98 -68 CURVE",
"57 -132 OFFCURVE",
"21 -146 OFFCURVE",
"-16 -113 CURVE",
"-25 -101 OFFCURVE",
"-36 -94 OFFCURVE",
"-41 -94 CURVE SMOOTH",
"-47 -94 OFFCURVE",
"-51 -101 OFFCURVE",
"-54 -112 CURVE",
"-60 -129 OFFCURVE",
"-66 -174 OFFCURVE",
"-56 -185 CURVE SMOOTH",
"-24 -220 OFFCURVE",
"43 -241 OFFCURVE",
"94 -211 CURVE SMOOTH",
"115 -199 OFFCURVE",
"181 -128 OFFCURVE",
"187 -112 CURVE",
"187 -106 OFFCURVE",
"193 -102 OFFCURVE",
"193 -102 CURVE",
"198 -102 OFFCURVE",
"198 -96 OFFCURVE",
"198 -96 CURVE",
"198 -91 OFFCURVE",
"210 -75 OFFCURVE",
"217 -59 CURVE",
"228 -42 OFFCURVE",
"241 -4 OFFCURVE",
"252 23 CURVE SMOOTH",
"265 55 OFFCURVE",
"276 82 OFFCURVE",
"276 82 CURVE",
"282 88 OFFCURVE",
"289 104 OFFCURVE",
"289 115 CURVE",
"294 132 OFFCURVE",
"304 165 OFFCURVE",
"315 191 CURVE",
"322 218 OFFCURVE",
"344 279 OFFCURVE",
"351 301 CURVE",
"369 345 OFFCURVE",
"391 414 OFFCURVE",
"421 497 CURVE SMOOTH",
"471 632 OFFCURVE",
"476 643 OFFCURVE",
"460 665 CURVE",
"450 676 OFFCURVE",
"395 700 OFFCURVE",
"388 695 CURVE"
);
}
);
};
layerId = "C211B134-F0DF-4134-92B2-996AB8C0D30E";
paths = (
{
closed = 1;
nodes = (
"114 -192 OFFCURVE",
"174 -128 OFFCURVE",
"180 -112 CURVE",
"180 -106 OFFCURVE",
"186 -102 OFFCURVE",
"186 -102 CURVE",
"191 -102 OFFCURVE",
"191 -96 OFFCURVE",
"191 -96 CURVE",
"191 -91 OFFCURVE",
"203 -75 OFFCURVE",
"210 -59 CURVE",
"221 -42 OFFCURVE",
"234 -4 OFFCURVE",
"245 23 CURVE",
"258 55 OFFCURVE",
"269 82 OFFCURVE",
"269 82 CURVE",
"275 88 OFFCURVE",
"282 104 OFFCURVE",
"282 115 CURVE",
"287 132 OFFCURVE",
"297 165 OFFCURVE",
"308 191 CURVE",
"315 218 OFFCURVE",
"337 279 OFFCURVE",
"344 301 CURVE",
"362 345 OFFCURVE",
"384 414 OFFCURVE",
"414 497 CURVE",
"464 632 OFFCURVE",
"469 643 OFFCURVE",
"453 665 CURVE",
"443 676 OFFCURVE",
"393 697 OFFCURVE",
"386 692 CURVE",
"368 689 OFFCURVE",
"322 686 OFFCURVE",
"296 682 CURVE",
"255 677 OFFCURVE",
"218 660 OFFCURVE",
"218 649 CURVE",
"217 638 OFFCURVE",
"233 610 OFFCURVE",
"239 615 CURVE",
"239 615 OFFCURVE",
"239 609 OFFCURVE",
"239 604 CURVE",
"235 587 OFFCURVE",
"265 593 OFFCURVE",
"288 602 CURVE",
"316 607 OFFCURVE",
"344 612 OFFCURVE",
"344 612 CURVE",
"348 606 OFFCURVE",
"330 554 OFFCURVE",
"306 477 CURVE",
"293 438 OFFCURVE",
"281 401 OFFCURVE",
"276 391 CURVE",
"269 374 OFFCURVE",
"257 336 OFFCURVE",
"251 308 CURVE",
"239 275 OFFCURVE",
"216 210 OFFCURVE",
"209 189 CURVE",
"204 167 OFFCURVE",
"197 150 OFFCURVE",
"196 145 CURVE",
"191 139 OFFCURVE",
"191 134 OFFCURVE",
"191 134 CURVE",
"179 101 OFFCURVE",
"119 -29 OFFCURVE",
"102 -68 CURVE",
"61 -132 OFFCURVE",
"25 -146 OFFCURVE",
"-12 -113 CURVE",
"-21 -101 OFFCURVE",
"-32 -94 OFFCURVE",
"-37 -94 CURVE",
"-43 -94 OFFCURVE",
"-47 -101 OFFCURVE",
"-50 -112 CURVE",
"-56 -129 OFFCURVE",
"-60 -165 OFFCURVE",
"-50 -176 CURVE",
"-18 -211 OFFCURVE",
"45 -230 OFFCURVE",
"92 -204 CURVE"
);
}
);
width = 315;
}
);
unicode = 004A;
},
{
glyphname = K;
layers = (
{
anchors = (
{
name = bottom;
position = "{207, -110}";
}
);
background = {
paths = (
{
closed = 1;
nodes = (
"316 649 OFFCURVE",
"310 638 OFFCURVE",
"310 638 CURVE",
"310 638 OFFCURVE",
"305 616 OFFCURVE",
"292 596 CURVE SMOOTH",
"282 574 OFFCURVE",
"269 552 OFFCURVE",
"269 546 CURVE SMOOTH",
"269 541 OFFCURVE",
"269 535 OFFCURVE",
"269 535 CURVE",
"263 535 OFFCURVE",
"242 481 OFFCURVE",
"225 444 CURVE SMOOTH",
"208 399 OFFCURVE",
"191 350 OFFCURVE",
"183 328 CURVE SMOOTH",
"178 306 OFFCURVE",
"167 286 OFFCURVE",
"159 269 CURVE",
"159 258 OFFCURVE",
"155 236 OFFCURVE",
"149 220 CURVE SMOOTH",
"142 209 OFFCURVE",
"136 198 OFFCURVE",
"136 187 CURVE SMOOTH",
"136 181 OFFCURVE",
"123 154 OFFCURVE",
"113 128 CURVE",
"106 101 OFFCURVE",
"95 73 OFFCURVE",
"95 62 CURVE SMOOTH",
"95 57 OFFCURVE",
"94 46 OFFCURVE",
"88 46 CURVE",
"87 40 OFFCURVE",
"82 24 OFFCURVE",
"83 7 CURVE",
"75 -21 OFFCURVE",
"75 -27 OFFCURVE",
"92 -37 CURVE SMOOTH",
"125 -61 OFFCURVE",
"119 -61 OFFCURVE",
"174 114 CURVE",
"202 213 OFFCURVE",
"218 248 OFFCURVE",
"219 253 CURVE",
"260 354 LINE",
"259 371 OFFCURVE",
"335 534 OFFCURVE",
"363 593 CURVE",
"374 609 OFFCURVE",
"376 620 OFFCURVE",
"365 642 CURVE SMOOTH",
"354 665 OFFCURVE",
"338 666 OFFCURVE",
"321 654 CURVE"
);
},
{
closed = 1;
nodes = (
"221 326 LINE",
"249 271 LINE",
"251 277 OFFCURVE",
"340 345 OFFCURVE",
"360 356 CURVE",
"373 355 OFFCURVE",
"382 371 OFFCURVE",
"385 378 CURVE SMOOTH",
"390 384 OFFCURVE",
"404 393 OFFCURVE",
"404 393 CURVE",
"409 391 OFFCURVE",
"413 398 OFFCURVE",
"419 398 CURVE",
"430 414 OFFCURVE",
"470 447 OFFCURVE",
"524 482 CURVE SMOOTH",
"562 509 OFFCURVE",
"590 531 OFFCURVE",
"590 531 CURVE",
"594 539 OFFCURVE",
"616 552 OFFCURVE",
"641 564 CURVE",
"672 581 OFFCURVE",
"676 588 OFFCURVE",
"674 601 CURVE",
"676 617 OFFCURVE",
"655 646 OFFCURVE",
"639 639 CURVE",
"633 640 OFFCURVE",
"615 626 OFFCURVE",
"592 610 CURVE",
"573 598 OFFCURVE",
"533 565 OFFCURVE",
"500 548 CURVE",
"377 448 LINE",
"320 405 OFFCURVE",
"298 383 OFFCURVE",
"294 379 CURVE SMOOTH"
);
},
{
closed = 1;
nodes = (
"232 334 LINE",
"231 264 LINE",
"233 248 OFFCURVE",
"245 225 OFFCURVE",
"254 183 CURVE",
"270 125 OFFCURVE",
"308 73 OFFCURVE",
"330 42 CURVE",
"354 13 OFFCURVE",
"422 -47 OFFCURVE",
"445 -45 CURVE",
"480 -61 OFFCURVE",
"485 -49 OFFCURVE",
"489 -39 CURVE SMOOTH",
"493 -34 OFFCURVE",
"495 -16 OFFCURVE",
"493 -9 CURVE SMOOTH",
"491 2 OFFCURVE",
"460 20 OFFCURVE",
"451 23 CURVE SMOOTH",
"439 23 OFFCURVE",
"413 39 OFFCURVE",
"383 72 CURVE SMOOTH",
"360 95 OFFCURVE",
"340 131 OFFCURVE",
"324 166 CURVE SMOOTH",
"304 202 OFFCURVE",
"289 246 OFFCURVE",
"283 318 CURVE"
);
}
);
};
layerId = "5B238DC5-4F6F-4A74-B879-7A3E5189648B";
paths = (
{
closed = 1;
nodes = (
"125 -61 OFFCURVE",
"119 -61 OFFCURVE",
"174 114 CURVE",
"202 213 OFFCURVE",
"218 248 OFFCURVE",
"219 253 CURVE",
"260 354 LINE",
"259 371 OFFCURVE",
"335 534 OFFCURVE",
"363 593 CURVE",
"374 609 OFFCURVE",
"376 620 OFFCURVE",
"365 642 CURVE SMOOTH",
"354 665 OFFCURVE",
"338 666 OFFCURVE",
"321 654 CURVE",
"316 649 OFFCURVE",
"310 638 OFFCURVE",
"310 638 CURVE",
"310 638 OFFCURVE",
"305 616 OFFCURVE",
"292 596 CURVE SMOOTH",
"282 574 OFFCURVE",
"269 552 OFFCURVE",
"269 546 CURVE SMOOTH",
"269 541 OFFCURVE",
"269 535 OFFCURVE",
"269 535 CURVE",
"263 535 OFFCURVE",
"242 481 OFFCURVE",
"225 444 CURVE SMOOTH",
"208 399 OFFCURVE",
"191 350 OFFCURVE",
"183 328 CURVE SMOOTH",
"178 306 OFFCURVE",
"167 286 OFFCURVE",
"159 269 CURVE",
"159 258 OFFCURVE",
"155 236 OFFCURVE",
"149 220 CURVE SMOOTH",
"142 209 OFFCURVE",
"136 198 OFFCURVE",
"136 187 CURVE SMOOTH",
"136 181 OFFCURVE",
"123 154 OFFCURVE",
"113 128 CURVE",
"106 101 OFFCURVE",
"95 73 OFFCURVE",
"95 62 CURVE SMOOTH",
"95 57 OFFCURVE",
"94 46 OFFCURVE",
"88 46 CURVE",
"87 40 OFFCURVE",
"82 24 OFFCURVE",
"83 7 CURVE",
"75 -21 OFFCURVE",
"75 -27 OFFCURVE",
"92 -37 CURVE SMOOTH"
);
},
{
closed = 1;
nodes = (
"480 -61 OFFCURVE",
"485 -49 OFFCURVE",
"489 -39 CURVE SMOOTH",
"493 -34 OFFCURVE",
"495 -16 OFFCURVE",
"493 -9 CURVE SMOOTH",
"491 2 OFFCURVE",
"460 20 OFFCURVE",
"451 23 CURVE SMOOTH",
"439 23 OFFCURVE",
"413 39 OFFCURVE",
"383 72 CURVE SMOOTH",
"360 95 OFFCURVE",
"340 131 OFFCURVE",
"324 166 CURVE SMOOTH",
"304 202 OFFCURVE",
"289 246 OFFCURVE",
"283 318 CURVE",
"232 334 LINE",
"231 264 LINE",
"233 248 OFFCURVE",
"245 225 OFFCURVE",
"254 183 CURVE",
"270 125 OFFCURVE",
"308 73 OFFCURVE",
"330 42 CURVE",
"354 13 OFFCURVE",
"422 -47 OFFCURVE",
"445 -45 CURVE"
);
},
{
closed = 1;
nodes = (
"251 277 OFFCURVE",
"340 345 OFFCURVE",
"360 356 CURVE",
"373 355 OFFCURVE",
"382 371 OFFCURVE",
"385 378 CURVE SMOOTH",
"390 384 OFFCURVE",
"404 393 OFFCURVE",
"404 393 CURVE",
"409 391 OFFCURVE",
"413 398 OFFCURVE",
"419 398 CURVE",
"430 414 OFFCURVE",
"470 447 OFFCURVE",
"524 482 CURVE SMOOTH",
"562 509 OFFCURVE",
"590 531 OFFCURVE",
"590 531 CURVE",
"594 539 OFFCURVE",
"616 552 OFFCURVE",
"641 564 CURVE",
"672 581 OFFCURVE",
"676 588 OFFCURVE",
"674 601 CURVE",
"676 617 OFFCURVE",
"655 646 OFFCURVE",
"639 639 CURVE",
"633 640 OFFCURVE",
"615 626 OFFCURVE",
"592 610 CURVE",
"573 598 OFFCURVE",
"533 565 OFFCURVE",
"500 548 CURVE",
"377 448 LINE",
"320 405 OFFCURVE",
"298 383 OFFCURVE",
"294 379 CURVE SMOOTH",
"221 326 LINE",
"249 271 LINE"
);
}
);
width = 494;
},
{
background = {
paths = (
{
closed = 1;
nodes = (
"310 647 OFFCURVE",
"304 636 OFFCURVE",
"304 636 CURVE",
"304 636 OFFCURVE",
"299 614 OFFCURVE",
"286 594 CURVE",
"276 572 OFFCURVE",
"263 550 OFFCURVE",
"263 544 CURVE",
"263 539 OFFCURVE",
"263 533 OFFCURVE",
"263 533 CURVE",
"257 533 OFFCURVE",
"236 479 OFFCURVE",
"219 442 CURVE",
"202 397 OFFCURVE",
"185 348 OFFCURVE",
"177 326 CURVE",
"172 304 OFFCURVE",
"161 284 OFFCURVE",
"153 267 CURVE",
"153 256 OFFCURVE",
"149 234 OFFCURVE",
"143 218 CURVE",
"136 207 OFFCURVE",
"130 196 OFFCURVE",
"130 185 CURVE",
"130 179 OFFCURVE",
"117 152 OFFCURVE",
"107 126 CURVE",
"100 99 OFFCURVE",
"89 71 OFFCURVE",
"89 60 CURVE",
"89 55 OFFCURVE",
"88 44 OFFCURVE",
"82 44 CURVE",
"81 38 OFFCURVE",
"76 22 OFFCURVE",
"77 5 CURVE",
"69 -23 OFFCURVE",
"83 -34 OFFCURVE",
"100 -44 CURVE",
"133 -68 OFFCURVE",
"133 -61 OFFCURVE",
"188 114 CURVE",
"216 213 OFFCURVE",
"232 248 OFFCURVE",
"233 253 CURVE",
"274 354 LINE",
"273 371 OFFCURVE",
"349 534 OFFCURVE",
"377 593 CURVE",
"388 609 OFFCURVE",
"385 627 OFFCURVE",
"374 649 CURVE",
"363 672 OFFCURVE",
"332 664 OFFCURVE",
"315 652 CURVE"
);
},
{
closed = 1;
nodes = (
"224 334 LINE",
"257 265 LINE",
"259 271 OFFCURVE",
"348 339 OFFCURVE",
"368 350 CURVE",
"381 349 OFFCURVE",
"390 365 OFFCURVE",
"393 372 CURVE",
"398 378 OFFCURVE",
"412 387 OFFCURVE",
"412 387 CURVE",
"417 385 OFFCURVE",
"421 392 OFFCURVE",
"427 392 CURVE",
"438 408 OFFCURVE",
"478 441 OFFCURVE",
"532 476 CURVE",
"570 503 OFFCURVE",
"598 525 OFFCURVE",
"598 525 CURVE",
"602 533 OFFCURVE",
"624 546 OFFCURVE",
"649 558 CURVE",
"680 575 OFFCURVE",
"684 582 OFFCURVE",
"682 595 CURVE",
"684 611 OFFCURVE",
"658 654 OFFCURVE",
"642 647 CURVE",
"636 648 OFFCURVE",
"618 634 OFFCURVE",
"595 618 CURVE",
"576 606 OFFCURVE",
"536 573 OFFCURVE",
"503 556 CURVE",
"380 456 LINE",
"323 413 OFFCURVE",
"301 391 OFFCURVE",
"297 387 CURVE"
);
},
{
closed = 1;
nodes = (
"240 334 LINE",
"239 264 LINE",
"241 248 OFFCURVE",
"253 225 OFFCURVE",
"262 183 CURVE",
"278 125 OFFCURVE",
"316 73 OFFCURVE",
"338 42 CURVE",
"362 13 OFFCURVE",
"430 -47 OFFCURVE",
"453 -45 CURVE",
"488 -61 OFFCURVE",
"495 -52 OFFCURVE",
"502 -44 CURVE",
"518 -32 OFFCURVE",
"518 -2 OFFCURVE",
"516 5 CURVE",
"514 16 OFFCURVE",
"483 34 OFFCURVE",
"474 37 CURVE",
"462 37 OFFCURVE",
"436 53 OFFCURVE",
"406 86 CURVE",
"383 109 OFFCURVE",
"363 145 OFFCURVE",
"347 180 CURVE",
"327 216 OFFCURVE",
"312 260 OFFCURVE",
"306 332 CURVE"
);
},
{
closed = 1;
nodes = (
"304 645 OFFCURVE",
"298 634 OFFCURVE",
"298 634 CURVE",
"298 634 OFFCURVE",
"293 612 OFFCURVE",
"280 592 CURVE SMOOTH",
"270 570 OFFCURVE",
"257 548 OFFCURVE",
"257 542 CURVE SMOOTH",
"257 537 OFFCURVE",
"257 531 OFFCURVE",
"257 531 CURVE",
"251 531 OFFCURVE",
"230 477 OFFCURVE",
"213 440 CURVE SMOOTH",
"196 395 OFFCURVE",
"179 346 OFFCURVE",
"171 324 CURVE SMOOTH",
"166 302 OFFCURVE",
"155 282 OFFCURVE",
"147 265 CURVE",
"147 254 OFFCURVE",
"143 232 OFFCURVE",
"137 216 CURVE SMOOTH",
"130 205 OFFCURVE",
"124 194 OFFCURVE",
"124 183 CURVE SMOOTH",
"124 177 OFFCURVE",
"111 150 OFFCURVE",
"101 124 CURVE",
"94 97 OFFCURVE",
"83 69 OFFCURVE",
"83 58 CURVE SMOOTH",
"83 53 OFFCURVE",
"82 42 OFFCURVE",
"76 42 CURVE",
"75 36 OFFCURVE",
"70 20 OFFCURVE",
"71 3 CURVE",
"63 -25 OFFCURVE",
"91 -41 OFFCURVE",
"108 -51 CURVE SMOOTH",
"141 -75 OFFCURVE",
"147 -61 OFFCURVE",
"202 114 CURVE",
"230 213 OFFCURVE",
"246 248 OFFCURVE",
"247 253 CURVE",
"288 354 LINE",
"287 371 OFFCURVE",
"363 534 OFFCURVE",
"391 593 CURVE",
"402 609 OFFCURVE",
"394 635 OFFCURVE",
"383 657 CURVE SMOOTH",
"372 680 OFFCURVE",
"326 662 OFFCURVE",
"309 650 CURVE"
);
},
{
closed = 1;
nodes = (
"227 342 LINE",
"266 260 LINE",
"268 266 OFFCURVE",
"357 334 OFFCURVE",
"377 345 CURVE",
"390 344 OFFCURVE",
"399 360 OFFCURVE",
"402 367 CURVE SMOOTH",
"407 373 OFFCURVE",
"421 382 OFFCURVE",
"421 382 CURVE",
"426 380 OFFCURVE",
"430 387 OFFCURVE",
"436 387 CURVE",
"447 403 OFFCURVE",
"487 436 OFFCURVE",
"541 471 CURVE SMOOTH",
"579 498 OFFCURVE",
"607 520 OFFCURVE",
"607 520 CURVE",
"611 528 OFFCURVE",
"633 541 OFFCURVE",
"658 553 CURVE",
"689 570 OFFCURVE",
"693 577 OFFCURVE",
"691 590 CURVE",
"693 606 OFFCURVE",
"661 662 OFFCURVE",
"645 655 CURVE",
"639 656 OFFCURVE",
"621 642 OFFCURVE",
"598 626 CURVE",
"579 614 OFFCURVE",
"539 581 OFFCURVE",
"506 564 CURVE",
"383 464 LINE",
"326 421 OFFCURVE",
"304 399 OFFCURVE",
"300 395 CURVE SMOOTH"
);
},
{
closed = 1;
nodes = (
"248 334 LINE",
"247 264 LINE",
"249 248 OFFCURVE",
"261 225 OFFCURVE",
"270 183 CURVE",
"286 125 OFFCURVE",
"324 73 OFFCURVE",
"346 42 CURVE",
"370 13 OFFCURVE",
"438 -47 OFFCURVE",
"461 -45 CURVE",
"496 -61 OFFCURVE",
"506 -55 OFFCURVE",
"515 -49 CURVE SMOOTH",
"544 -30 OFFCURVE",
"541 13 OFFCURVE",
"539 20 CURVE SMOOTH",
"537 31 OFFCURVE",
"506 49 OFFCURVE",
"497 52 CURVE SMOOTH",
"485 52 OFFCURVE",
"459 68 OFFCURVE",
"429 101 CURVE SMOOTH",
"406 124 OFFCURVE",
"386 160 OFFCURVE",
"370 195 CURVE SMOOTH",
"350 231 OFFCURVE",
"335 275 OFFCURVE",
"329 347 CURVE"
);
}
);
};
layerId = "C211B134-F0DF-4134-92B2-996AB8C0D30E";
paths = (
{
closed = 1;
nodes = (
"137 -72 OFFCURVE",
"140 -61 OFFCURVE",
"195 114 CURVE",
"223 213 OFFCURVE",
"239 248 OFFCURVE",
"240 253 CURVE",
"281 354 LINE",
"280 371 OFFCURVE",
"356 534 OFFCURVE",
"384 593 CURVE",
"395 609 OFFCURVE",
"389 631 OFFCURVE",
"378 653 CURVE",
"367 676 OFFCURVE",
"329 663 OFFCURVE",
"312 651 CURVE",
"307 646 OFFCURVE",
"301 635 OFFCURVE",
"301 635 CURVE",
"301 635 OFFCURVE",
"296 613 OFFCURVE",
"283 593 CURVE",
"273 571 OFFCURVE",
"260 549 OFFCURVE",
"260 543 CURVE",
"260 538 OFFCURVE",
"260 532 OFFCURVE",
"260 532 CURVE",
"254 532 OFFCURVE",
"233 478 OFFCURVE",
"216 441 CURVE",
"199 396 OFFCURVE",
"182 347 OFFCURVE",
"174 325 CURVE",
"169 303 OFFCURVE",
"158 283 OFFCURVE",
"150 266 CURVE",
"150 255 OFFCURVE",
"146 233 OFFCURVE",
"140 217 CURVE",
"133 206 OFFCURVE",
"127 195 OFFCURVE",
"127 184 CURVE",
"127 178 OFFCURVE",
"114 151 OFFCURVE",
"104 125 CURVE",
"97 98 OFFCURVE",
"86 70 OFFCURVE",
"86 59 CURVE",
"86 54 OFFCURVE",
"85 43 OFFCURVE",
"79 43 CURVE",
"78 37 OFFCURVE",
"73 21 OFFCURVE",
"74 4 CURVE",
"66 -24 OFFCURVE",
"87 -38 OFFCURVE",
"104 -48 CURVE"
);
},
{
closed = 1;
nodes = (
"531 -31 OFFCURVE",
"529 5 OFFCURVE",
"527 12 CURVE",
"525 23 OFFCURVE",
"494 41 OFFCURVE",
"485 44 CURVE",
"473 44 OFFCURVE",
"447 60 OFFCURVE",
"417 93 CURVE",
"394 116 OFFCURVE",
"374 152 OFFCURVE",
"358 187 CURVE",
"338 223 OFFCURVE",
"323 267 OFFCURVE",
"317 339 CURVE",
"244 334 LINE",
"243 264 LINE",
"245 248 OFFCURVE",
"257 225 OFFCURVE",
"266 183 CURVE",
"282 125 OFFCURVE",
"320 73 OFFCURVE",
"342 42 CURVE",
"366 13 OFFCURVE",
"434 -47 OFFCURVE",
"457 -45 CURVE",
"492 -61 OFFCURVE",
"500 -54 OFFCURVE",
"508 -47 CURVE"
);
},
{
closed = 1;
nodes = (
"263 268 OFFCURVE",
"352 336 OFFCURVE",
"372 347 CURVE",
"385 346 OFFCURVE",
"394 362 OFFCURVE",
"397 369 CURVE",
"402 375 OFFCURVE",
"416 384 OFFCURVE",
"416 384 CURVE",
"421 382 OFFCURVE",
"425 389 OFFCURVE",
"431 389 CURVE",
"442 405 OFFCURVE",
"482 438 OFFCURVE",
"536 473 CURVE",
"574 500 OFFCURVE",
"602 522 OFFCURVE",
"602 522 CURVE",
"606 530 OFFCURVE",
"628 543 OFFCURVE",
"653 555 CURVE",
"684 572 OFFCURVE",
"688 579 OFFCURVE",
"686 592 CURVE",
"688 608 OFFCURVE",
"659 658 OFFCURVE",
"643 651 CURVE",
"637 652 OFFCURVE",
"619 638 OFFCURVE",
"596 622 CURVE",
"577 610 OFFCURVE",
"537 577 OFFCURVE",
"504 560 CURVE",
"381 460 LINE",
"324 417 OFFCURVE",
"302 395 OFFCURVE",
"298 391 CURVE",
"225 338 LINE",
"261 262 LINE"
);
}
);
width = 503;
}
);
unicode = 004B;
},
{
glyphname = L;
layers = (
{
anchors = (
{
name = bottom;
position = "{173, -110}";
},
{
name = caronalt;
position = "{355, 560}";
},
{
name = periodcentered;
position = "{333, 305}";
},
{
name = topUC;
position = "{499, 785}";
}
);
background = {
paths = (
{
closed = 1;
nodes = (
"306 633 OFFCURVE",
"239 522 OFFCURVE",
"210 458 CURVE",
"203 443 OFFCURVE",
"197 425 OFFCURVE",
"196 419 CURVE",
"192 413 OFFCURVE",
"188 406 OFFCURVE",
"185 398 CURVE",
"185 396 LINE",
"178 385 OFFCURVE",
"151 315 OFFCURVE",
"150 306 CURVE",
"150 306 OFFCURVE",
"144 294 OFFCURVE",
"141 291 CURVE",
"137 285 OFFCURVE",
"132 274 OFFCURVE",
"133 269 CURVE",
"133 269 OFFCURVE",
"136 259 OFFCURVE",
"128 251 CURVE SMOOTH",
"123 245 OFFCURVE",
"118 234 OFFCURVE",
"118 234 CURVE",
"119 229 OFFCURVE",
"120 219 OFFCURVE",
"114 203 CURVE SMOOTH",
"110 190 OFFCURVE",
"106 175 OFFCURVE",
"107 170 CURVE SMOOTH",
"107 165 OFFCURVE",
"107 160 OFFCURVE",
"104 158 CURVE SMOOTH",
"99 152 OFFCURVE",
"102 89 OFFCURVE",
"105 64 CURVE",
"117 21 OFFCURVE",
"164 -25 OFFCURVE",
"217 -38 CURVE",
"248 -49 OFFCURVE",
"318 -42 OFFCURVE",
"359 -24 CURVE",
"396 -13 OFFCURVE",
"443 14 OFFCURVE",
"447 24 CURVE SMOOTH",
"451 36 OFFCURVE",
"448 42 OFFCURVE",
"441 48 CURVE SMOOTH",
"434 53 OFFCURVE",
"423 49 OFFCURVE",
"394 41 CURVE SMOOTH",
"386 38 OFFCURVE",
"370 34 OFFCURVE",
"354 32 CURVE SMOOTH",
"336 28 OFFCURVE",
"316 23 OFFCURVE",
"299 20 CURVE",
"300 20 LINE",
"271 15 OFFCURVE",
"256 12 OFFCURVE",
"245 14 CURVE SMOOTH",
"235 14 OFFCURVE",
"226 17 OFFCURVE",
"211 23 CURVE SMOOTH",
"181 35 OFFCURVE",
"159 53 OFFCURVE",
"156 76 CURVE",
"153 102 OFFCURVE",
"164 168 OFFCURVE",
"179 205 CURVE SMOOTH",
"179 215 OFFCURVE",
"179 228 OFFCURVE",
"186 234 CURVE SMOOTH",
"190 243 OFFCURVE",
"190 252 OFFCURVE",
"193 251 CURVE",
"193 251 OFFCURVE",
"193 262 OFFCURVE",
"201 272 CURVE",
"214 309 OFFCURVE",
"226 340 OFFCURVE",
"246 382 CURVE SMOOTH",
"247 384 OFFCURVE",
"248 387 OFFCURVE",
"250 391 CURVE",
"250 391 OFFCURVE",
"267 424 OFFCURVE",
"285 463 CURVE",
"316 519 OFFCURVE",
"382 616 OFFCURVE",
"400 628 CURVE",
"407 629 OFFCURVE",
"406 656 OFFCURVE",
"392 671 CURVE",
"372 691 OFFCURVE",
"362 690 OFFCURVE",
"340 665 CURVE"
);
}
);
};
layerId = "5B238DC5-4F6F-4A74-B879-7A3E5189648B";
paths = (
{
closed = 1;
nodes = (
"248 -49 OFFCURVE",
"318 -42 OFFCURVE",
"359 -24 CURVE",
"396 -13 OFFCURVE",
"443 14 OFFCURVE",
"447 24 CURVE SMOOTH",
"451 36 OFFCURVE",
"448 42 OFFCURVE",
"441 48 CURVE SMOOTH",
"434 53 OFFCURVE",
"423 49 OFFCURVE",
"394 41 CURVE SMOOTH",
"386 38 OFFCURVE",
"370 34 OFFCURVE",
"354 32 CURVE SMOOTH",
"336 28 OFFCURVE",
"316 23 OFFCURVE",
"299 20 CURVE",
"300 20 LINE",
"271 15 OFFCURVE",
"256 12 OFFCURVE",
"245 14 CURVE SMOOTH",
"235 14 OFFCURVE",
"226 17 OFFCURVE",
"211 23 CURVE SMOOTH",
"181 35 OFFCURVE",
"159 53 OFFCURVE",
"156 76 CURVE",
"153 102 OFFCURVE",
"164 168 OFFCURVE",
"179 205 CURVE SMOOTH",
"179 215 OFFCURVE",
"179 228 OFFCURVE",
"186 234 CURVE SMOOTH",
"190 243 OFFCURVE",
"190 252 OFFCURVE",
"193 251 CURVE",
"193 251 OFFCURVE",
"193 262 OFFCURVE",
"201 272 CURVE",
"214 309 OFFCURVE",
"226 340 OFFCURVE",
"246 382 CURVE SMOOTH",
"247 384 OFFCURVE",
"248 387 OFFCURVE",
"250 391 CURVE",
"250 391 OFFCURVE",
"267 424 OFFCURVE",
"285 463 CURVE",
"316 519 OFFCURVE",
"382 616 OFFCURVE",
"400 628 CURVE",
"407 629 OFFCURVE",
"406 656 OFFCURVE",
"392 671 CURVE",
"372 691 OFFCURVE",
"362 690 OFFCURVE",
"340 665 CURVE",
"306 633 OFFCURVE",
"239 522 OFFCURVE",
"210 458 CURVE",
"203 443 OFFCURVE",
"197 425 OFFCURVE",
"196 419 CURVE",
"192 413 OFFCURVE",
"188 406 OFFCURVE",
"185 398 CURVE",
"185 396 LINE",
"178 385 OFFCURVE",
"151 315 OFFCURVE",
"150 306 CURVE",
"150 306 OFFCURVE",
"144 294 OFFCURVE",
"141 291 CURVE",
"137 285 OFFCURVE",
"132 274 OFFCURVE",
"133 269 CURVE",
"133 269 OFFCURVE",
"136 259 OFFCURVE",
"128 251 CURVE SMOOTH",
"123 245 OFFCURVE",
"118 234 OFFCURVE",
"118 234 CURVE",
"119 229 OFFCURVE",
"120 219 OFFCURVE",
"114 203 CURVE SMOOTH",
"110 190 OFFCURVE",
"106 175 OFFCURVE",
"107 170 CURVE SMOOTH",
"107 165 OFFCURVE",
"107 160 OFFCURVE",
"104 158 CURVE SMOOTH",
"99 152 OFFCURVE",
"102 89 OFFCURVE",
"105 64 CURVE",
"117 21 OFFCURVE",
"164 -25 OFFCURVE",
"217 -38 CURVE"
);
}
);
width = 426;
},
{
background = {
paths = (
{
closed = 1;
nodes = (
"301 633 OFFCURVE",
"234 522 OFFCURVE",
"205 458 CURVE",
"198 443 OFFCURVE",
"192 425 OFFCURVE",
"191 419 CURVE",
"187 413 OFFCURVE",
"183 406 OFFCURVE",
"180 398 CURVE",
"180 396 LINE",
"173 385 OFFCURVE",
"146 315 OFFCURVE",
"145 306 CURVE",
"145 306 OFFCURVE",
"139 294 OFFCURVE",
"136 291 CURVE",
"132 285 OFFCURVE",
"127 274 OFFCURVE",
"128 269 CURVE",
"128 269 OFFCURVE",
"131 259 OFFCURVE",
"123 251 CURVE",
"118 245 OFFCURVE",
"113 234 OFFCURVE",
"113 234 CURVE",
"114 229 OFFCURVE",
"115 219 OFFCURVE",
"109 203 CURVE",
"105 190 OFFCURVE",
"101 175 OFFCURVE",
"102 170 CURVE",
"102 165 OFFCURVE",
"102 160 OFFCURVE",
"99 158 CURVE",
"94 152 OFFCURVE",
"92 84 OFFCURVE",
"95 59 CURVE",
"112 5 OFFCURVE",
"149 -40 OFFCURVE",
"202 -53 CURVE",
"233 -64 OFFCURVE",
"318 -62 OFFCURVE",
"359 -44 CURVE",
"396 -33 OFFCURVE",
"453 11 OFFCURVE",
"457 21 CURVE",
"461 33 OFFCURVE",
"453 46 OFFCURVE",
"446 52 CURVE",
"439 57 OFFCURVE",
"423 51 OFFCURVE",
"394 43 CURVE",
"386 40 OFFCURVE",
"370 36 OFFCURVE",
"354 34 CURVE",
"336 30 OFFCURVE",
"316 25 OFFCURVE",
"299 22 CURVE",
"300 22 LINE",
"271 17 OFFCURVE",
"256 14 OFFCURVE",
"245 16 CURVE",
"235 16 OFFCURVE",
"224 20 OFFCURVE",
"210 27 CURVE",
"187 37 OFFCURVE",
"174 53 OFFCURVE",
"171 76 CURVE",
"168 102 OFFCURVE",
"179 168 OFFCURVE",
"194 205 CURVE",
"194 215 OFFCURVE",
"194 228 OFFCURVE",
"201 234 CURVE",
"205 243 OFFCURVE",
"205 252 OFFCURVE",
"208 251 CURVE",
"208 251 OFFCURVE",
"208 262 OFFCURVE",
"216 272 CURVE",
"229 309 OFFCURVE",
"241 340 OFFCURVE",
"261 382 CURVE",
"262 384 OFFCURVE",
"263 387 OFFCURVE",
"265 391 CURVE",
"265 391 OFFCURVE",
"282 424 OFFCURVE",
"300 463 CURVE",
"331 519 OFFCURVE",
"387 616 OFFCURVE",
"405 628 CURVE",
"418 630 OFFCURVE",
"411 666 OFFCURVE",
"397 681 CURVE",
"377 701 OFFCURVE",
"357 690 OFFCURVE",
"335 665 CURVE"
);
},
{
closed = 1;
nodes = (
"296 633 OFFCURVE",
"229 522 OFFCURVE",
"200 458 CURVE",
"193 443 OFFCURVE",
"187 425 OFFCURVE",
"186 419 CURVE",
"182 413 OFFCURVE",
"178 406 OFFCURVE",
"175 398 CURVE",
"175 396 LINE",
"168 385 OFFCURVE",
"141 315 OFFCURVE",
"140 306 CURVE",
"140 306 OFFCURVE",
"134 294 OFFCURVE",
"131 291 CURVE",
"127 285 OFFCURVE",
"122 274 OFFCURVE",
"123 269 CURVE",
"123 269 OFFCURVE",
"126 259 OFFCURVE",
"118 251 CURVE SMOOTH",
"113 245 OFFCURVE",
"108 234 OFFCURVE",
"108 234 CURVE",
"109 229 OFFCURVE",
"110 219 OFFCURVE",
"104 203 CURVE SMOOTH",
"100 190 OFFCURVE",
"96 175 OFFCURVE",
"97 170 CURVE SMOOTH",
"97 165 OFFCURVE",
"97 160 OFFCURVE",
"94 158 CURVE SMOOTH",
"89 152 OFFCURVE",
"82 79 OFFCURVE",
"85 54 CURVE",
"108 -11 OFFCURVE",
"134 -55 OFFCURVE",
"187 -68 CURVE",
"218 -79 OFFCURVE",
"318 -82 OFFCURVE",
"359 -64 CURVE",
"396 -53 OFFCURVE",
"463 8 OFFCURVE",
"467 18 CURVE SMOOTH",
"471 30 OFFCURVE",
"458 51 OFFCURVE",
"451 57 CURVE SMOOTH",
"444 62 OFFCURVE",
"423 53 OFFCURVE",
"394 45 CURVE SMOOTH",
"386 42 OFFCURVE",
"370 38 OFFCURVE",
"354 36 CURVE SMOOTH",
"336 32 OFFCURVE",
"316 27 OFFCURVE",
"299 24 CURVE",
"300 24 LINE",
"271 19 OFFCURVE",
"256 16 OFFCURVE",
"245 18 CURVE SMOOTH",
"235 18 OFFCURVE",
"223 24 OFFCURVE",
"209 32 CURVE SMOOTH",
"194 40 OFFCURVE",
"189 53 OFFCURVE",
"186 76 CURVE",
"183 102 OFFCURVE",
"194 168 OFFCURVE",
"209 205 CURVE SMOOTH",
"209 215 OFFCURVE",
"209 228 OFFCURVE",
"216 234 CURVE SMOOTH",
"220 243 OFFCURVE",
"220 252 OFFCURVE",
"223 251 CURVE",
"223 251 OFFCURVE",
"223 262 OFFCURVE",
"231 272 CURVE",
"244 309 OFFCURVE",
"256 340 OFFCURVE",
"276 382 CURVE SMOOTH",
"277 384 OFFCURVE",
"278 387 OFFCURVE",
"280 391 CURVE",
"280 391 OFFCURVE",
"297 424 OFFCURVE",
"315 463 CURVE",
"346 519 OFFCURVE",
"392 616 OFFCURVE",
"410 628 CURVE",
"429 631 OFFCURVE",
"416 676 OFFCURVE",
"402 691 CURVE",
"382 711 OFFCURVE",
"352 690 OFFCURVE",
"330 665 CURVE"
);
}
);
};
layerId = "C211B134-F0DF-4134-92B2-996AB8C0D30E";
paths = (
{
closed = 1;
nodes = (
"225 -72 OFFCURVE",
"318 -72 OFFCURVE",
"359 -54 CURVE",
"396 -43 OFFCURVE",
"458 9 OFFCURVE",
"462 19 CURVE",
"466 31 OFFCURVE",
"455 48 OFFCURVE",
"448 54 CURVE",
"441 59 OFFCURVE",
"423 52 OFFCURVE",
"394 44 CURVE",
"386 41 OFFCURVE",
"370 37 OFFCURVE",
"354 35 CURVE",
"336 31 OFFCURVE",
"316 26 OFFCURVE",
"299 23 CURVE",
"300 23 LINE",
"271 18 OFFCURVE",
"256 15 OFFCURVE",
"245 17 CURVE",
"235 17 OFFCURVE",
"223 22 OFFCURVE",
"209 29 CURVE",
"190 38 OFFCURVE",
"181 53 OFFCURVE",
"178 76 CURVE",
"175 102 OFFCURVE",
"186 168 OFFCURVE",
"201 205 CURVE",
"201 215 OFFCURVE",
"201 228 OFFCURVE",
"208 234 CURVE",
"212 243 OFFCURVE",
"212 252 OFFCURVE",
"215 251 CURVE",
"215 251 OFFCURVE",
"215 262 OFFCURVE",
"223 272 CURVE",
"236 309 OFFCURVE",
"248 340 OFFCURVE",
"268 382 CURVE",
"269 384 OFFCURVE",
"270 387 OFFCURVE",
"272 391 CURVE",
"272 391 OFFCURVE",
"289 424 OFFCURVE",
"307 463 CURVE",
"338 519 OFFCURVE",
"389 616 OFFCURVE",
"407 628 CURVE",
"423 630 OFFCURVE",
"413 671 OFFCURVE",
"399 686 CURVE",
"379 706 OFFCURVE",
"354 690 OFFCURVE",
"332 665 CURVE",
"298 633 OFFCURVE",
"231 522 OFFCURVE",
"202 458 CURVE",
"195 443 OFFCURVE",
"189 425 OFFCURVE",
"188 419 CURVE",
"184 413 OFFCURVE",
"180 406 OFFCURVE",
"177 398 CURVE",
"177 396 LINE",
"170 385 OFFCURVE",
"143 315 OFFCURVE",
"142 306 CURVE",
"142 306 OFFCURVE",
"136 294 OFFCURVE",
"133 291 CURVE",
"129 285 OFFCURVE",
"124 274 OFFCURVE",
"125 269 CURVE",
"125 269 OFFCURVE",
"128 259 OFFCURVE",
"120 251 CURVE",
"115 245 OFFCURVE",
"110 234 OFFCURVE",
"110 234 CURVE",
"111 229 OFFCURVE",
"112 219 OFFCURVE",
"106 203 CURVE",
"102 190 OFFCURVE",
"98 175 OFFCURVE",
"99 170 CURVE",
"99 165 OFFCURVE",
"99 160 OFFCURVE",
"96 158 CURVE",
"91 152 OFFCURVE",
"87 81 OFFCURVE",
"90 56 CURVE",
"110 -3 OFFCURVE",
"141 -48 OFFCURVE",
"194 -61 CURVE"
);
}
);
width = 426;
}
);
unicode = 004C;
},
{
glyphname = Lslash;
layers = (
{
components = (
{
name = L;
}
);
layerId = "5B238DC5-4F6F-4A74-B879-7A3E5189648B";
paths = (
{
closed = 1;
nodes = (
"67 214 OFFCURVE",
"73 212 OFFCURVE",
"91 221 CURVE",
"107 222 OFFCURVE",
"117 227 OFFCURVE",
"124 231 CURVE SMOOTH",
"158 246 OFFCURVE",
"336 330 OFFCURVE",
"351 329 CURVE SMOOTH",
"370 345 OFFCURVE",
"397 359 OFFCURVE",
"403 368 CURVE",
"431 378 OFFCURVE",
"426 401 OFFCURVE",
"400 409 CURVE SMOOTH",
"382 413 OFFCURVE",
"376 411 OFFCURVE",
"345 398 CURVE SMOOTH",
"297 375 OFFCURVE",
"119 303 OFFCURVE",
"85 265 CURVE",
"41 248 OFFCURVE",
"37 230 OFFCURVE",
"59 220 CURVE"
);
}
);
width = 426;
},
{
background = {
paths = (
{
closed = 1;
nodes = (
"41 248 OFFCURVE",
"37 230 OFFCURVE",
"59 220 CURVE",
"67 214 OFFCURVE",
"73 212 OFFCURVE",
"91 221 CURVE",
"107 222 OFFCURVE",
"117 227 OFFCURVE",
"124 231 CURVE",
"158 246 OFFCURVE",
"336 330 OFFCURVE",
"351 329 CURVE",
"370 345 OFFCURVE",
"397 359 OFFCURVE",
"403 368 CURVE",
"431 378 OFFCURVE",
"426 401 OFFCURVE",
"400 409 CURVE",
"382 413 OFFCURVE",
"376 411 OFFCURVE",
"345 398 CURVE",
"297 375 OFFCURVE",
"119 303 OFFCURVE",
"85 265 CURVE"
);
},
{
closed = 1;
nodes = (
"41 248 OFFCURVE",
"37 230 OFFCURVE",
"59 220 CURVE",
"67 214 OFFCURVE",
"73 212 OFFCURVE",
"91 221 CURVE",
"107 222 OFFCURVE",
"117 227 OFFCURVE",
"124 231 CURVE SMOOTH",
"158 246 OFFCURVE",
"336 330 OFFCURVE",
"351 329 CURVE SMOOTH",
"370 345 OFFCURVE",
"397 359 OFFCURVE",
"403 368 CURVE",
"431 378 OFFCURVE",
"426 401 OFFCURVE",
"400 409 CURVE SMOOTH",
"382 413 OFFCURVE",
"376 411 OFFCURVE",
"345 398 CURVE SMOOTH",
"297 375 OFFCURVE",
"119 303 OFFCURVE",
"85 265 CURVE"
);
}
);
};
components = (
{
name = L;
}
);
layerId = "C211B134-F0DF-4134-92B2-996AB8C0D30E";
paths = (
{
closed = 1;
nodes = (
"67 214 OFFCURVE",
"73 212 OFFCURVE",
"91 221 CURVE",
"107 222 OFFCURVE",
"117 227 OFFCURVE",
"124 231 CURVE",
"158 246 OFFCURVE",
"336 330 OFFCURVE",
"351 329 CURVE",
"370 345 OFFCURVE",
"397 359 OFFCURVE",
"403 368 CURVE",
"431 378 OFFCURVE",
"426 401 OFFCURVE",
"400 409 CURVE",
"382 413 OFFCURVE",
"376 411 OFFCURVE",
"345 398 CURVE",
"297 375 OFFCURVE",
"119 303 OFFCURVE",
"85 265 CURVE",
"41 248 OFFCURVE",
"37 230 OFFCURVE",
"59 220 CURVE"
);
}
);
width = 426;
}
);
unicode = 0141;
},
{
glyphname = M;
layers = (
{
background = {
paths = (
{
closed = 1;
nodes = (
"713 643 OFFCURVE",
"684 591 OFFCURVE",
"653 544 CURVE",
"525 319 OFFCURVE",
"455 212 OFFCURVE",
"435 175 CURVE",
"419 155 OFFCURVE",
"400 129 OFFCURVE",
"391 113 CURVE",
"375 82 OFFCURVE",
"371 82 OFFCURVE",
"362 88 CURVE",
"352 102 OFFCURVE",
"384 337 OFFCURVE",
"427 467 CURVE",
"428 482 OFFCURVE",
"438 524 OFFCURVE",
"439 553 CURVE",
"448 601 OFFCURVE",
"437 609 OFFCURVE",
"426 625 CURVE SMOOTH",
"414 640 OFFCURVE",
"404 640 OFFCURVE",
"391 640 CURVE SMOOTH",
"379 642 OFFCURVE",
"365 614 OFFCURVE",
"365 586 CURVE SMOOTH",
"365 577 OFFCURVE",
"355 563 OFFCURVE",
"349 556 CURVE SMOOTH",
"327 536 OFFCURVE",
"284 458 OFFCURVE",
"223 353 CURVE",
"200 306 OFFCURVE",
"167 249 OFFCURVE",
"151 224 CURVE SMOOTH",
"136 194 OFFCURVE",
"120 167 OFFCURVE",
"114 159 CURVE",
"112 144 OFFCURVE",
"107 134 OFFCURVE",
"100 124 CURVE SMOOTH",
"92 118 OFFCURVE",
"76 89 OFFCURVE",
"59 55 CURVE",
"34 -1 OFFCURVE",
"31 -7 OFFCURVE",
"37 -21 CURVE",
"50 -35 OFFCURVE",
"63 -46 OFFCURVE",
"75 -46 CURVE",
"82 -38 OFFCURVE",
"84 -28 OFFCURVE",
"222 227 CURVE",
"265 321 OFFCURVE",
"318 401 OFFCURVE",
"327 416 CURVE",
"339 435 OFFCURVE",
"343 433 OFFCURVE",
"340 406 CURVE",
"332 386 OFFCURVE",
"316 279 OFFCURVE",
"298 186 CURVE",
"286 94 OFFCURVE",
"288 53 OFFCURVE",
"315 22 CURVE",
"350 -10 OFFCURVE",
"371 -1 OFFCURVE",
"418 48 CURVE",
"441 74 OFFCURVE",
"476 124 OFFCURVE",
"476 130 CURVE SMOOTH",
"476 130 OFFCURVE",
"488 153 OFFCURVE",
"501 171 CURVE SMOOTH",
"517 191 OFFCURVE",
"531 213 OFFCURVE",
"537 228 CURVE",
"540 234 OFFCURVE",
"554 263 OFFCURVE",
"566 280 CURVE",
"584 311 OFFCURVE",
"610 362 OFFCURVE",
"632 402 CURVE",
"654 437 OFFCURVE",
"674 485 OFFCURVE",
"687 498 CURVE",
"702 521 OFFCURVE",
"712 535 OFFCURVE",
"712 535 CURVE",
"710 542 OFFCURVE",
"732 567 OFFCURVE",
"732 561 CURVE SMOOTH",
"732 561 OFFCURVE",
"720 491 OFFCURVE",
"697 412 CURVE",
"662 258 OFFCURVE",
"636 116 OFFCURVE",
"624 46 CURVE",
"623 3 OFFCURVE",
"620 -12 OFFCURVE",
"631 -37 CURVE",
"641 -53 OFFCURVE",
"660 -56 OFFCURVE",
"661 -48 CURVE SMOOTH",
"661 -42 OFFCURVE",
"667 -41 OFFCURVE",
"674 -43 CURVE SMOOTH",
"680 -45 OFFCURVE",
"681 -25 OFFCURVE",
"687 27 CURVE SMOOTH",
"687 69 OFFCURVE",
"690 113 OFFCURVE",
"702 135 CURVE",
"699 149 OFFCURVE",
"711 199 OFFCURVE",
"718 243 CURVE",
"734 290 OFFCURVE",
"751 354 OFFCURVE",
"758 389 CURVE",
"785 472 OFFCURVE",
"799 557 OFFCURVE",
"798 586 CURVE",
"795 645 OFFCURVE",
"758 681 OFFCURVE",
"730 656 CURVE"
);
}
);
};
layerId = "5B238DC5-4F6F-4A74-B879-7A3E5189648B";
paths = (
{
closed = 1;
nodes = (
"661 -42 OFFCURVE",
"667 -41 OFFCURVE",
"674 -43 CURVE SMOOTH",
"680 -45 OFFCURVE",
"681 -25 OFFCURVE",
"687 27 CURVE SMOOTH",
"687 69 OFFCURVE",
"690 113 OFFCURVE",
"702 135 CURVE",
"699 149 OFFCURVE",
"711 199 OFFCURVE",
"718 243 CURVE",
"734 290 OFFCURVE",
"751 354 OFFCURVE",
"758 389 CURVE",
"785 472 OFFCURVE",
"799 557 OFFCURVE",
"798 586 CURVE",
"795 645 OFFCURVE",
"758 681 OFFCURVE",
"730 656 CURVE",
"713 643 OFFCURVE",
"684 591 OFFCURVE",
"653 544 CURVE",
"525 319 OFFCURVE",
"455 212 OFFCURVE",
"435 175 CURVE",
"419 155 OFFCURVE",
"400 129 OFFCURVE",
"391 113 CURVE",
"375 82 OFFCURVE",
"371 82 OFFCURVE",
"362 88 CURVE",
"352 102 OFFCURVE",
"384 337 OFFCURVE",
"427 467 CURVE",
"428 482 OFFCURVE",
"438 524 OFFCURVE",
"439 553 CURVE",
"448 601 OFFCURVE",
"437 609 OFFCURVE",
"426 625 CURVE SMOOTH",
"414 640 OFFCURVE",
"404 640 OFFCURVE",
"391 640 CURVE SMOOTH",
"379 642 OFFCURVE",
"365 614 OFFCURVE",
"365 586 CURVE SMOOTH",
"365 577 OFFCURVE",
"355 563 OFFCURVE",
"349 556 CURVE SMOOTH",
"327 536 OFFCURVE",
"284 458 OFFCURVE",
"223 353 CURVE",
"200 306 OFFCURVE",
"167 249 OFFCURVE",
"151 224 CURVE SMOOTH",
"136 194 OFFCURVE",
"120 167 OFFCURVE",
"114 159 CURVE",
"112 144 OFFCURVE",
"107 134 OFFCURVE",
"100 124 CURVE SMOOTH",
"92 118 OFFCURVE",
"76 89 OFFCURVE",
"59 55 CURVE",
"34 -1 OFFCURVE",
"31 -7 OFFCURVE",
"37 -21 CURVE",
"50 -35 OFFCURVE",
"63 -46 OFFCURVE",
"75 -46 CURVE",
"82 -38 OFFCURVE",
"84 -28 OFFCURVE",
"222 227 CURVE",
"265 321 OFFCURVE",
"318 401 OFFCURVE",
"327 416 CURVE",
"339 435 OFFCURVE",
"343 433 OFFCURVE",
"340 406 CURVE",
"332 386 OFFCURVE",
"316 279 OFFCURVE",
"298 186 CURVE",
"286 94 OFFCURVE",
"288 53 OFFCURVE",
"315 22 CURVE",
"350 -10 OFFCURVE",
"371 -1 OFFCURVE",
"418 48 CURVE",
"441 74 OFFCURVE",
"476 124 OFFCURVE",
"476 130 CURVE SMOOTH",
"476 130 OFFCURVE",
"488 153 OFFCURVE",
"501 171 CURVE SMOOTH",
"517 191 OFFCURVE",
"531 213 OFFCURVE",
"537 228 CURVE",
"540 234 OFFCURVE",
"554 263 OFFCURVE",
"566 280 CURVE",
"584 311 OFFCURVE",
"610 362 OFFCURVE",
"632 402 CURVE",
"654 437 OFFCURVE",
"674 485 OFFCURVE",
"687 498 CURVE",
"702 521 OFFCURVE",
"712 535 OFFCURVE",
"712 535 CURVE",
"710 542 OFFCURVE",
"732 567 OFFCURVE",
"732 561 CURVE SMOOTH",
"732 561 OFFCURVE",
"720 491 OFFCURVE",
"697 412 CURVE",
"662 258 OFFCURVE",
"636 116 OFFCURVE",
"624 46 CURVE",
"623 3 OFFCURVE",
"620 -12 OFFCURVE",
"631 -37 CURVE",
"641 -53 OFFCURVE",
"660 -56 OFFCURVE",
"661 -48 CURVE SMOOTH"
);
}
);
width = 720;
},
{
background = {
paths = (
{
closed = 1;
nodes = (
"722 653 OFFCURVE",
"688 591 OFFCURVE",
"657 544 CURVE",
"459 195 OFFCURVE",
"454 210 OFFCURVE",
"415 148 CURVE",
"404 126 OFFCURVE",
"398 120 OFFCURVE",
"393 120 CURVE SMOOTH",
"389 120 OFFCURVE",
"384 121 OFFCURVE",
"384 133 CURVE SMOOTH",
"384 170 OFFCURVE",
"411 295 OFFCURVE",
"443 446 CURVE",
"450 467 LINE",
"451 487 OFFCURVE",
"464 548 OFFCURVE",
"464 574 CURVE SMOOTH",
"464 622 OFFCURVE",
"422 650 OFFCURVE",
"398 650 CURVE SMOOTH",
"390 650 OFFCURVE",
"379 634 OFFCURVE",
"375 617 CURVE",
"355 591 OFFCURVE",
"347 569 OFFCURVE",
"332 548 CURVE",
"309 522 OFFCURVE",
"272 449 OFFCURVE",
"216 353 CURVE",
"193 306 OFFCURVE",
"160 249 OFFCURVE",
"144 224 CURVE",
"129 194 OFFCURVE",
"113 167 OFFCURVE",
"107 159 CURVE",
"102 125 OFFCURVE",
"91 135 OFFCURVE",
"52 55 CURVE SMOOTH",
"38 26 OFFCURVE",
"35 12 OFFCURVE",
"34 2 CURVE",
"34 -35 OFFCURVE",
"70 -54 OFFCURVE",
"81 -54 CURVE",
"88 -46 OFFCURVE",
"101 -26 OFFCURVE",
"239 228 CURVE",
"324 416 OFFCURVE",
"364 450 OFFCURVE",
"359 450 CURVE SMOOTH",
"361 450 OFFCURVE",
"362 448 OFFCURVE",
"362 442 CURVE SMOOTH",
"362 438 OFFCURVE",
"362 434 OFFCURVE",
"361 428 CURVE",
"354 409 OFFCURVE",
"326 289 OFFCURVE",
"306 195 CURVE",
"301 159 OFFCURVE",
"297 128 OFFCURVE",
"297 107 CURVE SMOOTH",
"297 54 OFFCURVE",
"330 14 OFFCURVE",
"363 14 CURVE SMOOTH",
"387 14 OFFCURVE",
"422 37 OFFCURVE",
"457 79 CURVE SMOOTH",
"502 133 OFFCURVE",
"485 112 OFFCURVE",
"525 167 CURVE",
"559 210 OFFCURVE",
"551 221 OFFCURVE",
"590 276 CURVE",
"659 404 LINE",
"689 456 OFFCURVE",
"715 509 OFFCURVE",
"718 507 CURVE",
"720 516 OFFCURVE",
"733 532 OFFCURVE",
"735 532 CURVE",
"727 491 OFFCURVE",
"632 102 OFFCURVE",
"624 46 CURVE",
"623 28 OFFCURVE",
"623 16 OFFCURVE",
"623 5 CURVE SMOOTH",
"623 -20 OFFCURVE",
"629 -52 OFFCURVE",
"661 -52 CURVE SMOOTH",
"674 -52 OFFCURVE",
"667 -42 OFFCURVE",
"677 -42 CURVE SMOOTH",
"679 -42 OFFCURVE",
"681 -43 OFFCURVE",
"684 -43 CURVE SMOOTH",
"690 -43 OFFCURVE",
"704 -23 OFFCURVE",
"710 27 CURVE",
"710 69 OFFCURVE",
"713 113 OFFCURVE",
"725 135 CURVE",
"725 136 OFFCURVE",
"724 138 OFFCURVE",
"724 141 CURVE SMOOTH",
"724 193 OFFCURVE",
"767 319 OFFCURVE",
"781 389 CURVE",
"808 472 OFFCURVE",
"826 566 OFFCURVE",
"826 596 CURVE SMOOTH",
"826 642 OFFCURVE",
"787 674 OFFCURVE",
"761 674 CURVE SMOOTH",
"753 674 OFFCURVE",
"745 671 OFFCURVE",
"739 666 CURVE SMOOTH"
);
},
{
closed = 1;
nodes = (
"732 663 OFFCURVE",
"693 591 OFFCURVE",
"662 544 CURVE",
"534 319 OFFCURVE",
"494 272 OFFCURVE",
"474 235 CURVE",
"458 215 OFFCURVE",
"449 199 OFFCURVE",
"440 183 CURVE",
"424 152 OFFCURVE",
"420 152 OFFCURVE",
"411 158 CURVE",
"401 172 OFFCURVE",
"436 257 OFFCURVE",
"473 467 CURVE",
"474 482 OFFCURVE",
"484 524 OFFCURVE",
"485 553 CURVE",
"494 601 OFFCURVE",
"456 629 OFFCURVE",
"445 645 CURVE SMOOTH",
"433 660 OFFCURVE",
"420 660 OFFCURVE",
"407 660 CURVE SMOOTH",
"395 662 OFFCURVE",
"344 614 OFFCURVE",
"344 586 CURVE SMOOTH",
"344 577 OFFCURVE",
"334 563 OFFCURVE",
"328 556 CURVE SMOOTH",
"306 536 OFFCURVE",
"270 458 OFFCURVE",
"209 353 CURVE",
"186 306 OFFCURVE",
"153 249 OFFCURVE",
"137 224 CURVE SMOOTH",
"122 194 OFFCURVE",
"106 167 OFFCURVE",
"100 159 CURVE",
"98 144 OFFCURVE",
"93 134 OFFCURVE",
"86 124 CURVE SMOOTH",
"78 118 OFFCURVE",
"62 89 OFFCURVE",
"45 55 CURVE",
"20 -1 OFFCURVE",
"44 -24 OFFCURVE",
"50 -38 CURVE",
"63 -52 OFFCURVE",
"76 -63 OFFCURVE",
"88 -63 CURVE",
"95 -55 OFFCURVE",
"119 -25 OFFCURVE",
"257 230 CURVE",
"300 324 OFFCURVE",
"361 445 OFFCURVE",
"370 460 CURVE",
"382 479 OFFCURVE",
"386 477 OFFCURVE",
"383 450 CURVE",
"375 430 OFFCURVE",
"325 259 OFFCURVE",
"307 166 CURVE",
"295 74 OFFCURVE",
"312 71 OFFCURVE",
"339 40 CURVE",
"374 8 OFFCURVE",
"425 30 OFFCURVE",
"472 79 CURVE",
"495 105 OFFCURVE",
"518 125 OFFCURVE",
"518 131 CURVE SMOOTH",
"518 131 OFFCURVE",
"537 146 OFFCURVE",
"550 164 CURVE SMOOTH",
"566 184 OFFCURVE",
"580 206 OFFCURVE",
"586 221 CURVE",
"589 227 OFFCURVE",
"603 256 OFFCURVE",
"615 273 CURVE",
"633 304 OFFCURVE",
"716 464 OFFCURVE",
"738 504 CURVE",
"743 501 OFFCURVE",
"626 81 OFFCURVE",
"625 46 CURVE",
"624 3 OFFCURVE",
"621 -12 OFFCURVE",
"632 -37 CURVE",
"642 -53 OFFCURVE",
"679 -56 OFFCURVE",
"680 -48 CURVE SMOOTH",
"680 -42 OFFCURVE",
"686 -41 OFFCURVE",
"693 -43 CURVE SMOOTH",
"699 -45 OFFCURVE",
"727 -25 OFFCURVE",
"733 27 CURVE SMOOTH",
"733 69 OFFCURVE",
"736 113 OFFCURVE",
"748 135 CURVE",
"745 149 OFFCURVE",
"757 199 OFFCURVE",
"764 243 CURVE",
"780 290 OFFCURVE",
"797 354 OFFCURVE",
"804 389 CURVE",
"831 472 OFFCURVE",
"855 577 OFFCURVE",
"854 606 CURVE",
"851 665 OFFCURVE",
"777 701 OFFCURVE",
"749 676 CURVE"
);
}
);
};
layerId = "C211B134-F0DF-4134-92B2-996AB8C0D30E";
paths = (
{
closed = 1;
nodes = (
"91 -50 OFFCURVE",
"110 -25 OFFCURVE",
"248 229 CURVE",
"306 356 OFFCURVE",
"356 441 OFFCURVE",
"364 454 CURVE SMOOTH",
"367 459 OFFCURVE",
"370 461 OFFCURVE",
"370 461 CURVE",
"371 460 OFFCURVE",
"372 457 OFFCURVE",
"372 452 CURVE SMOOTH",
"372 447 OFFCURVE",
"372 441 OFFCURVE",
"369 432 CURVE SMOOTH",
"359 402 OFFCURVE",
"330 287 OFFCURVE",
"310 199 CURVE",
"304 161 OFFCURVE",
"300 130 OFFCURVE",
"300 109 CURVE SMOOTH",
"300 59 OFFCURVE",
"335 20 OFFCURVE",
"370 20 CURVE SMOOTH",
"414 20 OFFCURVE",
"500 113 OFFCURVE",
"509 131 CURVE SMOOTH",
"512 137 OFFCURVE",
"560 195 OFFCURVE",
"571 219 CURVE SMOOTH",
"576 229 OFFCURVE",
"586 252 OFFCURVE",
"602 274 CURVE",
"672 405 LINE",
"721 490 OFFCURVE",
"727 504 OFFCURVE",
"736 518 CURVE",
"735 496 OFFCURVE",
"629 91 OFFCURVE",
"624 46 CURVE SMOOTH",
"623 34 OFFCURVE",
"623 24 OFFCURVE",
"623 16 CURVE SMOOTH",
"623 -17 OFFCURVE",
"626 -51 OFFCURVE",
"663 -51 CURVE SMOOTH",
"678 -51 OFFCURVE",
"674 -42 OFFCURVE",
"685 -42 CURVE SMOOTH",
"686 -42 OFFCURVE",
"687 -43 OFFCURVE",
"688 -43 CURVE SMOOTH",
"695 -43 OFFCURVE",
"715 -23 OFFCURVE",
"721 27 CURVE",
"721 69 OFFCURVE",
"724 113 OFFCURVE",
"736 135 CURVE",
"736 135 OFFCURVE",
"736 139 OFFCURVE",
"736 143 CURVE SMOOTH",
"736 195 OFFCURVE",
"779 320 OFFCURVE",
"792 389 CURVE",
"819 472 OFFCURVE",
"840 571 OFFCURVE",
"840 601 CURVE SMOOTH",
"840 646 OFFCURVE",
"797 678 OFFCURVE",
"769 679 CURVE SMOOTH",
"759 679 OFFCURVE",
"750 676 OFFCURVE",
"744 671 CURVE SMOOTH",
"727 658 OFFCURVE",
"690 591 OFFCURVE",
"659 544 CURVE",
"487 239 OFFCURVE",
"471 232 OFFCURVE",
"440 185 CURVE SMOOTH",
"427 165 LINE",
"418 145 OFFCURVE",
"404 139 OFFCURVE",
"403 139 CURVE SMOOTH",
"400 139 OFFCURVE",
"396 143 OFFCURVE",
"396 152 CURVE SMOOTH",
"396 186 OFFCURVE",
"425 289 OFFCURVE",
"458 456 CURVE SMOOTH",
"463 478 LINE",
"473 546 LINE SMOOTH",
"474 553 OFFCURVE",
"474 559 OFFCURVE",
"474 565 CURVE SMOOTH",
"474 626 OFFCURVE",
"424 655 OFFCURVE",
"402 655 CURVE SMOOTH",
"375 655 OFFCURVE",
"332 555 OFFCURVE",
"335 559 CURVE SMOOTH",
"330 552 LINE",
"306 528 OFFCURVE",
"212 337 OFFCURVE",
"140 224 CURVE",
"125 194 OFFCURVE",
"109 167 OFFCURVE",
"103 159 CURVE",
"99 125 OFFCURVE",
"86 134 OFFCURVE",
"48 55 CURVE SMOOTH",
"38 35 OFFCURVE",
"37 20 OFFCURVE",
"37 10 CURVE SMOOTH",
"37 -32 OFFCURVE",
"66 -58 OFFCURVE",
"84 -58 CURVE"
);
}
);
width = 729;
}
);
unicode = 004D;
},
{
glyphname = N;
layers = (
{
anchors = (
{
name = bottom;
position = "{269, -110}";
},
{
name = topUC;
position = "{513, 785}";
}
);
background = {
paths = (
{
closed = 1;
nodes = (
"640 711 OFFCURVE",
"633 697 OFFCURVE",
"633 675 CURVE SMOOTH",
"633 661 OFFCURVE",
"626 638 OFFCURVE",
"620 638 CURVE",
"621 631 OFFCURVE",
"620 625 OFFCURVE",
"620 616 CURVE SMOOTH",
"620 610 OFFCURVE",
"601 531 OFFCURVE",
"588 482 CURVE",
"582 430 OFFCURVE",
"569 373 OFFCURVE",
"562 350 CURVE",
"497 88 OFFCURVE",
"463 33 OFFCURVE",
"451 33 CURVE SMOOTH",
"439 33 OFFCURVE",
"415 139 OFFCURVE",
"407 186 CURVE SMOOTH",
"389 252 OFFCURVE",
"398 367 OFFCURVE",
"395 481 CURVE SMOOTH",
"392 577 OFFCURVE",
"385 599 OFFCURVE",
"376 620 CURVE",
"363 659 OFFCURVE",
"321 661 OFFCURVE",
"297 620 CURVE",
"261 565 OFFCURVE",
"253 516 OFFCURVE",
"219 420 CURVE",
"196 370 OFFCURVE",
"167 316 OFFCURVE",
"166 308 CURVE SMOOTH",
"166 308 OFFCURVE",
"143 237 OFFCURVE",
"111 163 CURVE",
"96 88 OFFCURVE",
"74 67 OFFCURVE",
"58 4 CURVE SMOOTH",
"48 -35 OFFCURVE",
"43 -40 OFFCURVE",
"64 -62 CURVE SMOOTH",
"90 -90 OFFCURVE",
"102 -73 OFFCURVE",
"116 -36 CURVE",
"126 -7 OFFCURVE",
"147 67 OFFCURVE",
"195 192 CURVE",
"202 221 OFFCURVE",
"214 249 OFFCURVE",
"222 265 CURVE",
"226 278 OFFCURVE",
"272 383 OFFCURVE",
"292 435 CURVE SMOOTH",
"329 541 OFFCURVE",
"333 538 OFFCURVE",
"335 443 CURVE SMOOTH",
"331 347 OFFCURVE",
"313 263 OFFCURVE",
"343 181 CURVE SMOOTH",
"362 78 OFFCURVE",
"369 35 OFFCURVE",
"408 -16 CURVE SMOOTH",
"451 -71 OFFCURVE",
"489 -53 OFFCURVE",
"521 21 CURVE",
"550 87 OFFCURVE",
"591 192 OFFCURVE",
"626 343 CURVE",
"632 342 OFFCURVE",
"640 378 OFFCURVE",
"645 413 CURVE",
"651 452 OFFCURVE",
"673 528 OFFCURVE",
"673 550 CURVE",
"693 636 OFFCURVE",
"703 688 OFFCURVE",
"701 703 CURVE",
"694 723 OFFCURVE",
"653 733 OFFCURVE",
"647 718 CURVE"
);
}
);
};
layerId = "5B238DC5-4F6F-4A74-B879-7A3E5189648B";
paths = (
{
closed = 1;
nodes = (
"90 -90 OFFCURVE",
"102 -73 OFFCURVE",
"116 -36 CURVE",
"126 -7 OFFCURVE",
"147 67 OFFCURVE",
"195 192 CURVE",
"202 221 OFFCURVE",
"214 249 OFFCURVE",
"222 265 CURVE",
"226 278 OFFCURVE",
"272 383 OFFCURVE",
"292 435 CURVE SMOOTH",
"329 541 OFFCURVE",
"333 538 OFFCURVE",
"335 443 CURVE SMOOTH",
"331 347 OFFCURVE",
"313 263 OFFCURVE",
"343 181 CURVE SMOOTH",
"362 78 OFFCURVE",
"369 35 OFFCURVE",
"408 -16 CURVE SMOOTH",
"451 -71 OFFCURVE",
"489 -53 OFFCURVE",
"521 21 CURVE",
"550 87 OFFCURVE",
"591 192 OFFCURVE",
"626 343 CURVE",
"632 342 OFFCURVE",
"640 378 OFFCURVE",
"645 413 CURVE",
"651 452 OFFCURVE",
"673 528 OFFCURVE",
"673 550 CURVE",
"693 636 OFFCURVE",
"703 688 OFFCURVE",
"701 703 CURVE",
"694 723 OFFCURVE",
"653 733 OFFCURVE",
"647 718 CURVE",
"640 711 OFFCURVE",
"633 697 OFFCURVE",
"633 675 CURVE SMOOTH",
"633 661 OFFCURVE",
"626 638 OFFCURVE",
"620 638 CURVE",
"621 631 OFFCURVE",
"620 625 OFFCURVE",
"620 616 CURVE SMOOTH",
"620 610 OFFCURVE",
"601 531 OFFCURVE",
"588 482 CURVE",
"582 430 OFFCURVE",
"569 373 OFFCURVE",
"562 350 CURVE",
"497 88 OFFCURVE",
"463 33 OFFCURVE",
"451 33 CURVE SMOOTH",
"439 33 OFFCURVE",
"415 139 OFFCURVE",
"407 186 CURVE SMOOTH",
"389 252 OFFCURVE",
"398 367 OFFCURVE",
"395 481 CURVE SMOOTH",
"392 577 OFFCURVE",
"385 599 OFFCURVE",
"376 620 CURVE",
"363 659 OFFCURVE",
"321 661 OFFCURVE",
"297 620 CURVE",
"261 565 OFFCURVE",
"253 516 OFFCURVE",
"219 420 CURVE",
"196 370 OFFCURVE",
"167 316 OFFCURVE",
"166 308 CURVE SMOOTH",
"166 308 OFFCURVE",
"143 237 OFFCURVE",
"111 163 CURVE",
"96 88 OFFCURVE",
"74 67 OFFCURVE",
"58 4 CURVE SMOOTH",
"48 -35 OFFCURVE",
"43 -40 OFFCURVE",
"64 -62 CURVE SMOOTH"
);
}
);
width = 566;
},
{
background = {
paths = (
{
closed = 1;
nodes = (
"639 711 OFFCURVE",
"632 697 OFFCURVE",
"632 675 CURVE",
"632 661 OFFCURVE",
"625 638 OFFCURVE",
"619 638 CURVE",
"620 631 OFFCURVE",
"619 625 OFFCURVE",
"619 616 CURVE",
"619 610 OFFCURVE",
"600 531 OFFCURVE",
"587 482 CURVE",
"581 430 OFFCURVE",
"568 373 OFFCURVE",
"561 350 CURVE",
"496 88 OFFCURVE",
"471 53 OFFCURVE",
"459 53 CURVE",
"447 53 OFFCURVE",
"434 158 OFFCURVE",
"426 205 CURVE",
"408 271 OFFCURVE",
"412 366 OFFCURVE",
"409 480 CURVE",
"406 576 OFFCURVE",
"398 596 OFFCURVE",
"389 617 CURVE",
"376 656 OFFCURVE",
"319 663 OFFCURVE",
"295 622 CURVE",
"259 567 OFFCURVE",
"239 521 OFFCURVE",
"205 425 CURVE",
"182 375 OFFCURVE",
"155 321 OFFCURVE",
"154 313 CURVE",
"154 313 OFFCURVE",
"131 242 OFFCURVE",
"99 168 CURVE",
"84 93 OFFCURVE",
"62 72 OFFCURVE",
"46 9 CURVE",
"36 -30 OFFCURVE",
"32 -56 OFFCURVE",
"65 -77 CURVE",
"96 -99 OFFCURVE",
"103 -88 OFFCURVE",
"117 -51 CURVE",
"127 -22 OFFCURVE",
"148 67 OFFCURVE",
"196 192 CURVE",
"203 221 OFFCURVE",
"215 249 OFFCURVE",
"223 265 CURVE",
"227 278 OFFCURVE",
"269 377 OFFCURVE",
"288 430 CURVE",
"317 513 OFFCURVE",
"332 540 OFFCURVE",
"331 433 CURVE",
"328 337 OFFCURVE",
"327 258 OFFCURVE",
"346 175 CURVE",
"360 71 OFFCURVE",
"373 30 OFFCURVE",
"412 -21 CURVE",
"455 -76 OFFCURVE",
"505 -53 OFFCURVE",
"537 21 CURVE",
"566 87 OFFCURVE",
"607 192 OFFCURVE",
"642 343 CURVE",
"648 342 OFFCURVE",
"656 378 OFFCURVE",
"661 413 CURVE",
"667 452 OFFCURVE",
"689 528 OFFCURVE",
"689 550 CURVE",
"709 636 OFFCURVE",
"719 688 OFFCURVE",
"717 703 CURVE",
"711 729 OFFCURVE",
"662 749 OFFCURVE",
"646 718 CURVE"
);
},
{
closed = 1;
nodes = (
"639 711 OFFCURVE",
"632 697 OFFCURVE",
"632 675 CURVE SMOOTH",
"632 661 OFFCURVE",
"625 638 OFFCURVE",
"619 638 CURVE",
"620 631 OFFCURVE",
"619 625 OFFCURVE",
"619 616 CURVE SMOOTH",
"619 610 OFFCURVE",
"600 531 OFFCURVE",
"587 482 CURVE",
"581 430 OFFCURVE",
"568 373 OFFCURVE",
"561 350 CURVE",
"496 88 OFFCURVE",
"480 73 OFFCURVE",
"468 73 CURVE SMOOTH",
"456 73 OFFCURVE",
"453 178 OFFCURVE",
"445 225 CURVE SMOOTH",
"427 291 OFFCURVE",
"426 366 OFFCURVE",
"423 480 CURVE SMOOTH",
"420 576 OFFCURVE",
"412 593 OFFCURVE",
"403 614 CURVE",
"390 653 OFFCURVE",
"318 665 OFFCURVE",
"294 624 CURVE",
"258 569 OFFCURVE",
"225 526 OFFCURVE",
"191 430 CURVE",
"168 380 OFFCURVE",
"144 326 OFFCURVE",
"143 318 CURVE SMOOTH",
"143 318 OFFCURVE",
"120 247 OFFCURVE",
"88 173 CURVE",
"73 98 OFFCURVE",
"51 77 OFFCURVE",
"35 14 CURVE SMOOTH",
"25 -25 OFFCURVE",
"21 -71 OFFCURVE",
"67 -92 CURVE SMOOTH",
"102 -108 OFFCURVE",
"105 -103 OFFCURVE",
"119 -66 CURVE",
"129 -37 OFFCURVE",
"150 67 OFFCURVE",
"198 192 CURVE",
"205 221 OFFCURVE",
"217 249 OFFCURVE",
"225 265 CURVE",
"229 278 OFFCURVE",
"267 372 OFFCURVE",
"285 425 CURVE SMOOTH",
"306 486 OFFCURVE",
"331 542 OFFCURVE",
"328 423 CURVE SMOOTH",
"326 327 OFFCURVE",
"342 254 OFFCURVE",
"349 169 CURVE SMOOTH",
"358 65 OFFCURVE",
"378 25 OFFCURVE",
"417 -26 CURVE SMOOTH",
"460 -81 OFFCURVE",
"522 -53 OFFCURVE",
"554 21 CURVE",
"583 87 OFFCURVE",
"624 192 OFFCURVE",
"659 343 CURVE",
"665 342 OFFCURVE",
"673 378 OFFCURVE",
"678 413 CURVE",
"684 452 OFFCURVE",
"706 528 OFFCURVE",
"706 550 CURVE",
"726 636 OFFCURVE",
"736 688 OFFCURVE",
"734 703 CURVE",
"728 735 OFFCURVE",
"672 765 OFFCURVE",
"646 718 CURVE"
);
}
);
};
layerId = "C211B134-F0DF-4134-92B2-996AB8C0D30E";
paths = (
{
closed = 1;
nodes = (
"99 -104 OFFCURVE",
"104 -96 OFFCURVE",
"118 -59 CURVE",
"128 -30 OFFCURVE",
"149 67 OFFCURVE",
"197 192 CURVE",
"204 221 OFFCURVE",
"216 249 OFFCURVE",
"224 265 CURVE",
"228 278 OFFCURVE",
"268 374 OFFCURVE",
"286 427 CURVE",
"311 499 OFFCURVE",
"331 541 OFFCURVE",
"329 428 CURVE",
"327 332 OFFCURVE",
"334 256 OFFCURVE",
"347 172 CURVE",
"359 68 OFFCURVE",
"375 27 OFFCURVE",
"414 -24 CURVE",
"457 -79 OFFCURVE",
"513 -53 OFFCURVE",
"545 21 CURVE",
"574 87 OFFCURVE",
"615 192 OFFCURVE",
"650 343 CURVE",
"656 342 OFFCURVE",
"664 378 OFFCURVE",
"669 413 CURVE",
"675 452 OFFCURVE",
"697 528 OFFCURVE",
"697 550 CURVE",
"717 636 OFFCURVE",
"727 688 OFFCURVE",
"725 703 CURVE",
"719 732 OFFCURVE",
"667 757 OFFCURVE",
"646 718 CURVE",
"639 711 OFFCURVE",
"632 697 OFFCURVE",
"632 675 CURVE",
"632 661 OFFCURVE",
"625 638 OFFCURVE",
"619 638 CURVE",
"620 631 OFFCURVE",
"619 625 OFFCURVE",
"619 616 CURVE",
"619 610 OFFCURVE",
"600 531 OFFCURVE",
"587 482 CURVE",
"581 430 OFFCURVE",
"568 373 OFFCURVE",
"561 350 CURVE",
"496 88 OFFCURVE",
"475 63 OFFCURVE",
"463 63 CURVE",
"451 63 OFFCURVE",
"443 168 OFFCURVE",
"435 215 CURVE",
"417 281 OFFCURVE",
"419 366 OFFCURVE",
"416 480 CURVE",
"413 576 OFFCURVE",
"405 594 OFFCURVE",
"396 615 CURVE",
"383 654 OFFCURVE",
"318 664 OFFCURVE",
"294 623 CURVE",
"258 568 OFFCURVE",
"232 523 OFFCURVE",
"198 427 CURVE",
"175 377 OFFCURVE",
"149 323 OFFCURVE",
"148 315 CURVE",
"148 315 OFFCURVE",
"125 244 OFFCURVE",
"93 170 CURVE",
"78 95 OFFCURVE",
"56 74 OFFCURVE",
"40 11 CURVE",
"30 -28 OFFCURVE",
"26 -64 OFFCURVE",
"66 -85 CURVE"
);
}
);
width = 575;
}
);
unicode = 004E;
},
{
glyphname = Eng;
layers = (
{
background = {
paths = (
{
closed = 1;
nodes = (
"640 711 OFFCURVE",
"633 697 OFFCURVE",
"633 675 CURVE SMOOTH",
"633 661 OFFCURVE",
"626 638 OFFCURVE",
"620 638 CURVE",
"621 631 OFFCURVE",
"620 625 OFFCURVE",
"620 616 CURVE SMOOTH",
"620 610 OFFCURVE",
"601 531 OFFCURVE",
"588 482 CURVE",
"582 430 OFFCURVE",
"569 373 OFFCURVE",
"562 350 CURVE",
"497 88 OFFCURVE",
"463 33 OFFCURVE",
"451 33 CURVE SMOOTH",
"439 33 OFFCURVE",
"415 139 OFFCURVE",
"407 186 CURVE SMOOTH",
"389 252 OFFCURVE",
"398 367 OFFCURVE",
"395 481 CURVE SMOOTH",
"392 577 OFFCURVE",
"385 599 OFFCURVE",
"376 620 CURVE",
"363 659 OFFCURVE",
"321 661 OFFCURVE",
"297 620 CURVE",
"261 565 OFFCURVE",
"253 516 OFFCURVE",
"219 420 CURVE",
"196 370 OFFCURVE",
"167 316 OFFCURVE",
"166 308 CURVE SMOOTH",
"166 308 OFFCURVE",
"143 237 OFFCURVE",
"111 163 CURVE",
"96 88 OFFCURVE",
"74 67 OFFCURVE",
"58 4 CURVE SMOOTH",
"48 -35 OFFCURVE",
"43 -40 OFFCURVE",
"64 -62 CURVE SMOOTH",
"90 -90 OFFCURVE",
"102 -73 OFFCURVE",
"116 -36 CURVE",
"126 -7 OFFCURVE",
"147 67 OFFCURVE",
"195 192 CURVE",
"202 221 OFFCURVE",
"214 249 OFFCURVE",
"222 265 CURVE",
"226 278 OFFCURVE",
"272 383 OFFCURVE",
"292 435 CURVE SMOOTH",
"329 541 OFFCURVE",
"333 538 OFFCURVE",
"335 443 CURVE SMOOTH",
"331 347 OFFCURVE",
"313 263 OFFCURVE",
"343 181 CURVE SMOOTH",
"362 78 OFFCURVE",
"369 35 OFFCURVE",
"408 -16 CURVE SMOOTH",
"451 -71 OFFCURVE",
"489 -53 OFFCURVE",
"521 21 CURVE",
"550 87 OFFCURVE",
"591 192 OFFCURVE",
"626 343 CURVE",
"632 342 OFFCURVE",
"640 378 OFFCURVE",
"645 413 CURVE",
"651 452 OFFCURVE",
"673 528 OFFCURVE",
"673 550 CURVE",
"693 636 OFFCURVE",
"703 688 OFFCURVE",
"701 703 CURVE",
"694 723 OFFCURVE",
"653 733 OFFCURVE",
"647 718 CURVE"
);
}
);
};
layerId = "5B238DC5-4F6F-4A74-B879-7A3E5189648B";
paths = (
{
closed = 1;
nodes = (
"375 -143 OFFCURVE",
"414 -95 OFFCURVE",
"425 -71 CURVE",
"448 -32 OFFCURVE",
"460 2 OFFCURVE",
"460 6 CURVE SMOOTH",
"460 10 OFFCURVE",
"465 15 OFFCURVE",
"467 20 CURVE SMOOTH",
"472 28 OFFCURVE",
"492 78 OFFCURVE",
"500 92 CURVE",
"506 117 LINE",
"505 117 LINE",
"509 122 OFFCURVE",
"514 130 OFFCURVE",
"516 136 CURVE",
"524 148 OFFCURVE",
"533 160 OFFCURVE",
"533 160 CURVE",
"533 160 OFFCURVE",
"543 178 OFFCURVE",
"547 196 CURVE",
"567 236 LINE",
"580 257 OFFCURVE",
"635 401 OFFCURVE",
"655 470 CURVE",
"689 568 LINE",
"692 587 OFFCURVE",
"692 587 OFFCURVE",
"684 604 CURVE",
"642 642 OFFCURVE",
"645 649 OFFCURVE",
"619 552 CURVE",
"612 532 OFFCURVE",
"603 507 OFFCURVE",
"605 495 CURVE",
"597 482 OFFCURVE",
"594 462 OFFCURVE",
"588 456 CURVE",
"588 443 OFFCURVE",
"547 340 OFFCURVE",
"544 334 CURVE SMOOTH",
"539 321 OFFCURVE",
"527 305 OFFCURVE",
"523 284 CURVE",
"512 262 OFFCURVE",
"484 201 OFFCURVE",
"475 193 CURVE",
"475 193 OFFCURVE",
"468 171 OFFCURVE",
"455 159 CURVE",
"445 144 OFFCURVE",
"433 131 OFFCURVE",
"433 131 CURVE",
"429 131 OFFCURVE",
"431 141 OFFCURVE",
"423 154 CURVE",
"423 166 OFFCURVE",
"413 193 OFFCURVE",
"416 197 CURVE",
"416 203 OFFCURVE",
"409 296 OFFCURVE",
"405 390 CURVE",
"401 572 OFFCURVE",
"401 578 OFFCURVE",
"387 602 CURVE SMOOTH",
"374 623 OFFCURVE",
"365 634 OFFCURVE",
"348 631 CURVE",
"340 631 OFFCURVE",
"335 624 OFFCURVE",
"336 617 CURVE",
"333 614 OFFCURVE",
"329 607 OFFCURVE",
"323 606 CURVE SMOOTH",
"317 604 OFFCURVE",
"309 596 OFFCURVE",
"303 595 CURVE",
"303 590 OFFCURVE",
"270 503 OFFCURVE",
"229 407 CURVE",
"167 252 OFFCURVE",
"105 66 OFFCURVE",
"96 14 CURVE",
"98 4 OFFCURVE",
"120 -26 OFFCURVE",
"138 -23 CURVE SMOOTH",
"149 -22 OFFCURVE",
"163 -1 OFFCURVE",
"161 16 CURVE",
"164 31 OFFCURVE",
"179 78 OFFCURVE",
"209 155 CURVE",
"226 206 OFFCURVE",
"331 489 OFFCURVE",
"337 490 CURVE",
"338 484 OFFCURVE",
"338 422 OFFCURVE",
"343 340 CURVE",
"347 236 OFFCURVE",
"352 196 OFFCURVE",
"361 153 CURVE SMOOTH",
"372 101 OFFCURVE",
"396 63 OFFCURVE",
"419 45 CURVE",
"397 -1 OFFCURVE",
"363 -76 OFFCURVE",
"346 -95 CURVE",
"329 -120 OFFCURVE",
"291 -118 OFFCURVE",
"276 -114 CURVE",
"252 -101 OFFCURVE",
"232 -113 OFFCURVE",
"243 -142 CURVE",
"272 -179 OFFCURVE",
"326 -182 OFFCURVE",
"357 -156 CURVE"
);
}
);
width = 566;
},
{
background = {
paths = (
{
closed = 1;
nodes = (
"329 619 OFFCURVE",
"325 612 OFFCURVE",
"319 611 CURVE",
"313 609 OFFCURVE",
"305 601 OFFCURVE",
"299 600 CURVE",
"299 595 OFFCURVE",
"263 503 OFFCURVE",
"222 407 CURVE",
"160 252 OFFCURVE",
"98 66 OFFCURVE",
"89 14 CURVE",
"91 4 OFFCURVE",
"122 -31 OFFCURVE",
"140 -28 CURVE",
"151 -27 OFFCURVE",
"175 1 OFFCURVE",
"173 18 CURVE",
"176 33 OFFCURVE",
"189 85 OFFCURVE",
"219 162 CURVE",
"236 213 OFFCURVE",
"333 479 OFFCURVE",
"339 480 CURVE",
"340 474 OFFCURVE",
"340 412 OFFCURVE",
"345 330 CURVE",
"349 226 OFFCURVE",
"352 196 OFFCURVE",
"361 153 CURVE",
"372 101 OFFCURVE",
"389 58 OFFCURVE",
"412 40 CURVE",
"390 -6 OFFCURVE",
"363 -66 OFFCURVE",
"346 -85 CURVE",
"329 -110 OFFCURVE",
"291 -108 OFFCURVE",
"276 -104 CURVE",
"252 -91 OFFCURVE",
"227 -118 OFFCURVE",
"238 -147 CURVE",
"267 -184 OFFCURVE",
"346 -182 OFFCURVE",
"377 -156 CURVE",
"395 -143 OFFCURVE",
"434 -95 OFFCURVE",
"445 -71 CURVE",
"468 -32 OFFCURVE",
"480 2 OFFCURVE",
"480 6 CURVE",
"480 10 OFFCURVE",
"485 15 OFFCURVE",
"487 20 CURVE",
"492 28 OFFCURVE",
"512 78 OFFCURVE",
"520 92 CURVE",
"526 117 LINE",
"525 117 LINE",
"529 122 OFFCURVE",
"534 130 OFFCURVE",
"536 136 CURVE",
"544 148 OFFCURVE",
"553 160 OFFCURVE",
"553 160 CURVE",
"553 160 OFFCURVE",
"563 178 OFFCURVE",
"567 196 CURVE",
"587 236 LINE",
"600 257 OFFCURVE",
"650 391 OFFCURVE",
"670 460 CURVE",
"704 558 LINE",
"707 577 OFFCURVE",
"707 577 OFFCURVE",
"699 594 CURVE",
"662 660 OFFCURVE",
"640 649 OFFCURVE",
"614 552 CURVE",
"607 532 OFFCURVE",
"598 507 OFFCURVE",
"600 495 CURVE",
"592 482 OFFCURVE",
"589 462 OFFCURVE",
"583 456 CURVE",
"583 443 OFFCURVE",
"542 340 OFFCURVE",
"539 334 CURVE",
"534 321 OFFCURVE",
"527 305 OFFCURVE",
"523 284 CURVE",
"512 262 OFFCURVE",
"499 216 OFFCURVE",
"490 208 CURVE",
"490 208 OFFCURVE",
"483 186 OFFCURVE",
"470 174 CURVE",
"460 159 OFFCURVE",
"448 146 OFFCURVE",
"448 146 CURVE",
"444 146 OFFCURVE",
"446 156 OFFCURVE",
"438 169 CURVE",
"438 181 OFFCURVE",
"428 208 OFFCURVE",
"431 212 CURVE",
"431 218 OFFCURVE",
"429 301 OFFCURVE",
"425 395 CURVE",
"421 577 OFFCURVE",
"403 583 OFFCURVE",
"389 607 CURVE",
"376 628 OFFCURVE",
"362 644 OFFCURVE",
"345 641 CURVE",
"337 641 OFFCURVE",
"331 629 OFFCURVE",
"332 622 CURVE"
);
},
{
closed = 1;
nodes = (
"325 625 OFFCURVE",
"321 618 OFFCURVE",
"315 617 CURVE SMOOTH",
"309 615 OFFCURVE",
"301 607 OFFCURVE",
"295 606 CURVE",
"295 601 OFFCURVE",
"257 503 OFFCURVE",
"216 407 CURVE",
"154 252 OFFCURVE",
"92 66 OFFCURVE",
"83 14 CURVE",
"85 4 OFFCURVE",
"125 -36 OFFCURVE",
"143 -33 CURVE SMOOTH",
"154 -32 OFFCURVE",
"188 3 OFFCURVE",
"186 20 CURVE",
"189 35 OFFCURVE",
"199 92 OFFCURVE",
"229 169 CURVE",
"246 220 OFFCURVE",
"335 469 OFFCURVE",
"341 470 CURVE",
"342 464 OFFCURVE",
"342 402 OFFCURVE",
"347 320 CURVE",
"351 216 OFFCURVE",
"352 196 OFFCURVE",
"361 153 CURVE SMOOTH",
"372 101 OFFCURVE",
"382 53 OFFCURVE",
"405 35 CURVE",
"383 -11 OFFCURVE",
"363 -56 OFFCURVE",
"346 -75 CURVE",
"329 -100 OFFCURVE",
"291 -98 OFFCURVE",
"276 -94 CURVE",
"252 -81 OFFCURVE",
"222 -123 OFFCURVE",
"233 -152 CURVE",
"262 -189 OFFCURVE",
"366 -182 OFFCURVE",
"397 -156 CURVE",
"415 -143 OFFCURVE",
"454 -95 OFFCURVE",
"465 -71 CURVE",
"488 -32 OFFCURVE",
"500 2 OFFCURVE",
"500 6 CURVE SMOOTH",
"500 10 OFFCURVE",
"505 15 OFFCURVE",
"507 20 CURVE SMOOTH",
"512 28 OFFCURVE",
"532 78 OFFCURVE",
"540 92 CURVE",
"546 117 LINE",
"545 117 LINE",
"549 122 OFFCURVE",
"554 130 OFFCURVE",
"556 136 CURVE",
"564 148 OFFCURVE",
"573 160 OFFCURVE",
"573 160 CURVE",
"573 160 OFFCURVE",
"583 178 OFFCURVE",
"587 196 CURVE",
"607 236 LINE",
"620 257 OFFCURVE",
"665 381 OFFCURVE",
"685 450 CURVE",
"719 548 LINE",
"722 567 OFFCURVE",
"722 567 OFFCURVE",
"714 584 CURVE",
"683 678 OFFCURVE",
"635 649 OFFCURVE",
"609 552 CURVE",
"602 532 OFFCURVE",
"593 507 OFFCURVE",
"595 495 CURVE",
"587 482 OFFCURVE",
"584 462 OFFCURVE",
"578 456 CURVE",
"578 443 OFFCURVE",
"537 340 OFFCURVE",
"534 334 CURVE SMOOTH",
"529 321 OFFCURVE",
"527 305 OFFCURVE",
"523 284 CURVE",
"512 262 OFFCURVE",
"514 231 OFFCURVE",
"505 223 CURVE",
"505 223 OFFCURVE",
"498 201 OFFCURVE",
"485 189 CURVE",
"475 174 OFFCURVE",
"463 161 OFFCURVE",
"463 161 CURVE",
"459 161 OFFCURVE",
"461 171 OFFCURVE",
"453 184 CURVE",
"453 196 OFFCURVE",
"443 223 OFFCURVE",
"446 227 CURVE",
"446 233 OFFCURVE",
"449 306 OFFCURVE",
"445 400 CURVE",
"441 582 OFFCURVE",
"406 589 OFFCURVE",
"392 613 CURVE SMOOTH",
"379 634 OFFCURVE",
"360 654 OFFCURVE",
"343 651 CURVE",
"335 651 OFFCURVE",
"327 635 OFFCURVE",
"328 628 CURVE"
);
}
);
};
layerId = "C211B134-F0DF-4134-92B2-996AB8C0D30E";
paths = (
{
closed = 1;
nodes = (
"405 -143 OFFCURVE",
"444 -95 OFFCURVE",
"455 -71 CURVE",
"478 -32 OFFCURVE",
"490 2 OFFCURVE",
"490 6 CURVE",
"490 10 OFFCURVE",
"495 15 OFFCURVE",
"497 20 CURVE",
"502 28 OFFCURVE",
"522 78 OFFCURVE",
"530 92 CURVE",
"536 117 LINE",
"535 117 LINE",
"539 122 OFFCURVE",
"544 130 OFFCURVE",
"546 136 CURVE",
"554 148 OFFCURVE",
"563 160 OFFCURVE",
"563 160 CURVE",
"563 160 OFFCURVE",
"573 178 OFFCURVE",
"577 196 CURVE",
"597 236 LINE",
"610 257 OFFCURVE",
"657 386 OFFCURVE",
"677 455 CURVE",
"711 553 LINE",
"714 572 OFFCURVE",
"714 572 OFFCURVE",
"706 589 CURVE",
"672 669 OFFCURVE",
"637 649 OFFCURVE",
"611 552 CURVE",
"604 532 OFFCURVE",
"595 507 OFFCURVE",
"597 495 CURVE",
"589 482 OFFCURVE",
"586 462 OFFCURVE",
"580 456 CURVE",
"580 443 OFFCURVE",
"539 340 OFFCURVE",
"536 334 CURVE",
"531 321 OFFCURVE",
"527 305 OFFCURVE",
"523 284 CURVE",
"512 262 OFFCURVE",
"506 223 OFFCURVE",
"497 215 CURVE",
"497 215 OFFCURVE",
"490 193 OFFCURVE",
"477 181 CURVE",
"467 166 OFFCURVE",
"455 153 OFFCURVE",
"455 153 CURVE",
"451 153 OFFCURVE",
"453 163 OFFCURVE",
"445 176 CURVE",
"445 188 OFFCURVE",
"435 215 OFFCURVE",
"438 219 CURVE",
"438 225 OFFCURVE",
"439 303 OFFCURVE",
"435 397 CURVE",
"431 579 OFFCURVE",
"404 586 OFFCURVE",
"390 610 CURVE",
"377 631 OFFCURVE",
"361 649 OFFCURVE",
"344 646 CURVE",
"336 646 OFFCURVE",
"329 632 OFFCURVE",
"330 625 CURVE",
"327 622 OFFCURVE",
"323 615 OFFCURVE",
"317 614 CURVE",
"311 612 OFFCURVE",
"303 604 OFFCURVE",
"297 603 CURVE",
"297 598 OFFCURVE",
"260 503 OFFCURVE",
"219 407 CURVE",
"157 252 OFFCURVE",
"95 66 OFFCURVE",
"86 14 CURVE",
"88 4 OFFCURVE",
"123 -34 OFFCURVE",
"141 -31 CURVE",
"152 -30 OFFCURVE",
"181 2 OFFCURVE",
"179 19 CURVE",
"182 34 OFFCURVE",
"194 88 OFFCURVE",
"224 165 CURVE",
"241 216 OFFCURVE",
"334 474 OFFCURVE",
"340 475 CURVE",
"341 469 OFFCURVE",
"341 407 OFFCURVE",
"346 325 CURVE",
"350 221 OFFCURVE",
"352 196 OFFCURVE",
"361 153 CURVE",
"372 101 OFFCURVE",
"385 55 OFFCURVE",
"408 37 CURVE",
"386 -9 OFFCURVE",
"363 -61 OFFCURVE",
"346 -80 CURVE",
"329 -105 OFFCURVE",
"291 -103 OFFCURVE",
"276 -99 CURVE",
"252 -86 OFFCURVE",
"224 -121 OFFCURVE",
"235 -150 CURVE",
"264 -187 OFFCURVE",
"356 -182 OFFCURVE",
"387 -156 CURVE"
);
}
);
width = 566;
}
);
unicode = 014A;
},
{
glyphname = O;
layers = (
{
anchors = (
{
name = bottom;
position = "{208, -110}";
},
{
name = ogonek;
position = "{248, 40}";
},
{
name = topUC;
position = "{533, 785}";
}
);
background = {
paths = (
{
closed = 1;
nodes = (
"348 623 OFFCURVE",
"321 599 OFFCURVE",
"267 543 CURVE",
"230 494 OFFCURVE",
"196 440 OFFCURVE",
"156 320 CURVE",
"147 274 OFFCURVE",
"133 245 OFFCURVE",
"134 238 CURVE",
"134 238 OFFCURVE",
"137 223 OFFCURVE",
"130 216 CURVE",
"124 186 OFFCURVE",
"112 97 OFFCURVE",
"116 61 CURVE SMOOTH",
"118 32 OFFCURVE",
"126 17 OFFCURVE",
"175 -20 CURVE SMOOTH",
"261 -87 OFFCURVE",
"412 9 OFFCURVE",
"505 193 CURVE",
"594 340 OFFCURVE",
"597 397 OFFCURVE",
"579 514 CURVE",
"562 607 OFFCURVE",
"528 647 OFFCURVE",
"454 663 CURVE",
"439 669 OFFCURVE",
"416 658 OFFCURVE",
"389 642 CURVE"
);
},
{
closed = 1;
nodes = (
"169 35 OFFCURVE",
"170 44 OFFCURVE",
"174 99 CURVE",
"179 186 OFFCURVE",
"231 360 OFFCURVE",
"267 398 CURVE",
"272 405 OFFCURVE",
"272 413 OFFCURVE",
"272 413 CURVE",
"271 437 OFFCURVE",
"387 582 OFFCURVE",
"427 599 CURVE SMOOTH",
"456 612 OFFCURVE",
"481 604 OFFCURVE",
"495 589 CURVE SMOOTH",
"506 577 OFFCURVE",
"515 549 OFFCURVE",
"516 526 CURVE",
"517 430 OFFCURVE",
"517 411 OFFCURVE",
"496 331 CURVE SMOOTH",
"459 202 OFFCURVE",
"448 189 OFFCURVE",
"379 110 CURVE",
"321 43 OFFCURVE",
"285 14 OFFCURVE",
"239 9 CURVE",
"210 1 OFFCURVE",
"198 6 OFFCURVE",
"187 19 CURVE SMOOTH"
);
}
);
};
layerId = "5B238DC5-4F6F-4A74-B879-7A3E5189648B";
paths = (
{
closed = 1;
nodes = (
"261 -87 OFFCURVE",
"412 9 OFFCURVE",
"505 193 CURVE",
"594 340 OFFCURVE",
"597 397 OFFCURVE",
"579 514 CURVE",
"562 607 OFFCURVE",
"528 647 OFFCURVE",
"454 663 CURVE",
"439 669 OFFCURVE",
"416 658 OFFCURVE",
"389 642 CURVE",
"348 623 OFFCURVE",
"321 599 OFFCURVE",
"267 543 CURVE",
"230 494 OFFCURVE",
"196 440 OFFCURVE",
"156 320 CURVE",
"147 274 OFFCURVE",
"133 245 OFFCURVE",
"134 238 CURVE",
"134 238 OFFCURVE",
"137 223 OFFCURVE",
"130 216 CURVE",
"124 186 OFFCURVE",
"112 97 OFFCURVE",
"116 61 CURVE SMOOTH",
"118 32 OFFCURVE",
"126 17 OFFCURVE",
"175 -20 CURVE SMOOTH"
);
},
{
closed = 1;
nodes = (
"219 5 OFFCURVE",
"197 13 OFFCURVE",
"189 26 CURVE SMOOTH",
"171 56 OFFCURVE",
"170 44 OFFCURVE",
"174 99 CURVE",
"179 186 OFFCURVE",
"231 360 OFFCURVE",
"267 398 CURVE",
"272 405 OFFCURVE",
"272 413 OFFCURVE",
"272 413 CURVE",
"271 437 OFFCURVE",
"384 574 OFFCURVE",
"424 591 CURVE SMOOTH",
"453 604 OFFCURVE",
"478 596 OFFCURVE",
"492 581 CURVE SMOOTH",
"503 569 OFFCURVE",
"512 541 OFFCURVE",
"513 518 CURVE",
"514 422 OFFCURVE",
"517 411 OFFCURVE",
"496 331 CURVE SMOOTH",
"459 202 OFFCURVE",
"448 189 OFFCURVE",
"379 110 CURVE",
"321 43 OFFCURVE",
"285 14 OFFCURVE",
"239 9 CURVE"
);
}
);
width = 496;
},
{
layerId = "C211B134-F0DF-4134-92B2-996AB8C0D30E";
paths = (
{
closed = 1;
nodes = (
"268 -96 OFFCURVE",
"430 -23 OFFCURVE",
"539 193 CURVE",
"628 340 OFFCURVE",
"631 397 OFFCURVE",
"613 514 CURVE",
"596 607 OFFCURVE",
"540 654 OFFCURVE",
"466 670 CURVE",
"451 676 OFFCURVE",
"428 665 OFFCURVE",
"401 649 CURVE",
"360 630 OFFCURVE",
"310 599 OFFCURVE",
"256 543 CURVE",
"219 494 OFFCURVE",
"185 440 OFFCURVE",
"145 320 CURVE",
"136 274 OFFCURVE",
"122 245 OFFCURVE",
"123 238 CURVE",
"123 238 OFFCURVE",
"126 223 OFFCURVE",
"119 216 CURVE",
"113 186 OFFCURVE",
"101 97 OFFCURVE",
"105 61 CURVE",
"107 32 OFFCURVE",
"138 1 OFFCURVE",
"187 -35 CURVE"
);
},
{
closed = 1;
nodes = (
"247 27 OFFCURVE",
"217 45 OFFCURVE",
"209 58 CURVE",
"196 78 OFFCURVE",
"197 90 OFFCURVE",
"198 123 CURVE",
"203 210 OFFCURVE",
"245 360 OFFCURVE",
"281 398 CURVE",
"286 405 OFFCURVE",
"286 413 OFFCURVE",
"286 413 CURVE",
"285 437 OFFCURVE",
"386 557 OFFCURVE",
"426 574 CURVE",
"455 587 OFFCURVE",
"484 572 OFFCURVE",
"498 557 CURVE",
"509 545 OFFCURVE",
"518 511 OFFCURVE",
"519 488 CURVE",
"520 392 OFFCURVE",
"524 418 OFFCURVE",
"503 338 CURVE",
"466 209 OFFCURVE",
"449 192 OFFCURVE",
"380 113 CURVE",
"322 46 OFFCURVE",
"313 36 OFFCURVE",
"267 31 CURVE"
);
}
);
width = 505;
}
);
unicode = 004F;
},
{
glyphname = Oslash;
layers = (
{
anchors = (
{
name = topUC;
position = "{532, 785}";
}
);
layerId = "5B238DC5-4F6F-4A74-B879-7A3E5189648B";
paths = (
{
closed = 1;
nodes = (
"142 -69 OFFCURVE",
"145 -64 OFFCURVE",
"154 -34 CURVE SMOOTH",
"166 0 OFFCURVE",
"336 251 OFFCURVE",
"379 314 CURVE",
"398 337 OFFCURVE",
"410 355 OFFCURVE",
"410 360 CURVE SMOOTH",
"410 360 OFFCURVE",
"414 371 OFFCURVE",
"418 369 CURVE",
"426 372 OFFCURVE",
"426 378 OFFCURVE",
"429 382 CURVE SMOOTH",
"430 387 OFFCURVE",
"484 449 OFFCURVE",
"501 465 CURVE",
"510 479 OFFCURVE",
"519 488 OFFCURVE",
"522 493 CURVE SMOOTH",
"522 498 OFFCURVE",
"543 516 OFFCURVE",
"563 539 CURVE",
"623 603 OFFCURVE",
"630 606 OFFCURVE",
"638 632 CURVE SMOOTH",
"644 646 OFFCURVE",
"647 657 OFFCURVE",
"639 670 CURVE SMOOTH",
"631 684 OFFCURVE",
"629 690 OFFCURVE",
"629 690 CURVE",
"624 691 OFFCURVE",
"617 692 OFFCURVE",
"613 689 CURVE",
"602 693 OFFCURVE",
"595 690 OFFCURVE",
"592 680 CURVE SMOOTH",
"586 664 OFFCURVE",
"455 498 OFFCURVE",
"421 464 CURVE",
"420 458 OFFCURVE",
"413 455 OFFCURVE",
"412 450 CURVE SMOOTH",
"410 444 OFFCURVE",
"402 436 OFFCURVE",
"400 430 CURVE",
"393 428 OFFCURVE",
"384 415 OFFCURVE",
"380 404 CURVE SMOOTH",
"377 395 OFFCURVE",
"369 385 OFFCURVE",
"364 387 CURVE",
"355 378 OFFCURVE",
"167 107 OFFCURVE",
"153 83 CURVE",
"150 73 OFFCURVE",
"140 61 OFFCURVE",
"130 46 CURVE",
"91 -20 OFFCURVE",
"92 -69 OFFCURVE",
"132 -71 CURVE"
);
},
{
closed = 1;
nodes = (
"261 -87 OFFCURVE",
"412 9 OFFCURVE",
"505 193 CURVE",
"594 340 OFFCURVE",
"597 397 OFFCURVE",
"579 514 CURVE",
"562 607 OFFCURVE",
"528 647 OFFCURVE",
"454 663 CURVE",
"439 669 OFFCURVE",
"416 658 OFFCURVE",
"389 642 CURVE",
"348 623 OFFCURVE",
"321 599 OFFCURVE",
"267 543 CURVE",
"230 494 OFFCURVE",
"196 440 OFFCURVE",
"156 320 CURVE",
"147 274 OFFCURVE",
"133 245 OFFCURVE",
"134 238 CURVE",
"134 238 OFFCURVE",
"137 223 OFFCURVE",
"130 216 CURVE",
"124 186 OFFCURVE",
"112 97 OFFCURVE",
"116 61 CURVE SMOOTH",
"118 32 OFFCURVE",
"126 17 OFFCURVE",
"175 -20 CURVE SMOOTH"
);
},
{
closed = 1;
nodes = (
"219 5 OFFCURVE",
"197 13 OFFCURVE",
"189 26 CURVE SMOOTH",
"171 56 OFFCURVE",
"170 44 OFFCURVE",
"174 99 CURVE",
"179 186 OFFCURVE",
"231 360 OFFCURVE",
"267 398 CURVE",
"272 405 OFFCURVE",
"272 413 OFFCURVE",
"272 413 CURVE",
"271 437 OFFCURVE",
"384 574 OFFCURVE",
"424 591 CURVE SMOOTH",
"453 604 OFFCURVE",
"478 596 OFFCURVE",
"492 581 CURVE SMOOTH",
"503 569 OFFCURVE",
"512 541 OFFCURVE",
"513 518 CURVE",
"514 422 OFFCURVE",
"517 411 OFFCURVE",
"496 331 CURVE SMOOTH",
"459 202 OFFCURVE",
"448 189 OFFCURVE",
"379 110 CURVE",
"321 43 OFFCURVE",
"285 14 OFFCURVE",
"239 9 CURVE"
);
}
);
width = 496;
},
{
background = {
paths = (
{
closed = 1;
nodes = (
"602 693 OFFCURVE",
"595 690 OFFCURVE",
"592 680 CURVE",
"586 664 OFFCURVE",
"455 498 OFFCURVE",
"421 464 CURVE",
"420 458 OFFCURVE",
"413 455 OFFCURVE",
"412 450 CURVE",
"410 444 OFFCURVE",
"402 436 OFFCURVE",
"400 430 CURVE",
"393 428 OFFCURVE",
"384 415 OFFCURVE",
"380 404 CURVE",
"377 395 OFFCURVE",
"369 385 OFFCURVE",
"364 387 CURVE",
"355 378 OFFCURVE",
"167 107 OFFCURVE",
"153 83 CURVE",
"150 73 OFFCURVE",
"140 61 OFFCURVE",
"130 46 CURVE",
"91 -20 OFFCURVE",
"92 -69 OFFCURVE",
"132 -71 CURVE",
"142 -69 OFFCURVE",
"145 -64 OFFCURVE",
"154 -34 CURVE",
"166 0 OFFCURVE",
"336 251 OFFCURVE",
"379 314 CURVE",
"398 337 OFFCURVE",
"410 355 OFFCURVE",
"410 360 CURVE",
"410 360 OFFCURVE",
"414 371 OFFCURVE",
"418 369 CURVE",
"426 372 OFFCURVE",
"426 378 OFFCURVE",
"429 382 CURVE",
"430 387 OFFCURVE",
"484 449 OFFCURVE",
"501 465 CURVE",
"510 479 OFFCURVE",
"519 488 OFFCURVE",
"522 493 CURVE",
"522 498 OFFCURVE",
"543 516 OFFCURVE",
"563 539 CURVE",
"623 603 OFFCURVE",
"630 606 OFFCURVE",
"638 632 CURVE",
"644 646 OFFCURVE",
"647 657 OFFCURVE",
"639 670 CURVE",
"631 684 OFFCURVE",
"629 690 OFFCURVE",
"629 690 CURVE",
"624 691 OFFCURVE",
"617 692 OFFCURVE",
"613 689 CURVE"
);
},
{
closed = 1;
nodes = (
"348 623 OFFCURVE",
"321 599 OFFCURVE",
"267 543 CURVE",
"230 494 OFFCURVE",
"196 440 OFFCURVE",
"156 320 CURVE",
"147 274 OFFCURVE",
"133 245 OFFCURVE",
"134 238 CURVE",
"134 238 OFFCURVE",
"137 223 OFFCURVE",
"130 216 CURVE",
"124 186 OFFCURVE",
"112 97 OFFCURVE",
"116 61 CURVE",
"118 32 OFFCURVE",
"126 17 OFFCURVE",
"175 -20 CURVE",
"261 -87 OFFCURVE",
"412 9 OFFCURVE",
"505 193 CURVE",
"594 340 OFFCURVE",
"597 397 OFFCURVE",
"579 514 CURVE",
"562 607 OFFCURVE",
"528 647 OFFCURVE",
"454 663 CURVE",
"439 669 OFFCURVE",
"416 658 OFFCURVE",
"389 642 CURVE"
);
},
{
closed = 1;
nodes = (
"171 56 OFFCURVE",
"170 44 OFFCURVE",
"174 99 CURVE",
"179 186 OFFCURVE",
"231 360 OFFCURVE",
"267 398 CURVE",
"272 405 OFFCURVE",
"272 413 OFFCURVE",
"272 413 CURVE",
"271 437 OFFCURVE",
"384 574 OFFCURVE",
"424 591 CURVE",
"453 604 OFFCURVE",
"478 596 OFFCURVE",
"492 581 CURVE",
"503 569 OFFCURVE",
"512 541 OFFCURVE",
"513 518 CURVE",
"514 422 OFFCURVE",
"517 411 OFFCURVE",
"496 331 CURVE",
"459 202 OFFCURVE",
"448 189 OFFCURVE",
"379 110 CURVE",
"321 43 OFFCURVE",
"285 14 OFFCURVE",
"239 9 CURVE",
"219 5 OFFCURVE",
"197 13 OFFCURVE",
"189 26 CURVE"
);
},
{
closed = 1;
nodes = (
"602 693 OFFCURVE",
"595 690 OFFCURVE",
"592 680 CURVE SMOOTH",
"586 664 OFFCURVE",
"455 498 OFFCURVE",
"421 464 CURVE",
"420 458 OFFCURVE",
"413 455 OFFCURVE",
"412 450 CURVE SMOOTH",
"410 444 OFFCURVE",
"402 436 OFFCURVE",
"400 430 CURVE",
"393 428 OFFCURVE",
"384 415 OFFCURVE",
"380 404 CURVE SMOOTH",
"377 395 OFFCURVE",
"369 385 OFFCURVE",
"364 387 CURVE",
"355 378 OFFCURVE",
"167 107 OFFCURVE",
"153 83 CURVE",
"150 73 OFFCURVE",
"140 61 OFFCURVE",
"130 46 CURVE",
"91 -20 OFFCURVE",
"92 -69 OFFCURVE",
"132 -71 CURVE",
"142 -69 OFFCURVE",
"145 -64 OFFCURVE",
"154 -34 CURVE SMOOTH",
"166 0 OFFCURVE",
"336 251 OFFCURVE",
"379 314 CURVE",
"398 337 OFFCURVE",
"410 355 OFFCURVE",
"410 360 CURVE SMOOTH",
"410 360 OFFCURVE",
"414 371 OFFCURVE",
"418 369 CURVE",
"426 372 OFFCURVE",
"426 378 OFFCURVE",
"429 382 CURVE SMOOTH",
"430 387 OFFCURVE",
"484 449 OFFCURVE",
"501 465 CURVE",
"510 479 OFFCURVE",
"519 488 OFFCURVE",
"522 493 CURVE SMOOTH",
"522 498 OFFCURVE",
"543 516 OFFCURVE",
"563 539 CURVE",
"623 603 OFFCURVE",
"630 606 OFFCURVE",
"638 632 CURVE SMOOTH",
"644 646 OFFCURVE",
"647 657 OFFCURVE",
"639 670 CURVE SMOOTH",
"631 684 OFFCURVE",
"629 690 OFFCURVE",
"629 690 CURVE",
"624 691 OFFCURVE",
"617 692 OFFCURVE",
"613 689 CURVE"
);
},
{
closed = 1;
nodes = (
"348 623 OFFCURVE",
"321 599 OFFCURVE",
"267 543 CURVE",
"230 494 OFFCURVE",
"196 440 OFFCURVE",
"156 320 CURVE",
"147 274 OFFCURVE",
"133 245 OFFCURVE",
"134 238 CURVE",
"134 238 OFFCURVE",
"137 223 OFFCURVE",
"130 216 CURVE",
"124 186 OFFCURVE",
"112 97 OFFCURVE",
"116 61 CURVE SMOOTH",
"118 32 OFFCURVE",
"126 17 OFFCURVE",
"175 -20 CURVE SMOOTH",
"261 -87 OFFCURVE",
"412 9 OFFCURVE",
"505 193 CURVE",
"594 340 OFFCURVE",
"597 397 OFFCURVE",
"579 514 CURVE",
"562 607 OFFCURVE",
"528 647 OFFCURVE",
"454 663 CURVE",
"439 669 OFFCURVE",
"416 658 OFFCURVE",
"389 642 CURVE"
);
},
{
closed = 1;
nodes = (
"171 56 OFFCURVE",
"170 44 OFFCURVE",
"174 99 CURVE",
"179 186 OFFCURVE",
"231 360 OFFCURVE",
"267 398 CURVE",
"272 405 OFFCURVE",
"272 413 OFFCURVE",
"272 413 CURVE",
"271 437 OFFCURVE",
"384 574 OFFCURVE",
"424 591 CURVE SMOOTH",
"453 604 OFFCURVE",
"478 596 OFFCURVE",
"492 581 CURVE SMOOTH",
"503 569 OFFCURVE",
"512 541 OFFCURVE",
"513 518 CURVE",
"514 422 OFFCURVE",
"517 411 OFFCURVE",
"496 331 CURVE SMOOTH",
"459 202 OFFCURVE",
"448 189 OFFCURVE",
"379 110 CURVE",
"321 43 OFFCURVE",
"285 14 OFFCURVE",
"239 9 CURVE",
"219 5 OFFCURVE",
"197 13 OFFCURVE",
"189 26 CURVE SMOOTH"
);
}
);
};
layerId = "C211B134-F0DF-4134-92B2-996AB8C0D30E";
paths = (
{
closed = 1;
nodes = (
"132 -99 OFFCURVE",
"135 -94 OFFCURVE",
"144 -64 CURVE",
"156 -30 OFFCURVE",
"346 251 OFFCURVE",
"389 314 CURVE",
"408 337 OFFCURVE",
"420 355 OFFCURVE",
"420 360 CURVE SMOOTH",
"420 360 OFFCURVE",
"424 371 OFFCURVE",
"428 369 CURVE",
"436 372 OFFCURVE",
"436 378 OFFCURVE",
"439 382 CURVE",
"440 387 OFFCURVE",
"494 459 OFFCURVE",
"511 475 CURVE",
"520 489 OFFCURVE",
"519 488 OFFCURVE",
"522 493 CURVE",
"522 498 OFFCURVE",
"543 516 OFFCURVE",
"563 539 CURVE",
"623 603 OFFCURVE",
"640 606 OFFCURVE",
"648 632 CURVE",
"654 646 OFFCURVE",
"657 667 OFFCURVE",
"649 680 CURVE SMOOTH",
"641 694 OFFCURVE",
"639 700 OFFCURVE",
"639 700 CURVE",
"634 701 OFFCURVE",
"607 702 OFFCURVE",
"603 699 CURVE",
"592 703 OFFCURVE",
"585 700 OFFCURVE",
"582 690 CURVE SMOOTH",
"576 674 OFFCURVE",
"445 498 OFFCURVE",
"411 464 CURVE",
"410 458 OFFCURVE",
"403 455 OFFCURVE",
"402 450 CURVE SMOOTH",
"400 444 OFFCURVE",
"392 436 OFFCURVE",
"390 430 CURVE",
"383 428 OFFCURVE",
"374 415 OFFCURVE",
"370 404 CURVE SMOOTH",
"367 395 OFFCURVE",
"359 385 OFFCURVE",
"354 387 CURVE",
"345 378 OFFCURVE",
"167 107 OFFCURVE",
"153 83 CURVE",
"150 73 OFFCURVE",
"140 61 OFFCURVE",
"130 46 CURVE",
"55 -63 OFFCURVE",
"82 -99 OFFCURVE",
"122 -101 CURVE"
);
},
{
closed = 1;
nodes = (
"258 -96 OFFCURVE",
"420 -23 OFFCURVE",
"529 193 CURVE",
"618 340 OFFCURVE",
"621 397 OFFCURVE",
"603 514 CURVE",
"586 607 OFFCURVE",
"530 654 OFFCURVE",
"456 670 CURVE",
"441 676 OFFCURVE",
"418 665 OFFCURVE",
"391 649 CURVE",
"350 630 OFFCURVE",
"300 599 OFFCURVE",
"246 543 CURVE",
"209 494 OFFCURVE",
"175 440 OFFCURVE",
"135 320 CURVE",
"126 274 OFFCURVE",
"112 245 OFFCURVE",
"113 238 CURVE",
"113 238 OFFCURVE",
"116 223 OFFCURVE",
"109 216 CURVE",
"103 186 OFFCURVE",
"91 97 OFFCURVE",
"95 61 CURVE",
"97 32 OFFCURVE",
"128 1 OFFCURVE",
"177 -35 CURVE SMOOTH"
);
},
{
closed = 1;
nodes = (
"237 27 OFFCURVE",
"207 45 OFFCURVE",
"199 58 CURVE SMOOTH",
"186 78 OFFCURVE",
"187 90 OFFCURVE",
"188 123 CURVE",
"193 210 OFFCURVE",
"235 360 OFFCURVE",
"271 398 CURVE",
"276 405 OFFCURVE",
"276 413 OFFCURVE",
"276 413 CURVE",
"275 437 OFFCURVE",
"376 557 OFFCURVE",
"416 574 CURVE SMOOTH",
"445 587 OFFCURVE",
"474 572 OFFCURVE",
"488 557 CURVE SMOOTH",
"499 545 OFFCURVE",
"508 511 OFFCURVE",
"509 488 CURVE",
"510 392 OFFCURVE",
"514 418 OFFCURVE",
"493 338 CURVE",
"456 209 OFFCURVE",
"439 192 OFFCURVE",
"370 113 CURVE SMOOTH",
"312 46 OFFCURVE",
"303 36 OFFCURVE",
"257 31 CURVE"
);
}
);
width = 496;
}
);
unicode = 00D8;
},
